{
.appVersion = "1352";
DisplayStrings = (
"HH/Placeholder HO/Placeholder OOFAF/space GAG\012A/Placeholder A/space B/Placeholder B/space C/Placeholder C/space D/Placeholder D/space E/Placeholder E/space F/Placeholder F/space G/Placeholder G/space H/Placeholder H/space I/Placeholder I/space/space J/Placeholder J/space K/Placeholder K/space L/Placeholder L/space M/Placeholder M/space N/Placeholder N/space O/Placeholder O/space P/Placeholder P/space Q/Placeholder Q/space R/Placeholder R/space S/Placeholder S/space T/Placeholder T/space U/Placeholder U/space V/Placeholder V/space W/Placeholder W/space X/Placeholder X/space Y/Placeholder Y/space Z/Placeholder Z/space TIIIHH/Placeholder HO/Placeholder OO\012¿EOHTVFDYCGOOMALYAVROYONMJMVWATHBOCDEFGHIJKOLMHNOPOQRSOTUVWOXOYZ\012\012¿AWARD/space AVATAR/space YOU/space AFAIK/space ALL/space TALL/space TOMATO/space PAIN/space AUSTRAL/space OVOIDE/space OXO/space OYO/space AMAYA/space TIT/space FOLD/space AVANZAR/space Peto/space Fosforo/space Pato/space Pito/space Feo/space Tuvo/space TieneTaraTermo/space Tomate/space Yuno/space Yin/space Yale/space You/space Yeyo/space Fio/space Falaz/space Wonder/space Volcan/space Wals/space Well/space/space Winston/space Wulc/space/space Viene/space Variar/space Velocidad/space Kellogs/space Kunst/space Kale/space \012LORD/space PJROJO/space WYN",
"/f_f/space/f_f_i/space/f_f_l/space/fi/space/fl/space/f_f.ss01/space/f_f_i.ss01/space/f_f_l.ss01/space/fi.ss01/space/fl.ss01 \012ff/space ffi/space ffl/space f/idotless/space fl/space/f.ss01/f.ss01/space/f.ss01/f.ss01/i.ss01/space/f.ss01/f.ss01/l.ss01/space/f.ss01/i.ss01/space/f.ss01/l.ss01",

glyphs = (
{
glyphname = .notdef;
lastChange = "2021-11-12 12:09:10 +0000";
layers = (
{
background = {
paths = (
{
closed = 1;
nodes = (
"469 0 LINE",
"478 8 LINE",
"478 621 LINE",
"469 630 LINE",
"48 630 LINE",
"40 620 LINE",
"40 9 LINE",
"48 0 LINE"
);
},
{
closed = 1;
nodes = (
"144 150 LINE",
"234 316 LINE",
"144 479 LINE",
"163 514 LINE",
"253 350 LINE",
"344 514 LINE",
"363 479 LINE",
"273 314 LINE",
"363 150 LINE",
"344 116 LINE",
"253 279 LINE",
"163 116 LINE"
);
},
{
closed = 1;
nodes = (
"57 16 LINE",
"57 613 LINE",
"461 613 LINE",
"461 16 LINE"
);
},
{
closed = 1;
nodes = (
"92 49 LINE",
"427 49 LINE",
"427 577 LINE",
"92 577 LINE"
);
}
);
};
layerId = "2ADFC918-CAA7-4AF7-825A-5AAC412EF250";
paths = (
{
closed = 1;
nodes = (
"469 20 LINE",
"478 28 LINE",
"478 641 LINE",
"469 650 LINE",
"48 650 LINE",
"40 640 LINE",
"40 29 LINE",
"48 20 LINE"
);
},
{
closed = 1;
nodes = (
"144 170 LINE",
"234 336 LINE",
"144 499 LINE",
"163 534 LINE",
"253 370 LINE",
"344 534 LINE",
"363 499 LINE",
"273 334 LINE",
"363 170 LINE",
"344 136 LINE",
"253 299 LINE",
"163 136 LINE"
);
},
{
closed = 1;
nodes = (
"57 633 LINE",
"461 633 LINE",
"461 36 LINE",
"57 36 LINE"
);
},
{
closed = 1;
nodes = (
"427 69 LINE",
"427 597 LINE",
"92 597 LINE",
"92 69 LINE"
);
}
);
width = 518;
}
);
note = .notdef;
},
{
glyphname = A;
lastChange = "2021-11-12 19:41:26 +0000";
layers = (
{
anchors = (
{
name = bottom;
position = "{648, 0}";
},
{
name = ogonek;
position = "{1049, -10}";
},
{
name = top;
position = "{710, 705}";
}
);
background = {
anchors = (
{
name = bottom;
position = "{647, 0}";
},
{
name = ogonek;
position = "{970, -54}";
},
{
name = top;
position = "{716, 752}";
}
);
paths = (
{
closed = 1;
nodes = (
"190 -90 OFFCURVE",
"198 -90 OFFCURVE",
"206 -90 CURVE SMOOTH",
"415 -90 OFFCURVE",
"502 135 OFFCURVE",
"579 294 CURVE",
"644 293 OFFCURVE",
"710 289 OFFCURVE",
"775 289 CURVE",
"796 207 OFFCURVE",
"860 -54 OFFCURVE",
"970 -54 CURVE SMOOTH",
"987 -54 OFFCURVE",
"997 -38 OFFCURVE",
"999 -26 CURVE SMOOTH",
"1001 -12 OFFCURVE",
"993 4 OFFCURVE",
"971 0 CURVE",
"908 -22 OFFCURVE",
"842 232 OFFCURVE",
"827 288 CURVE",
"847 290 OFFCURVE",
"854 300 OFFCURVE",
"854 310 CURVE SMOOTH",
"854 323 OFFCURVE",
"842 337 OFFCURVE",
"828 337 CURVE SMOOTH",
"824 337 OFFCURVE",
"820 336 OFFCURVE",
"816 336 CURVE",
"790 443 OFFCURVE",
"769 550 OFFCURVE",
"748 658 CURVE SMOOTH",
"743 683 OFFCURVE",
"740 706 OFFCURVE",
"717 706 CURVE SMOOTH",
"699 706 OFFCURVE",
"691 693 OFFCURVE",
"685 676 CURVE SMOOTH",
"656 586 OFFCURVE",
"586 426 OFFCURVE",
"545 340 CURVE",
"522 335 OFFCURVE",
"478 319 OFFCURVE",
"471 295 CURVE SMOOTH",
"470 292 OFFCURVE",
"470 289 OFFCURVE",
"470 287 CURVE SMOOTH",
"470 273 OFFCURVE",
"480 266 OFFCURVE",
"492 266 CURVE SMOOTH",
"501 266 OFFCURVE",
"511 270 OFFCURVE",
"517 280 CURVE",
"457 149 OFFCURVE",
"372 -41 OFFCURVE",
"206 -41 CURVE SMOOTH",
"199 -41 OFFCURVE",
"193 -41 OFFCURVE",
"186 -40 CURVE SMOOTH",
"166 -38 OFFCURVE",
"145 -29 OFFCURVE",
"128 -18 CURVE SMOOTH",
"80 14 OFFCURVE",
"60 65 OFFCURVE",
"60 121 CURVE SMOOTH",
"60 223 OFFCURVE",
"128 315 OFFCURVE",
"235 315 CURVE SMOOTH",
"257 315 OFFCURVE",
"282 310 OFFCURVE",
"301 299 CURVE SMOOTH",
"334 281 OFFCURVE",
"348 248 OFFCURVE",
"348 215 CURVE SMOOTH",
"348 169 OFFCURVE",
"320 124 OFFCURVE",
"276 124 CURVE SMOOTH",
"251 124 OFFCURVE",
"248 133 OFFCURVE",
"228 138 CURVE SMOOTH",
"225 139 OFFCURVE",
"221 139 OFFCURVE",
"219 139 CURVE SMOOTH",
"204 139 OFFCURVE",
"196 128 OFFCURVE",
"196 116 CURVE SMOOTH",
"196 108 OFFCURVE",
"199 99 OFFCURVE",
"207 94 CURVE SMOOTH",
"216 87 OFFCURVE",
"248 79 OFFCURVE",
"258 78 CURVE SMOOTH",
"265 77 OFFCURVE",
"272 76 OFFCURVE",
"278 76 CURVE SMOOTH",
"355 76 OFFCURVE",
"397 143 OFFCURVE",
"397 211 CURVE SMOOTH",
"397 263 OFFCURVE",
"373 316 OFFCURVE",
"323 343 CURVE SMOOTH",
"297 357 OFFCURVE",
"266 365 OFFCURVE",
"236 365 CURVE SMOOTH",
"94 365 OFFCURVE",
"10 240 OFFCURVE",
"10 121 CURVE SMOOTH",
"10 50 OFFCURVE",
"40 -19 OFFCURVE",
"104 -61 CURVE SMOOTH",
"126 -76 OFFCURVE",
"153 -87 OFFCURVE",
"181 -89 CURVE SMOOTH"
);
},
{
closed = 1;
nodes = (
"519 285 OFFCURVE",
"519 286 OFFCURVE",
"521 288 CURVE",
"520 286 OFFCURVE",
"519 285 OFFCURVE",
"519 283 CURVE"
);
},
{
closed = 1;
nodes = (
"710 339 OFFCURVE",
"657 344 OFFCURVE",
"603 345 CURVE",
"640 425 OFFCURVE",
"681 511 OFFCURVE",
"711 595 CURVE",
"730 503 OFFCURVE",
"745 420 OFFCURVE",
"764 338 CURVE"
);
},
{
closed = 1;
nodes = (
"415 -70 OFFCURVE",
"502 155 OFFCURVE",
"579 314 CURVE",
"644 313 OFFCURVE",
"710 309 OFFCURVE",
"775 309 CURVE",
"796 227 OFFCURVE",
"860 -34 OFFCURVE",
"970 -34 CURVE SMOOTH",
"989 -34 OFFCURVE",
"999 -14 OFFCURVE",
"999 -2 CURVE SMOOTH",
"999 11 OFFCURVE",
"991 24 OFFCURVE",
"971 20 CURVE",
"908 -2 OFFCURVE",
"842 252 OFFCURVE",
"827 308 CURVE",
"847 310 OFFCURVE",
"854 320 OFFCURVE",
"854 330 CURVE SMOOTH",
"854 343 OFFCURVE",
"842 357 OFFCURVE",
"828 357 CURVE SMOOTH",
"824 357 OFFCURVE",
"820 356 OFFCURVE",
"816 356 CURVE",
"790 463 OFFCURVE",
"769 570 OFFCURVE",
"748 678 CURVE SMOOTH",
"743 703 OFFCURVE",
"740 726 OFFCURVE",
"717 726 CURVE SMOOTH",
"699 726 OFFCURVE",
"691 713 OFFCURVE",
"685 696 CURVE SMOOTH",
"656 606 OFFCURVE",
"586 446 OFFCURVE",
"545 360 CURVE",
"522 355 OFFCURVE",
"478 339 OFFCURVE",
"471 315 CURVE SMOOTH",
"470 312 OFFCURVE",
"470 309 OFFCURVE",
"470 307 CURVE SMOOTH",
"470 293 OFFCURVE",
"480 286 OFFCURVE",
"492 286 CURVE SMOOTH",
"501 286 OFFCURVE",
"511 290 OFFCURVE",
"517 300 CURVE",
"457 169 OFFCURVE",
"372 -21 OFFCURVE",
"206 -21 CURVE SMOOTH",
"199 -21 OFFCURVE",
"193 -21 OFFCURVE",
"186 -20 CURVE SMOOTH",
"166 -18 OFFCURVE",
"145 -9 OFFCURVE",
"128 2 CURVE SMOOTH",
"80 34 OFFCURVE",
"60 85 OFFCURVE",
"60 141 CURVE SMOOTH",
"60 243 OFFCURVE",
"128 335 OFFCURVE",
"235 335 CURVE SMOOTH",
"257 335 OFFCURVE",
"282 330 OFFCURVE",
"301 319 CURVE SMOOTH",
"334 301 OFFCURVE",
"348 268 OFFCURVE",
"348 235 CURVE SMOOTH",
"348 189 OFFCURVE",
"320 144 OFFCURVE",
"276 144 CURVE SMOOTH",
"251 144 OFFCURVE",
"248 153 OFFCURVE",
"228 158 CURVE SMOOTH",
"225 159 OFFCURVE",
"221 159 OFFCURVE",
"219 159 CURVE SMOOTH",
"204 159 OFFCURVE",
"196 148 OFFCURVE",
"196 136 CURVE SMOOTH",
"196 128 OFFCURVE",
"199 119 OFFCURVE",
"207 114 CURVE SMOOTH",
"216 107 OFFCURVE",
"248 99 OFFCURVE",
"258 98 CURVE SMOOTH",
"265 97 OFFCURVE",
"272 96 OFFCURVE",
"278 96 CURVE SMOOTH",
"355 96 OFFCURVE",
"397 163 OFFCURVE",
"397 231 CURVE SMOOTH",
"397 283 OFFCURVE",
"373 336 OFFCURVE",
"323 363 CURVE SMOOTH",
"297 377 OFFCURVE",
"266 385 OFFCURVE",
"236 385 CURVE SMOOTH",
"94 385 OFFCURVE",
"10 260 OFFCURVE",
"10 141 CURVE SMOOTH",
"10 70 OFFCURVE",
"40 1 OFFCURVE",
"104 -41 CURVE SMOOTH",
"126 -56 OFFCURVE",
"153 -67 OFFCURVE",
"181 -69 CURVE SMOOTH",
"190 -70 OFFCURVE",
"198 -70 OFFCURVE",
"206 -70 CURVE SMOOTH"
);
},
{
closed = 1;
nodes = (
"519 305 OFFCURVE",
"519 306 OFFCURVE",
"521 308 CURVE",
"520 306 OFFCURVE",
"519 305 OFFCURVE",
"519 303 CURVE"
);
},
{
closed = 1;
nodes = (
"710 359 OFFCURVE",
"657 364 OFFCURVE",
"603 365 CURVE",
"640 445 OFFCURVE",
"681 531 OFFCURVE",
"711 615 CURVE",
"730 523 OFFCURVE",
"745 440 OFFCURVE",
"764 358 CURVE"
);
}
);
};
layerId = "2ADFC918-CAA7-4AF7-825A-5AAC412EF250";
paths = (
{
closed = 1;
nodes = (
"415 -70 OFFCURVE",
"502 155 OFFCURVE",
"579 314 CURVE",
"644 313 OFFCURVE",
"710 309 OFFCURVE",
"775 309 CURVE",
"796 227 OFFCURVE",
"860 -34 OFFCURVE",
"970 -34 CURVE SMOOTH",
"987 -34 OFFCURVE",
"999 -21 OFFCURVE",
"999 -2 CURVE SMOOTH",
"999 11 OFFCURVE",
"991 24 OFFCURVE",
"971 20 CURVE SMOOTH",
"954 14 OFFCURVE",
"937 28 OFFCURVE",
"920 53 CURVE SMOOTH",
"876 121 OFFCURVE",
"838 267 OFFCURVE",
"827 308 CURVE",
"847 310 OFFCURVE",
"854 320 OFFCURVE",
"854 330 CURVE SMOOTH",
"854 343 OFFCURVE",
"842 357 OFFCURVE",
"828 357 CURVE SMOOTH",
"824 357 OFFCURVE",
"820 356 OFFCURVE",
"816 356 CURVE",
"790 463 OFFCURVE",
"769 570 OFFCURVE",
"748 678 CURVE SMOOTH",
"743 703 OFFCURVE",
"740 726 OFFCURVE",
"717 726 CURVE SMOOTH",
"699 726 OFFCURVE",
"691 713 OFFCURVE",
"685 696 CURVE SMOOTH",
"656 606 OFFCURVE",
"586 446 OFFCURVE",
"545 360 CURVE",
"521 355 OFFCURVE",
"470 337 OFFCURVE",
"470 307 CURVE SMOOTH",
"470 293 OFFCURVE",
"480 286 OFFCURVE",
"492 286 CURVE SMOOTH",
"501 286 OFFCURVE",
"511 290 OFFCURVE",
"517 300 CURVE",
"457 169 OFFCURVE",
"372 -21 OFFCURVE",
"206 -21 CURVE SMOOTH",
"117 -21 OFFCURVE",
"60 52 OFFCURVE",
"60 141 CURVE SMOOTH",
"60 243 OFFCURVE",
"128 335 OFFCURVE",
"235 335 CURVE SMOOTH",
"296 335 OFFCURVE",
"348 301 OFFCURVE",
"348 235 CURVE SMOOTH",
"348 189 OFFCURVE",
"320 144 OFFCURVE",
"276 144 CURVE SMOOTH",
"251 144 OFFCURVE",
"240 159 OFFCURVE",
"219 159 CURVE SMOOTH",
"204 159 OFFCURVE",
"196 148 OFFCURVE",
"196 136 CURVE SMOOTH",
"196 110 OFFCURVE",
"234 96 OFFCURVE",
"275 96 CURVE SMOOTH",
"355 96 OFFCURVE",
"397 163 OFFCURVE",
"397 231 CURVE SMOOTH",
"397 324 OFFCURVE",
"327 385 OFFCURVE",
"236 385 CURVE SMOOTH",
"94 385 OFFCURVE",
"10 260 OFFCURVE",
"10 141 CURVE SMOOTH",
"10 29 OFFCURVE",
"88 -70 OFFCURVE",
"206 -70 CURVE SMOOTH"
);
},
{
closed = 1;
nodes = (
"710 359 OFFCURVE",
"657 364 OFFCURVE",
"603 365 CURVE",
"640 445 OFFCURVE",
"681 531 OFFCURVE",
"711 615 CURVE",
"730 523 OFFCURVE",
"745 440 OFFCURVE",
"764 358 CURVE"
);
}
);
width = 997;
}
);
leftKerningGroup = A;
note = A;
rightKerningGroup = A;
unicode = 0041;
},
{
glyphname = AE;
lastChange = "2021-11-12 16:19:11 +0000";
layers = (
{
anchors = (
{
name = bottom;
position = "{654, 0}";
},
{
name = top;
position = "{929, 754}";
}
);
background = {
anchors = (
{
name = bottom;
position = "{1295, -37}";
},
{
name = ogonek;
position = "{1291, -37}";
},
{
name = top;
position = "{1319, 752}";
},
{
name = topleft;
position = "{993, 705}";
}
);
paths = (
{
closed = 1;
nodes = (
"161 -90 OFFCURVE",
"169 -90 OFFCURVE",
"177 -90 CURVE SMOOTH",
"386 -90 OFFCURVE",
"473 135 OFFCURVE",
"550 294 CURVE",
"615 293 OFFCURVE",
"722 289 OFFCURVE",
"787 289 CURVE",
"787 336 LINE",
"761 443 OFFCURVE",
"740 550 OFFCURVE",
"719 658 CURVE SMOOTH",
"714 683 OFFCURVE",
"711 706 OFFCURVE",
"688 706 CURVE SMOOTH",
"670 706 OFFCURVE",
"662 693 OFFCURVE",
"656 676 CURVE SMOOTH",
"627 586 OFFCURVE",
"557 426 OFFCURVE",
"516 340 CURVE",
"493 335 OFFCURVE",
"449 319 OFFCURVE",
"442 295 CURVE SMOOTH",
"441 292 OFFCURVE",
"441 289 OFFCURVE",
"441 287 CURVE SMOOTH",
"441 273 OFFCURVE",
"451 266 OFFCURVE",
"463 266 CURVE SMOOTH",
"472 266 OFFCURVE",
"482 270 OFFCURVE",
"488 280 CURVE",
"428 149 OFFCURVE",
"343 -41 OFFCURVE",
"177 -41 CURVE SMOOTH",
"170 -41 OFFCURVE",
"164 -41 OFFCURVE",
"157 -40 CURVE SMOOTH",
"137 -38 OFFCURVE",
"116 -29 OFFCURVE",
"99 -18 CURVE SMOOTH",
"51 14 OFFCURVE",
"31 65 OFFCURVE",
"31 121 CURVE SMOOTH",
"31 223 OFFCURVE",
"99 315 OFFCURVE",
"206 315 CURVE SMOOTH",
"228 315 OFFCURVE",
"253 310 OFFCURVE",
"272 299 CURVE SMOOTH",
"305 281 OFFCURVE",
"319 248 OFFCURVE",
"319 215 CURVE SMOOTH",
"319 169 OFFCURVE",
"291 124 OFFCURVE",
"247 124 CURVE SMOOTH",
"222 124 OFFCURVE",
"219 133 OFFCURVE",
"199 138 CURVE SMOOTH",
"196 139 OFFCURVE",
"192 139 OFFCURVE",
"190 139 CURVE SMOOTH",
"175 139 OFFCURVE",
"167 128 OFFCURVE",
"167 116 CURVE SMOOTH",
"167 108 OFFCURVE",
"170 99 OFFCURVE",
"178 94 CURVE SMOOTH",
"187 87 OFFCURVE",
"219 79 OFFCURVE",
"229 78 CURVE SMOOTH",
"236 77 OFFCURVE",
"243 76 OFFCURVE",
"249 76 CURVE SMOOTH",
"326 76 OFFCURVE",
"368 143 OFFCURVE",
"368 211 CURVE SMOOTH",
"368 263 OFFCURVE",
"344 316 OFFCURVE",
"294 343 CURVE SMOOTH",
"268 357 OFFCURVE",
"237 365 OFFCURVE",
"207 365 CURVE SMOOTH",
"65 365 OFFCURVE",
"-19 240 OFFCURVE",
"-19 121 CURVE SMOOTH",
"-19 50 OFFCURVE",
"11 -19 OFFCURVE",
"75 -61 CURVE SMOOTH",
"97 -76 OFFCURVE",
"124 -87 OFFCURVE",
"152 -89 CURVE SMOOTH"
);
},
{
closed = 1;
nodes = (
"490 285 OFFCURVE",
"490 286 OFFCURVE",
"492 288 CURVE",
"491 286 OFFCURVE",
"490 285 OFFCURVE",
"490 283 CURVE"
);
},
{
closed = 1;
nodes = (
"681 339 OFFCURVE",
"628 344 OFFCURVE",
"574 345 CURVE",
"611 425 OFFCURVE",
"652 511 OFFCURVE",
"682 595 CURVE",
"701 503 OFFCURVE",
"716 420 OFFCURVE",
"735 338 CURVE"
);
},
{
closed = 1;
nodes = (
"891 3 OFFCURVE",
"777 59 OFFCURVE",
"777 189 CURVE SMOOTH",
"777 269 OFFCURVE",
"840 334 OFFCURVE",
"913 370 CURVE",
"953 344 OFFCURVE",
"998 330 OFFCURVE",
"1044 330 CURVE SMOOTH",
"1117 330 OFFCURVE",
"1154 355 OFFCURVE",
"1154 389 CURVE SMOOTH",
"1154 420 OFFCURVE",
"1124 441 OFFCURVE",
"1059 448 CURVE SMOOTH",
"1014 452 OFFCURVE",
"962 441 OFFCURVE",
"920 426 CURVE",
"889 453 OFFCURVE",
"868 488 OFFCURVE",
"868 525 CURVE SMOOTH",
"868 642 OFFCURVE",
"964 687 OFFCURVE",
"1070 687 CURVE SMOOTH",
"1122 687 OFFCURVE",
"1185 661 OFFCURVE",
"1185 602 CURVE SMOOTH",
"1185 591 OFFCURVE",
"1181 578 OFFCURVE",
"1175 569 CURVE SMOOTH",
"1170 562 OFFCURVE",
"1160 559 OFFCURVE",
"1150 559 CURVE SMOOTH",
"1135 559 OFFCURVE",
"1120 566 OFFCURVE",
"1118 574 CURVE",
"1118 577 OFFCURVE",
"1121 584 OFFCURVE",
"1121 588 CURVE SMOOTH",
"1122 610 OFFCURVE",
"1112 619 OFFCURVE",
"1101 619 CURVE SMOOTH",
"1088 619 OFFCURVE",
"1072 605 OFFCURVE",
"1072 587 CURVE SMOOTH",
"1072 542 OFFCURVE",
"1113 507 OFFCURVE",
"1155 507 CURVE SMOOTH",
"1177 507 OFFCURVE",
"1200 518 OFFCURVE",
"1217 542 CURVE SMOOTH",
"1230 560 OFFCURVE",
"1236 583 OFFCURVE",
"1236 605 CURVE SMOOTH",
"1234 691 OFFCURVE",
"1143 736 OFFCURVE",
"1070 736 CURVE SMOOTH",
"941 736 OFFCURVE",
"818 671 OFFCURVE",
"818 524 CURVE SMOOTH",
"818 477 OFFCURVE",
"839 436 OFFCURVE",
"870 403 CURVE",
"791 359 OFFCURVE",
"730 285 OFFCURVE",
"730 188 CURVE SMOOTH",
"730 26 OFFCURVE",
"864 -46 OFFCURVE",
"1003 -46 CURVE SMOOTH",
"1145 -46 OFFCURVE",
"1292 29 OFFCURVE",
"1305 159 CURVE SMOOTH",
"1306 168 OFFCURVE",
"1306 177 OFFCURVE",
"1306 186 CURVE SMOOTH",
"1306 200 OFFCURVE",
"1305 213 OFFCURVE",
"1301 228 CURVE SMOOTH",
"1290 268 OFFCURVE",
"1257 305 OFFCURVE",
"1210 305 CURVE SMOOTH",
"1202 305 OFFCURVE",
"1176 301 OFFCURVE",
"1168 292 CURVE SMOOTH",
"1158 281 OFFCURVE",
"1154 273 OFFCURVE",
"1154 267 CURVE SMOOTH",
"1154 255 OFFCURVE",
"1171 252 OFFCURVE",
"1187 252 CURVE SMOOTH",
"1200 252 OFFCURVE",
"1212 254 OFFCURVE",
"1211 254 CURVE SMOOTH",
"1259 255 OFFCURVE",
"1257 196 OFFCURVE",
"1256 162 CURVE SMOOTH",
"1255 141 OFFCURVE",
"1246 120 OFFCURVE",
"1235 102 CURVE SMOOTH",
"1189 31 OFFCURVE",
"1089 3 OFFCURVE",
"1008 3 CURVE SMOOTH"
);
},
{
closed = 1;
nodes = (
"1101 374 OFFCURVE",
"1082 369 OFFCURVE",
"1058 369 CURVE SMOOTH",
"1020 369 OFFCURVE",
"970 381 OFFCURVE",
"958 396 CURVE",
"970 405 OFFCURVE",
"1013 415 OFFCURVE",
"1049 415 CURVE SMOOTH",
"1080 415 OFFCURVE",
"1106 408 OFFCURVE",
"1103 387 CURVE SMOOTH"
);
}
);
};
layerId = "2ADFC918-CAA7-4AF7-825A-5AAC412EF250";
paths = (
{
closed = 1;
nodes = (
"386 -70 OFFCURVE",
"473 155 OFFCURVE",
"550 314 CURVE",
"615 313 OFFCURVE",
"722 309 OFFCURVE",
"787 309 CURVE",
"787 356 LINE",
"761 463 OFFCURVE",
"740 570 OFFCURVE",
"719 678 CURVE SMOOTH",
"714 703 OFFCURVE",
"711 726 OFFCURVE",
"688 726 CURVE SMOOTH",
"670 726 OFFCURVE",
"662 713 OFFCURVE",
"656 696 CURVE SMOOTH",
"627 606 OFFCURVE",
"557 446 OFFCURVE",
"516 360 CURVE",
"493 355 OFFCURVE",
"449 339 OFFCURVE",
"442 315 CURVE SMOOTH",
"441 312 OFFCURVE",
"441 309 OFFCURVE",
"441 307 CURVE SMOOTH",
"441 293 OFFCURVE",
"451 286 OFFCURVE",
"463 286 CURVE SMOOTH",
"472 286 OFFCURVE",
"482 290 OFFCURVE",
"488 300 CURVE",
"428 169 OFFCURVE",
"343 -21 OFFCURVE",
"177 -21 CURVE SMOOTH",
"170 -21 OFFCURVE",
"164 -21 OFFCURVE",
"157 -20 CURVE SMOOTH",
"137 -18 OFFCURVE",
"116 -9 OFFCURVE",
"99 2 CURVE SMOOTH",
"51 34 OFFCURVE",
"31 85 OFFCURVE",
"31 141 CURVE SMOOTH",
"31 243 OFFCURVE",
"99 335 OFFCURVE",
"206 335 CURVE SMOOTH",
"228 335 OFFCURVE",
"253 330 OFFCURVE",
"272 319 CURVE SMOOTH",
"305 301 OFFCURVE",
"319 268 OFFCURVE",
"319 235 CURVE SMOOTH",
"319 189 OFFCURVE",
"291 144 OFFCURVE",
"247 144 CURVE SMOOTH",
"222 144 OFFCURVE",
"219 153 OFFCURVE",
"199 158 CURVE SMOOTH",
"196 159 OFFCURVE",
"192 159 OFFCURVE",
"190 159 CURVE SMOOTH",
"175 159 OFFCURVE",
"167 148 OFFCURVE",
"167 136 CURVE SMOOTH",
"167 128 OFFCURVE",
"170 119 OFFCURVE",
"178 114 CURVE SMOOTH",
"187 107 OFFCURVE",
"219 99 OFFCURVE",
"229 98 CURVE SMOOTH",
"236 97 OFFCURVE",
"243 96 OFFCURVE",
"249 96 CURVE SMOOTH",
"326 96 OFFCURVE",
"368 163 OFFCURVE",
"368 231 CURVE SMOOTH",
"368 283 OFFCURVE",
"344 336 OFFCURVE",
"294 363 CURVE SMOOTH",
"268 377 OFFCURVE",
"237 385 OFFCURVE",
"207 385 CURVE SMOOTH",
"65 385 OFFCURVE",
"-19 260 OFFCURVE",
"-19 141 CURVE SMOOTH",
"-19 70 OFFCURVE",
"11 1 OFFCURVE",
"75 -41 CURVE SMOOTH",
"97 -56 OFFCURVE",
"124 -67 OFFCURVE",
"152 -69 CURVE SMOOTH",
"161 -70 OFFCURVE",
"169 -70 OFFCURVE",
"177 -70 CURVE SMOOTH"
);
},
{
closed = 1;
nodes = (
"490 305 OFFCURVE",
"490 306 OFFCURVE",
"492 308 CURVE",
"491 306 OFFCURVE",
"490 305 OFFCURVE",
"490 303 CURVE"
);
},
{
closed = 1;
nodes = (
"681 359 OFFCURVE",
"628 364 OFFCURVE",
"574 365 CURVE",
"611 445 OFFCURVE",
"652 531 OFFCURVE",
"682 615 CURVE",
"701 523 OFFCURVE",
"716 440 OFFCURVE",
"735 358 CURVE"
);
},
{
closed = 1;
nodes = (
"1145 -26 OFFCURVE",
"1292 49 OFFCURVE",
"1305 179 CURVE SMOOTH",
"1306 188 OFFCURVE",
"1306 197 OFFCURVE",
"1306 206 CURVE SMOOTH",
"1306 220 OFFCURVE",
"1305 233 OFFCURVE",
"1301 248 CURVE SMOOTH",
"1290 288 OFFCURVE",
"1257 325 OFFCURVE",
"1210 325 CURVE SMOOTH",
"1202 325 OFFCURVE",
"1176 321 OFFCURVE",
"1168 312 CURVE SMOOTH",
"1158 301 OFFCURVE",
"1154 293 OFFCURVE",
"1154 287 CURVE SMOOTH",
"1154 275 OFFCURVE",
"1171 272 OFFCURVE",
"1187 272 CURVE SMOOTH",
"1202 272 OFFCURVE",
"1215 274 OFFCURVE",
"1212 274 CURVE SMOOTH",
"1259 274 OFFCURVE",
"1257 216 OFFCURVE",
"1256 182 CURVE SMOOTH",
"1255 161 OFFCURVE",
"1246 140 OFFCURVE",
"1235 122 CURVE SMOOTH",
"1189 51 OFFCURVE",
"1089 23 OFFCURVE",
"1008 23 CURVE SMOOTH",
"891 23 OFFCURVE",
"777 79 OFFCURVE",
"777 209 CURVE SMOOTH",
"777 289 OFFCURVE",
"840 354 OFFCURVE",
"913 390 CURVE",
"953 364 OFFCURVE",
"998 350 OFFCURVE",
"1044 350 CURVE SMOOTH",
"1117 350 OFFCURVE",
"1154 375 OFFCURVE",
"1154 409 CURVE SMOOTH",
"1154 440 OFFCURVE",
"1124 461 OFFCURVE",
"1059 468 CURVE SMOOTH",
"1014 472 OFFCURVE",
"962 461 OFFCURVE",
"920 446 CURVE",
"889 473 OFFCURVE",
"868 508 OFFCURVE",
"868 545 CURVE SMOOTH",
"868 662 OFFCURVE",
"964 707 OFFCURVE",
"1070 707 CURVE SMOOTH",
"1122 707 OFFCURVE",
"1185 681 OFFCURVE",
"1185 622 CURVE SMOOTH",
"1185 611 OFFCURVE",
"1181 598 OFFCURVE",
"1175 589 CURVE SMOOTH",
"1170 582 OFFCURVE",
"1160 579 OFFCURVE",
"1150 579 CURVE SMOOTH",
"1135 579 OFFCURVE",
"1120 586 OFFCURVE",
"1118 594 CURVE",
"1118 597 OFFCURVE",
"1121 604 OFFCURVE",
"1121 608 CURVE SMOOTH",
"1122 630 OFFCURVE",
"1112 639 OFFCURVE",
"1101 639 CURVE SMOOTH",
"1088 639 OFFCURVE",
"1072 625 OFFCURVE",
"1072 607 CURVE SMOOTH",
"1072 562 OFFCURVE",
"1113 527 OFFCURVE",
"1155 527 CURVE SMOOTH",
"1177 527 OFFCURVE",
"1200 538 OFFCURVE",
"1217 562 CURVE SMOOTH",
"1230 580 OFFCURVE",
"1236 603 OFFCURVE",
"1236 625 CURVE SMOOTH",
"1234 711 OFFCURVE",
"1143 756 OFFCURVE",
"1070 756 CURVE SMOOTH",
"941 756 OFFCURVE",
"818 691 OFFCURVE",
"818 544 CURVE SMOOTH",
"818 497 OFFCURVE",
"839 456 OFFCURVE",
"870 423 CURVE",
"791 379 OFFCURVE",
"730 305 OFFCURVE",
"730 208 CURVE SMOOTH",
"730 46 OFFCURVE",
"864 -26 OFFCURVE",
"1003 -26 CURVE SMOOTH"
);
},
{
closed = 1;
nodes = (
"1020 389 OFFCURVE",
"970 401 OFFCURVE",
"958 416 CURVE",
"970 425 OFFCURVE",
"1013 435 OFFCURVE",
"1049 435 CURVE SMOOTH",
"1078 435 OFFCURVE",
"1103 429 OFFCURVE",
"1103 410 CURVE SMOOTH",
"1103 395 OFFCURVE",
"1084 389 OFFCURVE",
"1058 389 CURVE SMOOTH"
);
}
);
width = 1308;
}
);
leftKerningGroup = A;
note = AE;
rightKerningGroup = E;
unicode = 00C6;
},
{
glyphname = B;
lastChange = "2021-11-12 19:36:49 +0000";
layers = (
{
background = {
paths = (
{
closed = 1;
nodes = (
"462 -44 OFFCURVE",
"656 24 OFFCURVE",
"656 183 CURVE SMOOTH",
"656 193 OFFCURVE",
"655 203 OFFCURVE",
"654 213 CURVE SMOOTH",
"642 292 OFFCURVE",
"594 344 OFFCURVE",
"532 374 CURVE",
"570 405 OFFCURVE",
"597 448 OFFCURVE",
"597 501 CURVE SMOOTH",
"597 643 OFFCURVE",
"420 696 OFFCURVE",
"316 696 CURVE SMOOTH",
"234 696 OFFCURVE",
"107 663 OFFCURVE",
"78 582 CURVE SMOOTH",
"76 577 OFFCURVE",
"76 573 OFFCURVE",
"76 569 CURVE SMOOTH",
"76 553 OFFCURVE",
"86 543 OFFCURVE",
"95 543 CURVE SMOOTH",
"101 543 OFFCURVE",
"106 546 OFFCURVE",
"109 555 CURVE SMOOTH",
"130 615 OFFCURVE",
"215 644 OFFCURVE",
"305 644 CURVE SMOOTH",
"398 644 OFFCURVE",
"495 612 OFFCURVE",
"532 551 CURVE SMOOTH",
"543 532 OFFCURVE",
"548 514 OFFCURVE",
"548 497 CURVE SMOOTH",
"548 454 OFFCURVE",
"516 419 OFFCURVE",
"469 395 CURVE",
"447 398 OFFCURVE",
"427 403 OFFCURVE",
"399 403 CURVE SMOOTH",
"384 403 OFFCURVE",
"368 402 OFFCURVE",
"349 398 CURVE SMOOTH",
"328 393 OFFCURVE",
"318 381 OFFCURVE",
"318 368 CURVE SMOOTH",
"318 356 OFFCURVE",
"327 342 OFFCURVE",
"343 334 CURVE SMOOTH",
"353 329 OFFCURVE",
"372 326 OFFCURVE",
"395 326 CURVE SMOOTH",
"422 326 OFFCURVE",
"454 330 OFFCURVE",
"479 342 CURVE",
"543 322 OFFCURVE",
"595 278 OFFCURVE",
"605 206 CURVE SMOOTH",
"606 200 OFFCURVE",
"606 193 OFFCURVE",
"606 187 CURVE SMOOTH",
"606 108 OFFCURVE",
"537 52 OFFCURVE",
"464 26 CURVE SMOOTH",
"421 11 OFFCURVE",
"376 5 OFFCURVE",
"332 5 CURVE SMOOTH",
"309 5 OFFCURVE",
"286 7 OFFCURVE",
"264 8 CURVE",
"267 29 LINE SMOOTH",
"275 86 OFFCURVE",
"277 142 OFFCURVE",
"277 198 CURVE SMOOTH",
"277 231 OFFCURVE",
"276 265 OFFCURVE",
"276 299 CURVE SMOOTH",
"275 325 OFFCURVE",
"275 351 OFFCURVE",
"275 377 CURVE SMOOTH",
"275 396 OFFCURVE",
"275 415 OFFCURVE",
"276 434 CURVE SMOOTH",
"278 468 OFFCURVE",
"283 502 OFFCURVE",
"297 533 CURVE SMOOTH",
"300 539 OFFCURVE",
"304 544 OFFCURVE",
"306 550 CURVE SMOOTH",
"309 557 OFFCURVE",
"312 565 OFFCURVE",
"312 573 CURVE SMOOTH",
"312 580 OFFCURVE",
"309 587 OFFCURVE",
"301 592 CURVE",
"299 594 OFFCURVE",
"296 594 OFFCURVE",
"293 594 CURVE SMOOTH",
"288 594 OFFCURVE",
"284 593 OFFCURVE",
"282 592 CURVE SMOOTH",
"245 577 OFFCURVE",
"230 471 OFFCURVE",
"227 437 CURVE SMOOTH",
"224 400 OFFCURVE",
"224 362 OFFCURVE",
"224 325 CURVE SMOOTH",
"224 275 OFFCURVE",
"225 226 OFFCURVE",
"225 176 CURVE SMOOTH",
"225 151 OFFCURVE",
"225 127 OFFCURVE",
"224 102 CURVE SMOOTH",
"223 79 OFFCURVE",
"221 56 OFFCURVE",
"218 33 CURVE SMOOTH",
"216 16 LINE",
"154 31 OFFCURVE",
"80 63 OFFCURVE",
"80 131 CURVE SMOOTH",
"80 165 OFFCURVE",
"98 216 OFFCURVE",
"132 221 CURVE SMOOTH",
"137 222 OFFCURVE",
"138 222 OFFCURVE",
"140 222 CURVE",
"146 220 OFFCURVE",
"151 218 OFFCURVE",
"157 218 CURVE SMOOTH",
"172 216 OFFCURVE",
"183 229 OFFCURVE",
"183 243 CURVE SMOOTH",
"183 252 OFFCURVE",
"178 261 OFFCURVE",
"168 266 CURVE SMOOTH",
"157 271 OFFCURVE",
"134 271 OFFCURVE",
"124 270 CURVE SMOOTH",
"63 260 OFFCURVE",
"30 192 OFFCURVE",
"30 137 CURVE SMOOTH",
"30 32 OFFCURVE",
"117 -11 OFFCURVE",
"202 -30 CURVE",
"199 -34 LINE",
"185 -39 OFFCURVE",
"180 -49 OFFCURVE",
"180 -58 CURVE SMOOTH",
"180 -70 OFFCURVE",
"189 -81 OFFCURVE",
"203 -81 CURVE SMOOTH",
"217 -81 OFFCURVE",
"234 -70 OFFCURVE",
"249 -38 CURVE",
"277 -41 OFFCURVE",
"305 -44 OFFCURVE",
"332 -44 CURVE SMOOTH"
);
}
);
};
layerId = "2ADFC918-CAA7-4AF7-825A-5AAC412EF250";
paths = (
{
closed = 1;
nodes = (
"217 -61 OFFCURVE",
"234 -50 OFFCURVE",
"249 -18 CURVE",
"277 -21 OFFCURVE",
"305 -24 OFFCURVE",
"332 -24 CURVE SMOOTH",
"462 -24 OFFCURVE",
"656 44 OFFCURVE",
"656 203 CURVE SMOOTH",
"656 213 OFFCURVE",
"655 223 OFFCURVE",
"654 233 CURVE SMOOTH",
"642 312 OFFCURVE",
"594 364 OFFCURVE",
"532 394 CURVE",
"570 425 OFFCURVE",
"597 468 OFFCURVE",
"597 521 CURVE SMOOTH",
"597 663 OFFCURVE",
"420 716 OFFCURVE",
"316 716 CURVE SMOOTH",
"234 716 OFFCURVE",
"107 683 OFFCURVE",
"78 602 CURVE SMOOTH",
"76 597 OFFCURVE",
"76 593 OFFCURVE",
"76 589 CURVE SMOOTH",
"76 573 OFFCURVE",
"86 563 OFFCURVE",
"95 563 CURVE SMOOTH",
"101 563 OFFCURVE",
"106 566 OFFCURVE",
"109 575 CURVE SMOOTH",
"130 635 OFFCURVE",
"215 664 OFFCURVE",
"305 664 CURVE SMOOTH",
"398 664 OFFCURVE",
"495 632 OFFCURVE",
"532 571 CURVE SMOOTH",
"543 552 OFFCURVE",
"548 534 OFFCURVE",
"548 517 CURVE SMOOTH",
"548 474 OFFCURVE",
"516 439 OFFCURVE",
"469 415 CURVE",
"447 418 OFFCURVE",
"427 423 OFFCURVE",
"399 423 CURVE SMOOTH",
"384 423 OFFCURVE",
"368 422 OFFCURVE",
"349 418 CURVE SMOOTH",
"328 413 OFFCURVE",
"318 401 OFFCURVE",
"318 388 CURVE SMOOTH",
"318 376 OFFCURVE",
"327 362 OFFCURVE",
"343 354 CURVE SMOOTH",
"353 349 OFFCURVE",
"372 346 OFFCURVE",
"395 346 CURVE SMOOTH",
"422 346 OFFCURVE",
"454 350 OFFCURVE",
"479 362 CURVE",
"543 342 OFFCURVE",
"595 298 OFFCURVE",
"605 226 CURVE SMOOTH",
"606 220 OFFCURVE",
"606 213 OFFCURVE",
"606 207 CURVE SMOOTH",
"606 128 OFFCURVE",
"537 72 OFFCURVE",
"464 46 CURVE SMOOTH",
"421 31 OFFCURVE",
"376 24 OFFCURVE",
"332 24 CURVE SMOOTH",
"309 24 OFFCURVE",
"286 27 OFFCURVE",
"264 28 CURVE",
"267 49 LINE SMOOTH",
"275 106 OFFCURVE",
"277 162 OFFCURVE",
"277 218 CURVE SMOOTH",
"277 251 OFFCURVE",
"276 285 OFFCURVE",
"276 319 CURVE SMOOTH",
"275 345 OFFCURVE",
"275 371 OFFCURVE",
"275 397 CURVE SMOOTH",
"275 416 OFFCURVE",
"275 435 OFFCURVE",
"276 454 CURVE SMOOTH",
"278 488 OFFCURVE",
"283 522 OFFCURVE",
"297 553 CURVE SMOOTH",
"300 559 OFFCURVE",
"304 564 OFFCURVE",
"306 570 CURVE SMOOTH",
"309 577 OFFCURVE",
"312 585 OFFCURVE",
"312 593 CURVE SMOOTH",
"312 600 OFFCURVE",
"309 607 OFFCURVE",
"301 612 CURVE",
"299 614 OFFCURVE",
"296 614 OFFCURVE",
"293 614 CURVE SMOOTH",
"288 614 OFFCURVE",
"284 613 OFFCURVE",
"282 612 CURVE SMOOTH",
"245 597 OFFCURVE",
"230 491 OFFCURVE",
"227 457 CURVE SMOOTH",
"224 420 OFFCURVE",
"224 382 OFFCURVE",
"224 345 CURVE SMOOTH",
"224 295 OFFCURVE",
"225 246 OFFCURVE",
"225 196 CURVE SMOOTH",
"225 171 OFFCURVE",
"225 147 OFFCURVE",
"224 122 CURVE SMOOTH",
"223 99 OFFCURVE",
"221 76 OFFCURVE",
"218 53 CURVE SMOOTH",
"216 36 LINE",
"154 51 OFFCURVE",
"80 83 OFFCURVE",
"80 151 CURVE SMOOTH",
"80 185 OFFCURVE",
"98 236 OFFCURVE",
"132 241 CURVE SMOOTH",
"137 242 OFFCURVE",
"138 242 OFFCURVE",
"140 242 CURVE",
"147 240 OFFCURVE",
"153 238 OFFCURVE",
"160 238 CURVE SMOOTH",
"173 238 OFFCURVE",
"183 250 OFFCURVE",
"183 263 CURVE SMOOTH",
"183 272 OFFCURVE",
"178 281 OFFCURVE",
"168 286 CURVE SMOOTH",
"157 291 OFFCURVE",
"134 291 OFFCURVE",
"124 290 CURVE SMOOTH",
"63 280 OFFCURVE",
"30 212 OFFCURVE",
"30 157 CURVE SMOOTH",
"30 52 OFFCURVE",
"117 9 OFFCURVE",
"202 -10 CURVE",
"199 -14 LINE",
"185 -19 OFFCURVE",
"180 -29 OFFCURVE",
"180 -38 CURVE SMOOTH",
"180 -50 OFFCURVE",
"189 -61 OFFCURVE",
"203 -61 CURVE SMOOTH"
);
}
);
width = 721;
}
);
note = B;
unicode = 0042;
},
{
color = 0;
glyphname = C;
lastChange = "2021-11-12 19:42:29 +0000";
layers = (
{
anchors = (
{
name = bottom;
position = "{352, -10}";
},
{
name = top;
position = "{383, 705}";
}
);
background = {
anchors = (
{
name = bottom;
position = "{381, -28}";
},
{
name = top;
position = "{365, 752}";
}
);
paths = (
{
closed = 1;
nodes = (
"452 -15 OFFCURVE",
"560 28 OFFCURVE",
"616 110 CURVE SMOOTH",
"631 132 OFFCURVE",
"643 158 OFFCURVE",
"643 186 CURVE SMOOTH",
"643 195 OFFCURVE",
"636 207 OFFCURVE",
"627 207 CURVE SMOOTH",
"596 207 OFFCURVE",
"604 176 OFFCURVE",
"590 152 CURVE SMOOTH",
"559 99 OFFCURVE",
"493 58 OFFCURVE",
"437 42 CURVE SMOOTH",
"409 34 OFFCURVE",
"383 31 OFFCURVE",
"355 31 CURVE SMOOTH",
"171 31 OFFCURVE",
"81 155 OFFCURVE",
"81 334 CURVE SMOOTH",
"81 500 OFFCURVE",
"200 666 OFFCURVE",
"373 666 CURVE SMOOTH",
"471 666 OFFCURVE",
"591 625 OFFCURVE",
"591 511 CURVE SMOOTH",
"591 428 OFFCURVE",
"532 376 OFFCURVE",
"455 376 CURVE SMOOTH",
"445 376 OFFCURVE",
"435 377 OFFCURVE",
"425 379 CURVE SMOOTH",
"389 385 OFFCURVE",
"359 424 OFFCURVE",
"359 460 CURVE SMOOTH",
"359 466 OFFCURVE",
"360 473 OFFCURVE",
"362 479 CURVE SMOOTH",
"367 494 OFFCURVE",
"371 501 OFFCURVE",
"385 512 CURVE SMOOTH",
"391 516 OFFCURVE",
"394 522 OFFCURVE",
"394 528 CURVE SMOOTH",
"394 539 OFFCURVE",
"384 549 OFFCURVE",
"371 549 CURVE SMOOTH",
"367 549 OFFCURVE",
"363 548 OFFCURVE",
"359 546 CURVE SMOOTH",
"348 541 OFFCURVE",
"332 520 OFFCURVE",
"326 511 CURVE SMOOTH",
"317 495 OFFCURVE",
"313 478 OFFCURVE",
"313 461 CURVE SMOOTH",
"313 402 OFFCURVE",
"360 344 OFFCURVE",
"418 334 CURVE SMOOTH",
"430 332 OFFCURVE",
"443 331 OFFCURVE",
"455 331 CURVE SMOOTH",
"555 331 OFFCURVE",
"638 403 OFFCURVE",
"638 511 CURVE SMOOTH",
"638 655 OFFCURVE",
"494 710 OFFCURVE",
"376 710 CURVE SMOOTH",
"171 710 OFFCURVE",
"35 523 OFFCURVE",
"35 330 CURVE SMOOTH",
"35 131 OFFCURVE",
"148 -15 OFFCURVE",
"355 -15 CURVE SMOOTH"
);
}
);
};
layerId = "2ADFC918-CAA7-4AF7-825A-5AAC412EF250";
paths = (
{
closed = 1;
nodes = (
"452 -18 OFFCURVE",
"560 25 OFFCURVE",
"616 107 CURVE SMOOTH",
"632 130 OFFCURVE",
"645 157 OFFCURVE",
"645 186 CURVE SMOOTH",
"645 196 OFFCURVE",
"638 209 OFFCURVE",
"624 209 CURVE SMOOTH",
"609 209 OFFCURVE",
"603 200 OFFCURVE",
"599 188 CURVE SMOOTH",
"595 177 OFFCURVE",
"594 164 OFFCURVE",
"587 152 CURVE SMOOTH",
"546 81 OFFCURVE",
"450 34 OFFCURVE",
"355 34 CURVE SMOOTH",
"173 34 OFFCURVE",
"84 157 OFFCURVE",
"84 334 CURVE SMOOTH",
"84 499 OFFCURVE",
"202 664 OFFCURVE",
"373 664 CURVE SMOOTH",
"492 664 OFFCURVE",
"589 606 OFFCURVE",
"589 511 CURVE SMOOTH",
"589 429 OFFCURVE",
"531 378 OFFCURVE",
"455 378 CURVE SMOOTH",
"397 378 OFFCURVE",
"359 405 OFFCURVE",
"359 460 CURVE SMOOTH",
"359 481 OFFCURVE",
"368 499 OFFCURVE",
"385 512 CURVE SMOOTH",
"391 516 OFFCURVE",
"394 522 OFFCURVE",
"394 528 CURVE SMOOTH",
"394 539 OFFCURVE",
"384 549 OFFCURVE",
"371 549 CURVE SMOOTH",
"343 549 OFFCURVE",
"313 509 OFFCURVE",
"313 450 CURVE SMOOTH",
"313 382 OFFCURVE",
"369 329 OFFCURVE",
"455 329 CURVE SMOOTH",
"557 329 OFFCURVE",
"641 402 OFFCURVE",
"641 511 CURVE SMOOTH",
"641 645 OFFCURVE",
"515 712 OFFCURVE",
"376 712 CURVE SMOOTH",
"168 712 OFFCURVE",
"32 532 OFFCURVE",
"32 330 CURVE SMOOTH",
"32 111 OFFCURVE",
"142 -18 OFFCURVE",
"355 -18 CURVE SMOOTH"
);
}
);
width = 696;
}
);
leftKerningGroup = C;
note = C;
rightKerningGroup = C;
unicode = 0043;
},
{
glyphname = D;
lastChange = "2021-11-12 19:44:43 +0000";
layers = (
{
anchors = (
{
name = bottom;
position = "{408, -45}";
},
{
name = center;
position = "{377, 350}";
},
{
name = top;
position = "{575, 705}";
}
);
background = {
anchors = (
{
name = bottom;
position = "{450, -80}";
},
{
name = center;
position = "{450, 353}";
},
{
name = top;
position = "{450, 752}";
}
);
paths = (
{
closed = 1;
nodes = (
"328 -114 OFFCURVE",
"344 -85 OFFCURVE",
"353 -54 CURVE",
"396 -54 LINE SMOOTH",
"638 -54 OFFCURVE",
"838 68 OFFCURVE",
"838 331 CURVE SMOOTH",
"838 583 OFFCURVE",
"632 719 OFFCURVE",
"400 719 CURVE SMOOTH",
"273 719 OFFCURVE",
"67 663 OFFCURVE",
"67 499 CURVE SMOOTH",
"67 430 OFFCURVE",
"116 386 OFFCURVE",
"171 386 CURVE SMOOTH",
"195 386 OFFCURVE",
"220 394 OFFCURVE",
"243 412 CURVE SMOOTH",
"249 416 OFFCURVE",
"267 433 OFFCURVE",
"270 440 CURVE SMOOTH",
"272 445 OFFCURVE",
"274 451 OFFCURVE",
"274 456 CURVE SMOOTH",
"274 468 OFFCURVE",
"267 478 OFFCURVE",
"255 478 CURVE SMOOTH",
"250 478 OFFCURVE",
"243 475 OFFCURVE",
"235 470 CURVE SMOOTH",
"231 468 OFFCURVE",
"218 461 OFFCURVE",
"218 454 CURVE SMOOTH",
"218 453 LINE SMOOTH",
"218 452 OFFCURVE",
"217 453 OFFCURVE",
"206 446 CURVE SMOOTH",
"192 438 OFFCURVE",
"180 434 OFFCURVE",
"169 434 CURVE SMOOTH",
"139 434 OFFCURVE",
"120 462 OFFCURVE",
"116 502 CURVE SMOOTH",
"113 524 OFFCURVE",
"122 546 OFFCURVE",
"134 565 CURVE SMOOTH",
"185 641 OFFCURVE",
"311 670 OFFCURVE",
"400 670 CURVE SMOOTH",
"610 670 OFFCURVE",
"789 556 OFFCURVE",
"789 331 CURVE SMOOTH",
"789 93 OFFCURVE",
"618 -6 OFFCURVE",
"396 -6 CURVE SMOOTH",
"385 -6 OFFCURVE",
"374 -4 OFFCURVE",
"363 -3 CURVE",
"364 -1 OFFCURVE",
"364 0 OFFCURVE",
"364 1 CURVE SMOOTH",
"376 49 OFFCURVE",
"379 98 OFFCURVE",
"379 147 CURVE SMOOTH",
"379 187 OFFCURVE",
"377 228 OFFCURVE",
"377 268 CURVE SMOOTH",
"377 330 OFFCURVE",
"378 425 OFFCURVE",
"389 484 CURVE SMOOTH",
"390 490 OFFCURVE",
"399 549 OFFCURVE",
"409 549 CURVE SMOOTH",
"422 549 OFFCURVE",
"428 559 OFFCURVE",
"428 570 CURVE SMOOTH",
"428 582 OFFCURVE",
"420 596 OFFCURVE",
"403 596 CURVE SMOOTH",
"401 596 OFFCURVE",
"398 596 OFFCURVE",
"395 595 CURVE SMOOTH",
"363 587 OFFCURVE",
"353 551 OFFCURVE",
"346 520 CURVE SMOOTH",
"329 437 OFFCURVE",
"328 352 OFFCURVE",
"328 268 CURVE SMOOTH",
"328 181 OFFCURVE",
"324 95 OFFCURVE",
"315 9 CURVE",
"315 1 LINE",
"236 12 OFFCURVE",
"146 44 OFFCURVE",
"105 114 CURVE SMOOTH",
"93 134 OFFCURVE",
"86 157 OFFCURVE",
"86 180 CURVE SMOOTH",
"86 208 OFFCURVE",
"99 243 OFFCURVE",
"121 261 CURVE SMOOTH",
"132 270 OFFCURVE",
"146 273 OFFCURVE",
"161 273 CURVE SMOOTH",
"196 273 OFFCURVE",
"234 251 OFFCURVE",
"236 218 CURVE SMOOTH",
"236 210 OFFCURVE",
"236 208 OFFCURVE",
"235 206 CURVE SMOOTH",
"232 201 OFFCURVE",
"230 196 OFFCURVE",
"229 189 CURVE SMOOTH",
"225 168 OFFCURVE",
"237 157 OFFCURVE",
"250 157 CURVE SMOOTH",
"259 157 OFFCURVE",
"268 162 OFFCURVE",
"274 171 CURVE",
"278 180 OFFCURVE",
"282 200 OFFCURVE",
"283 208 CURVE SMOOTH",
"289 278 OFFCURVE",
"225 323 OFFCURVE",
"162 323 CURVE SMOOTH",
"136 323 OFFCURVE",
"110 315 OFFCURVE",
"89 298 CURVE SMOOTH",
"68 281 OFFCURVE",
"52 256 OFFCURVE",
"43 230 CURVE SMOOTH",
"37 213 OFFCURVE",
"35 197 OFFCURVE",
"35 181 CURVE SMOOTH",
"35 110 OFFCURVE",
"84 45 OFFCURVE",
"143 8 CURVE SMOOTH",
"191 -23 OFFCURVE",
"247 -40 OFFCURVE",
"303 -48 CURVE",
"301 -53 OFFCURVE",
"294 -67 OFFCURVE",
"289 -70 CURVE SMOOTH",
"285 -72 OFFCURVE",
"268 -75 OFFCURVE",
"259 -81 CURVE SMOOTH",
"254 -85 OFFCURVE",
"252 -90 OFFCURVE",
"252 -96 CURVE SMOOTH",
"252 -110 OFFCURVE",
"265 -125 OFFCURVE",
"286 -120 CURVE"
);
}
);
};
layerId = "2ADFC918-CAA7-4AF7-825A-5AAC412EF250";
paths = (
{
closed = 1;
nodes = (
"280 -101 OFFCURVE",
"283 -101 OFFCURVE",
"286 -100 CURVE",
"328 -94 OFFCURVE",
"344 -65 OFFCURVE",
"353 -34 CURVE",
"396 -34 LINE SMOOTH",
"638 -34 OFFCURVE",
"838 88 OFFCURVE",
"838 351 CURVE SMOOTH",
"838 603 OFFCURVE",
"632 739 OFFCURVE",
"400 739 CURVE SMOOTH",
"273 739 OFFCURVE",
"67 683 OFFCURVE",
"67 519 CURVE SMOOTH",
"67 450 OFFCURVE",
"116 406 OFFCURVE",
"171 406 CURVE SMOOTH",
"195 406 OFFCURVE",
"220 414 OFFCURVE",
"243 432 CURVE SMOOTH",
"249 436 OFFCURVE",
"267 453 OFFCURVE",
"270 460 CURVE SMOOTH",
"272 465 OFFCURVE",
"274 471 OFFCURVE",
"274 476 CURVE SMOOTH",
"274 488 OFFCURVE",
"267 498 OFFCURVE",
"255 498 CURVE SMOOTH",
"250 498 OFFCURVE",
"243 495 OFFCURVE",
"235 490 CURVE SMOOTH",
"231 488 OFFCURVE",
"218 481 OFFCURVE",
"218 474 CURVE SMOOTH",
"218 473 LINE SMOOTH",
"218 472 OFFCURVE",
"217 473 OFFCURVE",
"206 466 CURVE SMOOTH",
"192 458 OFFCURVE",
"180 454 OFFCURVE",
"169 454 CURVE SMOOTH",
"137 454 OFFCURVE",
"115 486 OFFCURVE",
"115 531 CURVE SMOOTH",
"115 550 OFFCURVE",
"124 568 OFFCURVE",
"134 585 CURVE SMOOTH",
"185 661 OFFCURVE",
"311 690 OFFCURVE",
"400 690 CURVE SMOOTH",
"610 690 OFFCURVE",
"789 576 OFFCURVE",
"789 351 CURVE SMOOTH",
"789 113 OFFCURVE",
"618 14 OFFCURVE",
"396 14 CURVE SMOOTH",
"385 14 OFFCURVE",
"374 16 OFFCURVE",
"363 17 CURVE",
"364 19 OFFCURVE",
"364 20 OFFCURVE",
"364 21 CURVE SMOOTH",
"376 69 OFFCURVE",
"379 118 OFFCURVE",
"379 167 CURVE SMOOTH",
"379 207 OFFCURVE",
"377 248 OFFCURVE",
"377 288 CURVE SMOOTH",
"377 350 OFFCURVE",
"378 445 OFFCURVE",
"389 504 CURVE SMOOTH",
"390 510 OFFCURVE",
"399 569 OFFCURVE",
"409 569 CURVE SMOOTH",
"422 569 OFFCURVE",
"428 579 OFFCURVE",
"428 590 CURVE SMOOTH",
"428 602 OFFCURVE",
"420 616 OFFCURVE",
"403 616 CURVE SMOOTH",
"401 616 OFFCURVE",
"398 616 OFFCURVE",
"395 615 CURVE SMOOTH",
"363 607 OFFCURVE",
"353 571 OFFCURVE",
"346 540 CURVE SMOOTH",
"329 457 OFFCURVE",
"328 372 OFFCURVE",
"328 288 CURVE SMOOTH",
"328 201 OFFCURVE",
"324 115 OFFCURVE",
"315 29 CURVE",
"315 21 LINE",
"236 32 OFFCURVE",
"146 64 OFFCURVE",
"105 134 CURVE SMOOTH",
"93 154 OFFCURVE",
"86 177 OFFCURVE",
"86 200 CURVE SMOOTH",
"86 228 OFFCURVE",
"99 263 OFFCURVE",
"121 281 CURVE SMOOTH",
"132 290 OFFCURVE",
"146 293 OFFCURVE",
"161 293 CURVE SMOOTH",
"196 293 OFFCURVE",
"234 271 OFFCURVE",
"236 238 CURVE SMOOTH",
"236 230 OFFCURVE",
"236 228 OFFCURVE",
"235 226 CURVE SMOOTH",
"232 221 OFFCURVE",
"230 216 OFFCURVE",
"229 209 CURVE SMOOTH",
"225 188 OFFCURVE",
"237 177 OFFCURVE",
"250 177 CURVE SMOOTH",
"259 177 OFFCURVE",
"268 182 OFFCURVE",
"274 191 CURVE",
"278 200 OFFCURVE",
"282 220 OFFCURVE",
"283 228 CURVE SMOOTH",
"289 298 OFFCURVE",
"225 343 OFFCURVE",
"162 343 CURVE SMOOTH",
"136 343 OFFCURVE",
"110 335 OFFCURVE",
"89 318 CURVE SMOOTH",
"68 301 OFFCURVE",
"52 276 OFFCURVE",
"43 250 CURVE SMOOTH",
"37 233 OFFCURVE",
"35 217 OFFCURVE",
"35 201 CURVE SMOOTH",
"35 130 OFFCURVE",
"84 65 OFFCURVE",
"143 28 CURVE SMOOTH",
"191 -3 OFFCURVE",
"247 -20 OFFCURVE",
"303 -28 CURVE",
"301 -33 OFFCURVE",
"294 -47 OFFCURVE",
"289 -50 CURVE SMOOTH",
"285 -52 OFFCURVE",
"268 -55 OFFCURVE",
"259 -61 CURVE SMOOTH",
"254 -65 OFFCURVE",
"252 -70 OFFCURVE",
"252 -76 CURVE SMOOTH",
"252 -88 OFFCURVE",
"262 -101 OFFCURVE",
"278 -101 CURVE SMOOTH"
);
}
);
width = 887;
}
);
note = D;
rightKerningGroup = O;
rightMetricsKey = O;
unicode = 0044;
},
{
glyphname = E;
lastChange = "2021-11-12 19:37:17 +0000";
layers = (
{
anchors = (
{
name = bottom;
position = "{311, -19}";
},
{
name = ogonek;
position = "{583, 41}";
},
{
name = top;
position = "{366, 749}";
},
{
name = topleft;
position = "{42, 705}";
}
);
background = {
anchors = (
{
name = bottom;
position = "{344, -37}";
},
{
name = ogonek;
position = "{340, -37}";
},
{
name = top;
position = "{368, 752}";
},
{
name = topleft;
position = "{42, 705}";
}
);
paths = (
{
closed = 1;
nodes = (
"448 -26 OFFCURVE",
"595 49 OFFCURVE",
"608 179 CURVE SMOOTH",
"609 188 OFFCURVE",
"609 197 OFFCURVE",
"609 206 CURVE SMOOTH",
"609 220 OFFCURVE",
"608 233 OFFCURVE",
"604 248 CURVE SMOOTH",
"593 288 OFFCURVE",
"560 325 OFFCURVE",
"513 325 CURVE SMOOTH",
"505 325 OFFCURVE",
"479 321 OFFCURVE",
"471 312 CURVE SMOOTH",
"461 301 OFFCURVE",
"457 293 OFFCURVE",
"457 287 CURVE SMOOTH",
"457 275 OFFCURVE",
"474 272 OFFCURVE",
"490 272 CURVE SMOOTH",
"505 272 OFFCURVE",
"518 274 OFFCURVE",
"515 274 CURVE SMOOTH",
"562 274 OFFCURVE",
"560 216 OFFCURVE",
"559 182 CURVE SMOOTH",
"558 161 OFFCURVE",
"549 140 OFFCURVE",
"538 122 CURVE SMOOTH",
"492 51 OFFCURVE",
"392 23 OFFCURVE",
"311 23 CURVE SMOOTH",
"194 23 OFFCURVE",
"80 79 OFFCURVE",
"80 209 CURVE SMOOTH",
"80 289 OFFCURVE",
"143 354 OFFCURVE",
"216 390 CURVE",
"256 364 OFFCURVE",
"301 350 OFFCURVE",
"347 350 CURVE SMOOTH",
"420 350 OFFCURVE",
"457 375 OFFCURVE",
"457 409 CURVE SMOOTH",
"457 440 OFFCURVE",
"427 461 OFFCURVE",
"362 468 CURVE SMOOTH",
"317 472 OFFCURVE",
"265 461 OFFCURVE",
"223 446 CURVE",
"192 473 OFFCURVE",
"171 508 OFFCURVE",
"171 545 CURVE SMOOTH",
"171 662 OFFCURVE",
"267 707 OFFCURVE",
"373 707 CURVE SMOOTH",
"425 707 OFFCURVE",
"488 681 OFFCURVE",
"488 622 CURVE SMOOTH",
"488 611 OFFCURVE",
"484 598 OFFCURVE",
"478 589 CURVE SMOOTH",
"473 582 OFFCURVE",
"463 579 OFFCURVE",
"453 579 CURVE SMOOTH",
"438 579 OFFCURVE",
"423 586 OFFCURVE",
"421 594 CURVE",
"421 597 OFFCURVE",
"424 604 OFFCURVE",
"424 608 CURVE SMOOTH",
"425 630 OFFCURVE",
"415 639 OFFCURVE",
"404 639 CURVE SMOOTH",
"391 639 OFFCURVE",
"375 625 OFFCURVE",
"375 607 CURVE SMOOTH",
"375 562 OFFCURVE",
"416 527 OFFCURVE",
"458 527 CURVE SMOOTH",
"480 527 OFFCURVE",
"503 538 OFFCURVE",
"520 562 CURVE SMOOTH",
"533 580 OFFCURVE",
"539 603 OFFCURVE",
"539 625 CURVE SMOOTH",
"537 711 OFFCURVE",
"446 756 OFFCURVE",
"373 756 CURVE SMOOTH",
"244 756 OFFCURVE",
"121 691 OFFCURVE",
"121 544 CURVE SMOOTH",
"121 497 OFFCURVE",
"142 456 OFFCURVE",
"173 423 CURVE",
"94 379 OFFCURVE",
"33 305 OFFCURVE",
"33 208 CURVE SMOOTH",
"33 46 OFFCURVE",
"167 -26 OFFCURVE",
"306 -26 CURVE SMOOTH"
);
},
{
closed = 1;
nodes = (
"323 389 OFFCURVE",
"273 401 OFFCURVE",
"261 416 CURVE",
"273 425 OFFCURVE",
"316 435 OFFCURVE",
"352 435 CURVE SMOOTH",
"381 435 OFFCURVE",
"406 429 OFFCURVE",
"406 410 CURVE SMOOTH",
"406 395 OFFCURVE",
"387 389 OFFCURVE",
"361 389 CURVE SMOOTH"
);
}
);
};
layerId = "2ADFC918-CAA7-4AF7-825A-5AAC412EF250";
paths = (
{
closed = 1;
nodes = (
"457 -26 OFFCURVE",
"609 54 OFFCURVE",
"609 206 CURVE SMOOTH",
"609 272 OFFCURVE",
"571 325 OFFCURVE",
"508 325 CURVE SMOOTH",
"480 325 OFFCURVE",
"461 309 OFFCURVE",
"461 293 CURVE SMOOTH",
"461 277 OFFCURVE",
"471 270 OFFCURVE",
"487 270 CURVE SMOOTH",
"500 270 OFFCURVE",
"507 274 OFFCURVE",
"515 274 CURVE SMOOTH",
"562 274 OFFCURVE",
"560 216 OFFCURVE",
"559 182 CURVE SMOOTH",
"554 83 OFFCURVE",
"426 25 OFFCURVE",
"311 25 CURVE SMOOTH",
"195 25 OFFCURVE",
"82 80 OFFCURVE",
"82 198 CURVE SMOOTH",
"82 289 OFFCURVE",
"144 354 OFFCURVE",
"216 390 CURVE",
"256 362 OFFCURVE",
"301 347 OFFCURVE",
"347 347 CURVE SMOOTH",
"420 347 OFFCURVE",
"457 373 OFFCURVE",
"457 409 CURVE SMOOTH",
"457 444 OFFCURVE",
"418 472 OFFCURVE",
"349 472 CURVE SMOOTH",
"304 472 OFFCURVE",
"265 464 OFFCURVE",
"223 446 CURVE",
"192 473 OFFCURVE",
"171 508 OFFCURVE",
"171 556 CURVE SMOOTH",
"171 652 OFFCURVE",
"246 707 OFFCURVE",
"352 707 CURVE SMOOTH",
"425 707 OFFCURVE",
"488 681 OFFCURVE",
"488 622 CURVE SMOOTH",
"488 599 OFFCURVE",
"480 575 OFFCURVE",
"453 575 CURVE SMOOTH",
"438 575 OFFCURVE",
"423 584 OFFCURVE",
"421 594 CURVE",
"421 597 OFFCURVE",
"424 604 OFFCURVE",
"424 617 CURVE SMOOTH",
"425 630 OFFCURVE",
"415 639 OFFCURVE",
"402 639 CURVE SMOOTH",
"386 639 OFFCURVE",
"375 624 OFFCURVE",
"375 607 CURVE SMOOTH",
"375 550 OFFCURVE",
"413 527 OFFCURVE",
"458 527 CURVE SMOOTH",
"503 527 OFFCURVE",
"539 572 OFFCURVE",
"539 625 CURVE SMOOTH",
"537 711 OFFCURVE",
"446 756 OFFCURVE",
"343 756 CURVE SMOOTH",
"212 756 OFFCURVE",
"120 675 OFFCURVE",
"120 556 CURVE SMOOTH",
"120 497 OFFCURVE",
"141 456 OFFCURVE",
"173 423 CURVE",
"92 379 OFFCURVE",
"30 305 OFFCURVE",
"30 196 CURVE SMOOTH",
"30 60 OFFCURVE",
"134 -26 OFFCURVE",
"306 -26 CURVE SMOOTH"
);
},
{
closed = 1;
nodes = (
"323 389 OFFCURVE",
"273 401 OFFCURVE",
"261 416 CURVE",
"273 425 OFFCURVE",
"316 435 OFFCURVE",
"352 435 CURVE SMOOTH",
"380 435 OFFCURVE",
"405 429 OFFCURVE",
"405 410 CURVE SMOOTH",
"405 395 OFFCURVE",
"386 389 OFFCURVE",
"361 389 CURVE SMOOTH"
);
}
);
width = 641;
}
);
note = E;
unicode = 0045;
},
{
glyphname = F;
lastChange = "2021-11-12 19:43:14 +0000";
layers = (
{
background = {
paths = (
{
closed = 1;
nodes = (
"510 -66 OFFCURVE",
"598 61 OFFCURVE",
"626 247 CURVE SMOOTH",
"633 291 OFFCURVE",
"635 336 OFFCURVE",
"637 380 CURVE",
"767 380 LINE SMOOTH",
"783 380 OFFCURVE",
"790 392 OFFCURVE",
"790 405 CURVE SMOOTH",
"790 417 OFFCURVE",
"783 429 OFFCURVE",
"767 429 CURVE SMOOTH",
"640 429 LINE",
"642 481 OFFCURVE",
"646 562 OFFCURVE",
"679 596 CURVE",
"697 590 LINE SMOOTH",
"711 586 OFFCURVE",
"725 584 OFFCURVE",
"738 584 CURVE SMOOTH",
"761 584 OFFCURVE",
"781 592 OFFCURVE",
"789 615 CURVE",
"795 645 OFFCURVE",
"761 662 OFFCURVE",
"723 662 CURVE SMOOTH",
"705 662 OFFCURVE",
"686 658 OFFCURVE",
"671 650 CURVE",
"554 683 OFFCURVE",
"436 725 OFFCURVE",
"313 725 CURVE SMOOTH",
"175 725 OFFCURVE",
"107 627 OFFCURVE",
"107 540 CURVE SMOOTH",
"107 482 OFFCURVE",
"137 428 OFFCURVE",
"195 411 CURVE SMOOTH",
"203 409 OFFCURVE",
"212 408 OFFCURVE",
"220 408 CURVE SMOOTH",
"257 408 OFFCURVE",
"291 426 OFFCURVE",
"291 458 CURVE SMOOTH",
"291 480 OFFCURVE",
"279 489 OFFCURVE",
"268 489 CURVE SMOOTH",
"255 489 OFFCURVE",
"243 479 OFFCURVE",
"243 465 CURVE",
"241 460 OFFCURVE",
"232 458 OFFCURVE",
"222 458 CURVE SMOOTH",
"213 458 OFFCURVE",
"204 459 OFFCURVE",
"198 460 CURVE",
"171 470 OFFCURVE",
"156 501 OFFCURVE",
"156 537 CURVE SMOOTH",
"156 600 OFFCURVE",
"202 676 OFFCURVE",
"312 676 CURVE SMOOTH",
"420 676 OFFCURVE",
"525 642 OFFCURVE",
"628 610 CURVE",
"596 561 OFFCURVE",
"593 486 OFFCURVE",
"590 429 CURVE",
"456 429 LINE SMOOTH",
"440 429 OFFCURVE",
"432 417 OFFCURVE",
"432 405 CURVE SMOOTH",
"432 392 OFFCURVE",
"440 380 OFFCURVE",
"456 380 CURVE SMOOTH",
"588 380 LINE",
"576 184 OFFCURVE",
"544 -22 OFFCURVE",
"305 -33 CURVE SMOOTH",
"277 -34 OFFCURVE",
"246 -29 OFFCURVE",
"220 -21 CURVE SMOOTH",
"129 9 OFFCURVE",
"86 83 OFFCURVE",
"91 177 CURVE SMOOTH",
"96 261 OFFCURVE",
"171 318 OFFCURVE",
"235 318 CURVE SMOOTH",
"271 318 OFFCURVE",
"304 299 OFFCURVE",
"317 256 CURVE SMOOTH",
"329 215 OFFCURVE",
"327 200 OFFCURVE",
"354 200 CURVE SMOOTH",
"363 200 OFFCURVE",
"373 209 OFFCURVE",
"373 230 CURVE SMOOTH",
"373 240 OFFCURVE",
"371 252 OFFCURVE",
"365 267 CURVE SMOOTH",
"339 337 OFFCURVE",
"288 366 OFFCURVE",
"235 366 CURVE SMOOTH",
"145 366 OFFCURVE",
"48 286 OFFCURVE",
"42 180 CURVE SMOOTH",
"35 62 OFFCURVE",
"93 -32 OFFCURVE",
"207 -68 CURVE SMOOTH",
"239 -78 OFFCURVE",
"275 -83 OFFCURVE",
"308 -81 CURVE SMOOTH"
);
}
);
};
layerId = "2ADFC918-CAA7-4AF7-825A-5AAC412EF250";
paths = (
{
closed = 1;
nodes = (
"510 -46 OFFCURVE",
"598 81 OFFCURVE",
"626 267 CURVE SMOOTH",
"633 311 OFFCURVE",
"635 356 OFFCURVE",
"637 400 CURVE",
"767 400 LINE SMOOTH",
"783 400 OFFCURVE",
"790 412 OFFCURVE",
"790 425 CURVE SMOOTH",
"790 437 OFFCURVE",
"783 449 OFFCURVE",
"767 449 CURVE SMOOTH",
"640 449 LINE",
"642 501 OFFCURVE",
"646 582 OFFCURVE",
"679 616 CURVE",
"697 610 LINE SMOOTH",
"711 606 OFFCURVE",
"725 604 OFFCURVE",
"738 604 CURVE SMOOTH",
"761 604 OFFCURVE",
"781 612 OFFCURVE",
"789 635 CURVE",
"795 665 OFFCURVE",
"761 682 OFFCURVE",
"723 682 CURVE SMOOTH",
"705 682 OFFCURVE",
"686 678 OFFCURVE",
"671 670 CURVE",
"554 703 OFFCURVE",
"436 745 OFFCURVE",
"313 745 CURVE SMOOTH",
"175 745 OFFCURVE",
"107 647 OFFCURVE",
"107 560 CURVE SMOOTH",
"107 502 OFFCURVE",
"137 448 OFFCURVE",
"195 431 CURVE SMOOTH",
"203 429 OFFCURVE",
"212 428 OFFCURVE",
"220 428 CURVE SMOOTH",
"257 428 OFFCURVE",
"291 446 OFFCURVE",
"291 478 CURVE SMOOTH",
"291 500 OFFCURVE",
"279 509 OFFCURVE",
"268 509 CURVE SMOOTH",
"255 509 OFFCURVE",
"243 499 OFFCURVE",
"243 485 CURVE",
"241 480 OFFCURVE",
"232 478 OFFCURVE",
"222 478 CURVE SMOOTH",
"213 478 OFFCURVE",
"204 479 OFFCURVE",
"198 480 CURVE",
"171 490 OFFCURVE",
"156 521 OFFCURVE",
"156 557 CURVE SMOOTH",
"156 620 OFFCURVE",
"202 696 OFFCURVE",
"312 696 CURVE SMOOTH",
"420 696 OFFCURVE",
"525 662 OFFCURVE",
"628 630 CURVE",
"596 581 OFFCURVE",
"593 506 OFFCURVE",
"590 449 CURVE",
"456 449 LINE SMOOTH",
"440 449 OFFCURVE",
"432 437 OFFCURVE",
"432 425 CURVE SMOOTH",
"432 412 OFFCURVE",
"440 400 OFFCURVE",
"456 400 CURVE SMOOTH",
"588 400 LINE",
"576 204 OFFCURVE",
"544 -2 OFFCURVE",
"305 -13 CURVE SMOOTH",
"277 -14 OFFCURVE",
"246 -9 OFFCURVE",
"220 -1 CURVE SMOOTH",
"129 29 OFFCURVE",
"86 103 OFFCURVE",
"91 197 CURVE SMOOTH",
"96 281 OFFCURVE",
"171 338 OFFCURVE",
"235 338 CURVE SMOOTH",
"271 338 OFFCURVE",
"304 319 OFFCURVE",
"317 276 CURVE SMOOTH",
"329 235 OFFCURVE",
"327 220 OFFCURVE",
"354 220 CURVE SMOOTH",
"363 220 OFFCURVE",
"373 229 OFFCURVE",
"373 250 CURVE SMOOTH",
"373 260 OFFCURVE",
"371 272 OFFCURVE",
"365 287 CURVE SMOOTH",
"339 357 OFFCURVE",
"288 386 OFFCURVE",
"235 386 CURVE SMOOTH",
"145 386 OFFCURVE",
"48 306 OFFCURVE",
"42 200 CURVE SMOOTH",
"35 82 OFFCURVE",
"93 -12 OFFCURVE",
"207 -48 CURVE SMOOTH",
"239 -58 OFFCURVE",
"275 -63 OFFCURVE",
"308 -61 CURVE SMOOTH"
);
}
);
width = 786;
}
);
note = F;
unicode = 0046;
},
{
glyphname = G;
lastChange = "2021-11-12 16:09:14 +0000";
layers = (
{
anchors = (
{
name = bottom;
position = "{403, -194}";
},
{
name = top;
position = "{468, 720}";
}
);
background = {
anchors = (
{
name = bottom;
position = "{384, 0}";
},
{
name = top;
position = "{454, 752}";
}
);
paths = (
{
closed = 1;
nodes = (
"494 -209 OFFCURVE",
"567 -145 OFFCURVE",
"610 -64 CURVE",
"625 -66 OFFCURVE",
"661 -75 OFFCURVE",
"674 -82 CURVE SMOOTH",
"676 -83 LINE SMOOTH",
"681 -86 OFFCURVE",
"687 -87 OFFCURVE",
"693 -87 CURVE SMOOTH",
"707 -87 OFFCURVE",
"719 -80 OFFCURVE",
"719 -68 CURVE SMOOTH",
"719 -62 OFFCURVE",
"716 -54 OFFCURVE",
"708 -45 CURVE SMOOTH",
"705 -42 OFFCURVE",
"683 -33 OFFCURVE",
"681 -32 CURVE SMOOTH",
"664 -26 OFFCURVE",
"647 -21 OFFCURVE",
"629 -18 CURVE",
"645 27 OFFCURVE",
"650 73 OFFCURVE",
"651 120 CURVE",
"677 145 OFFCURVE",
"698 174 OFFCURVE",
"710 204 CURVE SMOOTH",
"718 226 OFFCURVE",
"729 262 OFFCURVE",
"729 295 CURVE SMOOTH",
"729 333 OFFCURVE",
"715 366 OFFCURVE",
"669 366 CURVE SMOOTH",
"619 366 OFFCURVE",
"600 324 OFFCURVE",
"595 280 CURVE SMOOTH",
"593 268 OFFCURVE",
"593 255 OFFCURVE",
"593 242 CURVE SMOOTH",
"593 207 OFFCURVE",
"598 171 OFFCURVE",
"600 135 CURVE",
"541 90 OFFCURVE",
"455 53 OFFCURVE",
"379 53 CURVE SMOOTH",
"240 53 OFFCURVE",
"115 147 OFFCURVE",
"101 289 CURVE SMOOTH",
"100 300 OFFCURVE",
"99 310 OFFCURVE",
"99 321 CURVE SMOOTH",
"99 409 OFFCURVE",
"136 490 OFFCURVE",
"194 552 CURVE",
"255 489 OFFCURVE",
"364 453 OFFCURVE",
"436 444 CURVE SMOOTH",
"458 441 OFFCURVE",
"484 439 OFFCURVE",
"512 439 CURVE SMOOTH",
"575 439 OFFCURVE",
"646 451 OFFCURVE",
"687 491 CURVE SMOOTH",
"699 503 OFFCURVE",
"711 521 OFFCURVE",
"715 538 CURVE SMOOTH",
"716 544 OFFCURVE",
"717 550 OFFCURVE",
"717 557 CURVE SMOOTH",
"717 574 OFFCURVE",
"713 593 OFFCURVE",
"706 607 CURVE SMOOTH",
"668 690 OFFCURVE",
"545 709 OFFCURVE",
"457 709 CURVE SMOOTH",
"443 709 OFFCURVE",
"430 709 OFFCURVE",
"418 708 CURVE SMOOTH",
"337 703 OFFCURVE",
"262 672 OFFCURVE",
"202 625 CURVE",
"200 630 OFFCURVE",
"198 634 OFFCURVE",
"197 639 CURVE SMOOTH",
"195 647 OFFCURVE",
"194 652 OFFCURVE",
"194 657 CURVE SMOOTH",
"194 670 OFFCURVE",
"202 672 OFFCURVE",
"202 694 CURVE SMOOTH",
"202 713 OFFCURVE",
"193 719 OFFCURVE",
"182 719 CURVE SMOOTH",
"171 719 OFFCURVE",
"159 712 OFFCURVE",
"154 705 CURVE SMOOTH",
"149 697 OFFCURVE",
"147 680 OFFCURVE",
"147 664 CURVE SMOOTH",
"147 653 OFFCURVE",
"148 642 OFFCURVE",
"149 636 CURVE SMOOTH",
"152 620 OFFCURVE",
"157 605 OFFCURVE",
"165 592 CURVE",
"94 521 OFFCURVE",
"50 425 OFFCURVE",
"50 320 CURVE SMOOTH",
"50 309 OFFCURVE",
"51 297 OFFCURVE",
"52 285 CURVE SMOOTH",
"69 115 OFFCURVE",
"215 4 OFFCURVE",
"379 4 CURVE SMOOTH",
"458 4 OFFCURVE",
"535 34 OFFCURVE",
"599 78 CURVE",
"596 48 OFFCURVE",
"587 14 OFFCURVE",
"575 -14 CURVE",
"527 -14 OFFCURVE",
"479 -23 OFFCURVE",
"434 -33 CURVE SMOOTH",
"403 -40 OFFCURVE",
"377 -46 OFFCURVE",
"349 -63 CURVE SMOOTH",
"308 -88 OFFCURVE",
"292 -118 OFFCURVE",
"292 -146 CURVE SMOOTH",
"292 -189 OFFCURVE",
"332 -225 OFFCURVE",
"383 -225 CURVE SMOOTH",
"389 -225 OFFCURVE",
"395 -225 OFFCURVE",
"401 -224 CURVE SMOOTH"
);
},
{
closed = 1;
nodes = (
"367 -172 OFFCURVE",
"347 -161 OFFCURVE",
"347 -146 CURVE SMOOTH",
"347 -139 OFFCURVE",
"351 -132 OFFCURVE",
"359 -124 CURVE SMOOTH",
"381 -102 OFFCURVE",
"417 -89 OFFCURVE",
"447 -79 CURVE SMOOTH",
"478 -69 OFFCURVE",
"514 -63 OFFCURVE",
"550 -61 CURVE",
"531 -92 OFFCURVE",
"506 -120 OFFCURVE",
"476 -142 CURVE SMOOTH",
"452 -159 OFFCURVE",
"427 -172 OFFCURVE",
"398 -172 CURVE SMOOTH"
);
},
{
closed = 1;
nodes = (
"652 216 OFFCURVE",
"652 239 OFFCURVE",
"653 263 CURVE SMOOTH",
"653 267 OFFCURVE",
"653 285 OFFCURVE",
"657 301 CURVE SMOOTH",
"658 307 OFFCURVE",
"659 313 OFFCURVE",
"666 313 CURVE SMOOTH",
"668 313 OFFCURVE",
"672 312 OFFCURVE",
"676 310 CURVE",
"678 281 OFFCURVE",
"667 218 OFFCURVE",
"652 192 CURVE"
);
},
{
closed = 1;
nodes = (
"498 489 OFFCURVE",
"470 491 OFFCURVE",
"442 494 CURVE SMOOTH",
"386 501 OFFCURVE",
"286 536 OFFCURVE",
"232 586 CURVE",
"298 639 OFFCURVE",
"376 661 OFFCURVE",
"457 661 CURVE SMOOTH",
"475 661 OFFCURVE",
"493 660 OFFCURVE",
"511 658 CURVE SMOOTH",
"559 653 OFFCURVE",
"666 633 OFFCURVE",
"666 557 CURVE SMOOTH",
"666 553 OFFCURVE",
"666 548 OFFCURVE",
"665 543 CURVE SMOOTH",
"659 501 OFFCURVE",
"548 491 OFFCURVE",
"526 490 CURVE SMOOTH"
);
}
);
};
layerId = "2ADFC918-CAA7-4AF7-825A-5AAC412EF250";
paths = (
{
closed = 1;
nodes = (
"389 -205 OFFCURVE",
"395 -205 OFFCURVE",
"401 -204 CURVE SMOOTH",
"494 -189 OFFCURVE",
"567 -125 OFFCURVE",
"610 -44 CURVE",
"625 -46 OFFCURVE",
"661 -55 OFFCURVE",
"674 -62 CURVE SMOOTH",
"676 -63 LINE SMOOTH",
"681 -66 OFFCURVE",
"687 -67 OFFCURVE",
"693 -67 CURVE SMOOTH",
"707 -67 OFFCURVE",
"719 -60 OFFCURVE",
"719 -48 CURVE SMOOTH",
"719 -42 OFFCURVE",
"716 -34 OFFCURVE",
"708 -25 CURVE SMOOTH",
"705 -22 OFFCURVE",
"683 -13 OFFCURVE",
"681 -12 CURVE SMOOTH",
"664 -6 OFFCURVE",
"647 -1 OFFCURVE",
"629 2 CURVE",
"645 47 OFFCURVE",
"650 93 OFFCURVE",
"651 140 CURVE",
"677 165 OFFCURVE",
"698 194 OFFCURVE",
"710 224 CURVE SMOOTH",
"718 246 OFFCURVE",
"729 282 OFFCURVE",
"729 315 CURVE SMOOTH",
"729 353 OFFCURVE",
"715 386 OFFCURVE",
"669 386 CURVE SMOOTH",
"619 386 OFFCURVE",
"600 344 OFFCURVE",
"595 300 CURVE SMOOTH",
"593 288 OFFCURVE",
"593 275 OFFCURVE",
"593 262 CURVE SMOOTH",
"593 227 OFFCURVE",
"598 191 OFFCURVE",
"600 155 CURVE",
"541 110 OFFCURVE",
"455 73 OFFCURVE",
"379 73 CURVE SMOOTH",
"240 73 OFFCURVE",
"115 167 OFFCURVE",
"101 309 CURVE SMOOTH",
"100 320 OFFCURVE",
"99 330 OFFCURVE",
"99 341 CURVE SMOOTH",
"99 429 OFFCURVE",
"136 510 OFFCURVE",
"194 572 CURVE",
"255 509 OFFCURVE",
"364 473 OFFCURVE",
"436 464 CURVE SMOOTH",
"458 461 OFFCURVE",
"484 459 OFFCURVE",
"512 459 CURVE SMOOTH",
"575 459 OFFCURVE",
"646 471 OFFCURVE",
"687 511 CURVE SMOOTH",
"699 523 OFFCURVE",
"711 541 OFFCURVE",
"715 558 CURVE SMOOTH",
"716 564 OFFCURVE",
"717 570 OFFCURVE",
"717 577 CURVE SMOOTH",
"717 594 OFFCURVE",
"713 613 OFFCURVE",
"706 627 CURVE SMOOTH",
"668 710 OFFCURVE",
"545 729 OFFCURVE",
"457 729 CURVE SMOOTH",
"443 729 OFFCURVE",
"430 729 OFFCURVE",
"418 728 CURVE SMOOTH",
"337 723 OFFCURVE",
"262 692 OFFCURVE",
"202 645 CURVE",
"200 650 OFFCURVE",
"198 654 OFFCURVE",
"197 659 CURVE SMOOTH",
"195 667 OFFCURVE",
"194 672 OFFCURVE",
"194 677 CURVE SMOOTH",
"194 690 OFFCURVE",
"202 692 OFFCURVE",
"202 714 CURVE SMOOTH",
"202 733 OFFCURVE",
"193 739 OFFCURVE",
"182 739 CURVE SMOOTH",
"171 739 OFFCURVE",
"159 732 OFFCURVE",
"154 725 CURVE SMOOTH",
"149 717 OFFCURVE",
"147 700 OFFCURVE",
"147 684 CURVE SMOOTH",
"147 673 OFFCURVE",
"148 662 OFFCURVE",
"149 656 CURVE SMOOTH",
"152 640 OFFCURVE",
"157 625 OFFCURVE",
"165 612 CURVE",
"94 541 OFFCURVE",
"50 445 OFFCURVE",
"50 340 CURVE SMOOTH",
"50 329 OFFCURVE",
"51 317 OFFCURVE",
"52 305 CURVE SMOOTH",
"69 135 OFFCURVE",
"215 24 OFFCURVE",
"379 24 CURVE SMOOTH",
"458 24 OFFCURVE",
"535 54 OFFCURVE",
"599 98 CURVE",
"596 68 OFFCURVE",
"587 34 OFFCURVE",
"575 6 CURVE",
"527 6 OFFCURVE",
"479 -3 OFFCURVE",
"434 -13 CURVE SMOOTH",
"403 -20 OFFCURVE",
"377 -26 OFFCURVE",
"349 -43 CURVE SMOOTH",
"308 -68 OFFCURVE",
"292 -98 OFFCURVE",
"292 -126 CURVE SMOOTH",
"292 -169 OFFCURVE",
"332 -205 OFFCURVE",
"383 -205 CURVE SMOOTH"
);
},
{
closed = 1;
nodes = (
"367 -152 OFFCURVE",
"347 -141 OFFCURVE",
"347 -126 CURVE SMOOTH",
"347 -119 OFFCURVE",
"351 -112 OFFCURVE",
"359 -104 CURVE SMOOTH",
"381 -82 OFFCURVE",
"417 -69 OFFCURVE",
"447 -59 CURVE SMOOTH",
"478 -49 OFFCURVE",
"514 -43 OFFCURVE",
"550 -41 CURVE",
"531 -72 OFFCURVE",
"506 -100 OFFCURVE",
"476 -122 CURVE SMOOTH",
"452 -139 OFFCURVE",
"427 -152 OFFCURVE",
"398 -152 CURVE SMOOTH"
);
},
{
closed = 1;
nodes = (
"652 236 OFFCURVE",
"652 259 OFFCURVE",
"653 283 CURVE SMOOTH",
"653 287 OFFCURVE",
"653 305 OFFCURVE",
"657 321 CURVE SMOOTH",
"658 327 OFFCURVE",
"659 333 OFFCURVE",
"666 333 CURVE SMOOTH",
"668 333 OFFCURVE",
"672 332 OFFCURVE",
"676 330 CURVE",
"678 301 OFFCURVE",
"667 238 OFFCURVE",
"652 212 CURVE"
);
},
{
closed = 1;
nodes = (
"498 509 OFFCURVE",
"470 511 OFFCURVE",
"442 514 CURVE SMOOTH",
"386 521 OFFCURVE",
"286 556 OFFCURVE",
"232 606 CURVE",
"298 659 OFFCURVE",
"376 681 OFFCURVE",
"457 681 CURVE SMOOTH",
"475 681 OFFCURVE",
"493 680 OFFCURVE",
"511 678 CURVE SMOOTH",
"559 673 OFFCURVE",
"666 653 OFFCURVE",
"666 577 CURVE SMOOTH",
"666 573 OFFCURVE",
"666 568 OFFCURVE",
"665 563 CURVE SMOOTH",
"659 521 OFFCURVE",
"548 511 OFFCURVE",
"526 510 CURVE SMOOTH"
);
}
);
width = 782;
}
);
leftKerningGroup = O;
leftMetricsKey = O;
note = G;
rightKerningGroup = G;
unicode = 0047;
},
{
glyphname = H;
lastChange = "2021-11-12 16:05:06 +0000";
layers = (
{
anchors = (
{
name = bottom;
position = "{528, 0}";
},
{
name = center;
position = "{528, 353}";
},
{
name = top;
position = "{797, 705}";
},
{
name = topleft;
position = "{7, 705}";
}
);
background = {
paths = (
{
closed = 1;
nodes = (
"541 -104 OFFCURVE",
"621 115 OFFCURVE",
"631 320 CURVE",
"955 320 LINE",
"955 316 LINE SMOOTH",
"955 239 OFFCURVE",
"958 -10 OFFCURVE",
"1044 -47 CURVE SMOOTH",
"1050 -50 OFFCURVE",
"1064 -53 OFFCURVE",
"1075 -53 CURVE SMOOTH",
"1079 -53 OFFCURVE",
"1083 -53 OFFCURVE",
"1086 -52 CURVE SMOOTH",
"1099 -47 OFFCURVE",
"1105 -40 OFFCURVE",
"1105 -33 CURVE SMOOTH",
"1105 -20 OFFCURVE",
"1086 -7 OFFCURVE",
"1069 -6 CURVE",
"1066 -11 OFFCURVE",
"1065 -11 OFFCURVE",
"1062 -9 CURVE SMOOTH",
"1058 -5 OFFCURVE",
"1053 3 OFFCURVE",
"1049 13 CURVE SMOOTH",
"1011 96 OFFCURVE",
"1005 227 OFFCURVE",
"1005 316 CURVE SMOOTH",
"1005 380 OFFCURVE",
"1037 654 OFFCURVE",
"1092 675 CURVE",
"1094 675 OFFCURVE",
"1095 676 OFFCURVE",
"1095 677 CURVE",
"1096 677 LINE",
"1099 674 OFFCURVE",
"1102 674 OFFCURVE",
"1105 674 CURVE SMOOTH",
"1110 674 LINE SMOOTH",
"1129 674 OFFCURVE",
"1135 682 OFFCURVE",
"1135 691 CURVE SMOOTH",
"1135 703 OFFCURVE",
"1126 716 OFFCURVE",
"1118 722 CURVE",
"987 727 OFFCURVE",
"964 464 OFFCURVE",
"958 370 CURVE",
"633 370 LINE",
"632 469 OFFCURVE",
"623 636 OFFCURVE",
"522 691 CURVE SMOOTH",
"512 696 OFFCURVE",
"481 709 OFFCURVE",
"465 709 CURVE SMOOTH",
"453 709 OFFCURVE",
"435 697 OFFCURVE",
"435 682 CURVE SMOOTH",
"435 674 OFFCURVE",
"441 665 OFFCURVE",
"458 660 CURVE SMOOTH",
"467 657 OFFCURVE",
"472 657 OFFCURVE",
"477 657 CURVE SMOOTH",
"483 657 OFFCURVE",
"490 657 OFFCURVE",
"504 647 CURVE SMOOTH",
"568 605 OFFCURVE",
"584 464 OFFCURVE",
"584 373 CURVE SMOOTH",
"584 360 OFFCURVE",
"583 349 OFFCURVE",
"583 339 CURVE SMOOTH",
"573 153 OFFCURVE",
"514 -55 OFFCURVE",
"293 -55 CURVE SMOOTH",
"161 -55 OFFCURVE",
"74 26 OFFCURVE",
"74 148 CURVE SMOOTH",
"74 164 OFFCURVE",
"76 181 OFFCURVE",
"79 199 CURVE SMOOTH",
"92 270 OFFCURVE",
"178 324 OFFCURVE",
"252 324 CURVE SMOOTH",
"292 324 OFFCURVE",
"328 308 OFFCURVE",
"348 271 CURVE SMOOTH",
"356 257 OFFCURVE",
"360 241 OFFCURVE",
"360 225 CURVE SMOOTH",
"360 200 OFFCURVE",
"349 176 OFFCURVE",
"323 165 CURVE SMOOTH",
"313 160 OFFCURVE",
"309 159 OFFCURVE",
"307 159 CURVE SMOOTH",
"306 159 LINE SMOOTH",
"302 160 OFFCURVE",
"299 161 OFFCURVE",
"295 161 CURVE SMOOTH",
"289 161 OFFCURVE",
"283 159 OFFCURVE",
"277 158 CURVE SMOOTH",
"259 154 OFFCURVE",
"251 144 OFFCURVE",
"251 134 CURVE SMOOTH",
"251 121 OFFCURVE",
"265 108 OFFCURVE",
"285 108 CURVE SMOOTH",
"299 108 OFFCURVE",
"318 111 OFFCURVE",
"326 113 CURVE SMOOTH",
"380 128 OFFCURVE",
"409 178 OFFCURVE",
"409 229 CURVE SMOOTH",
"409 252 OFFCURVE",
"403 275 OFFCURVE",
"390 295 CURVE SMOOTH",
"355 350 OFFCURVE",
"302 374 OFFCURVE",
"246 374 CURVE SMOOTH",
"151 374 OFFCURVE",
"50 304 OFFCURVE",
"30 208 CURVE SMOOTH",
"26 187 OFFCURVE",
"24 166 OFFCURVE",
"24 146 CURVE SMOOTH",
"24 50 OFFCURVE",
"70 -31 OFFCURVE",
"165 -76 CURVE SMOOTH",
"205 -95 OFFCURVE",
"249 -104 OFFCURVE",
"293 -104 CURVE SMOOTH"
);
}
);
};
layerId = "2ADFC918-CAA7-4AF7-825A-5AAC412EF250";
paths = (
{
closed = 1;
nodes = (
"541 -84 OFFCURVE",
"621 135 OFFCURVE",
"631 340 CURVE",
"955 340 LINE",
"955 336 LINE SMOOTH",
"955 259 OFFCURVE",
"958 10 OFFCURVE",
"1044 -27 CURVE SMOOTH",
"1050 -30 OFFCURVE",
"1064 -33 OFFCURVE",
"1075 -33 CURVE SMOOTH",
"1079 -33 OFFCURVE",
"1083 -33 OFFCURVE",
"1086 -32 CURVE SMOOTH",
"1099 -27 OFFCURVE",
"1105 -20 OFFCURVE",
"1105 -13 CURVE SMOOTH",
"1105 0 OFFCURVE",
"1086 13 OFFCURVE",
"1069 14 CURVE",
"1066 9 OFFCURVE",
"1065 9 OFFCURVE",
"1062 11 CURVE SMOOTH",
"1058 15 OFFCURVE",
"1053 23 OFFCURVE",
"1049 33 CURVE SMOOTH",
"1011 116 OFFCURVE",
"1005 247 OFFCURVE",
"1005 336 CURVE SMOOTH",
"1005 400 OFFCURVE",
"1037 674 OFFCURVE",
"1092 695 CURVE",
"1094 695 OFFCURVE",
"1095 696 OFFCURVE",
"1095 697 CURVE",
"1096 697 LINE",
"1099 694 OFFCURVE",
"1102 694 OFFCURVE",
"1105 694 CURVE SMOOTH",
"1110 694 LINE SMOOTH",
"1129 694 OFFCURVE",
"1135 702 OFFCURVE",
"1135 711 CURVE SMOOTH",
"1135 723 OFFCURVE",
"1126 736 OFFCURVE",
"1118 742 CURVE",
"987 747 OFFCURVE",
"964 484 OFFCURVE",
"958 390 CURVE",
"633 390 LINE",
"632 489 OFFCURVE",
"623 656 OFFCURVE",
"522 711 CURVE SMOOTH",
"512 716 OFFCURVE",
"481 729 OFFCURVE",
"465 729 CURVE SMOOTH",
"453 729 OFFCURVE",
"435 717 OFFCURVE",
"435 702 CURVE SMOOTH",
"435 694 OFFCURVE",
"441 685 OFFCURVE",
"458 680 CURVE SMOOTH",
"467 677 OFFCURVE",
"472 677 OFFCURVE",
"477 677 CURVE SMOOTH",
"483 677 OFFCURVE",
"490 677 OFFCURVE",
"504 667 CURVE SMOOTH",
"568 625 OFFCURVE",
"584 484 OFFCURVE",
"584 393 CURVE SMOOTH",
"584 380 OFFCURVE",
"583 369 OFFCURVE",
"583 359 CURVE SMOOTH",
"573 173 OFFCURVE",
"514 -35 OFFCURVE",
"293 -35 CURVE SMOOTH",
"161 -35 OFFCURVE",
"74 46 OFFCURVE",
"74 168 CURVE SMOOTH",
"74 184 OFFCURVE",
"76 201 OFFCURVE",
"79 219 CURVE SMOOTH",
"92 290 OFFCURVE",
"178 344 OFFCURVE",
"252 344 CURVE SMOOTH",
"292 344 OFFCURVE",
"328 328 OFFCURVE",
"348 291 CURVE SMOOTH",
"356 277 OFFCURVE",
"360 261 OFFCURVE",
"360 245 CURVE SMOOTH",
"360 220 OFFCURVE",
"349 196 OFFCURVE",
"323 185 CURVE SMOOTH",
"313 180 OFFCURVE",
"309 179 OFFCURVE",
"307 179 CURVE SMOOTH",
"306 179 LINE SMOOTH",
"302 179 OFFCURVE",
"299 181 OFFCURVE",
"295 181 CURVE SMOOTH",
"289 181 OFFCURVE",
"283 179 OFFCURVE",
"277 178 CURVE SMOOTH",
"259 174 OFFCURVE",
"251 164 OFFCURVE",
"251 154 CURVE SMOOTH",
"251 141 OFFCURVE",
"265 128 OFFCURVE",
"285 128 CURVE SMOOTH",
"299 128 OFFCURVE",
"318 131 OFFCURVE",
"326 133 CURVE SMOOTH",
"380 148 OFFCURVE",
"409 198 OFFCURVE",
"409 249 CURVE SMOOTH",
"409 272 OFFCURVE",
"403 295 OFFCURVE",
"390 315 CURVE SMOOTH",
"355 370 OFFCURVE",
"302 394 OFFCURVE",
"246 394 CURVE SMOOTH",
"151 394 OFFCURVE",
"50 324 OFFCURVE",
"30 228 CURVE SMOOTH",
"26 207 OFFCURVE",
"24 186 OFFCURVE",
"24 166 CURVE SMOOTH",
"24 70 OFFCURVE",
"70 -11 OFFCURVE",
"165 -56 CURVE SMOOTH",
"205 -75 OFFCURVE",
"249 -84 OFFCURVE",
"293 -84 CURVE SMOOTH"
);
}
);
width = 1161;
}
);
leftKerningGroup = H;
note = H;
rightKerningGroup = H;
unicode = 0048;
},
{
glyphname = Hbar;
lastChange = "2021-11-12 16:20:59 +0000";
layers = (
{
anchors = (
{
name = bottom;
position = "{541, 0}";
},
{
name = center;
position = "{541, 353}";
},
{
name = top;
position = "{810, 705}";
},
{
name = topleft;
position = "{20, 705}";
}
);
background = {
components = (
{
name = H;
},
{
name = emdash;
transform = "{1.13239, 0, 0, 1, 464, 284}";
}
);
};
layerId = "2ADFC918-CAA7-4AF7-825A-5AAC412EF250";
paths = (
{
closed = 1;
nodes = (
"554 -84 OFFCURVE",
"634 135 OFFCURVE",
"644 340 CURVE",
"968 340 LINE",
"968 336 LINE SMOOTH",
"968 259 OFFCURVE",
"971 10 OFFCURVE",
"1057 -27 CURVE SMOOTH",
"1063 -30 OFFCURVE",
"1077 -33 OFFCURVE",
"1088 -33 CURVE SMOOTH",
"1092 -33 OFFCURVE",
"1096 -33 OFFCURVE",
"1099 -32 CURVE SMOOTH",
"1112 -27 OFFCURVE",
"1118 -20 OFFCURVE",
"1118 -13 CURVE SMOOTH",
"1118 0 OFFCURVE",
"1099 13 OFFCURVE",
"1082 14 CURVE",
"1079 9 OFFCURVE",
"1078 9 OFFCURVE",
"1075 11 CURVE SMOOTH",
"1071 15 OFFCURVE",
"1066 23 OFFCURVE",
"1062 33 CURVE SMOOTH",
"1024 116 OFFCURVE",
"1018 247 OFFCURVE",
"1018 336 CURVE SMOOTH",
"1018 400 OFFCURVE",
"1050 674 OFFCURVE",
"1105 695 CURVE",
"1107 695 OFFCURVE",
"1108 696 OFFCURVE",
"1108 697 CURVE",
"1109 697 LINE",
"1112 694 OFFCURVE",
"1115 694 OFFCURVE",
"1118 694 CURVE SMOOTH",
"1123 694 LINE SMOOTH",
"1142 694 OFFCURVE",
"1148 702 OFFCURVE",
"1148 711 CURVE SMOOTH",
"1148 723 OFFCURVE",
"1139 736 OFFCURVE",
"1131 742 CURVE",
"1000 747 OFFCURVE",
"977 484 OFFCURVE",
"971 390 CURVE",
"646 390 LINE",
"645 489 OFFCURVE",
"636 656 OFFCURVE",
"535 711 CURVE SMOOTH",
"525 716 OFFCURVE",
"494 729 OFFCURVE",
"478 729 CURVE SMOOTH",
"466 729 OFFCURVE",
"448 717 OFFCURVE",
"448 702 CURVE SMOOTH",
"448 694 OFFCURVE",
"454 685 OFFCURVE",
"471 680 CURVE SMOOTH",
"480 677 OFFCURVE",
"485 677 OFFCURVE",
"490 677 CURVE SMOOTH",
"496 677 OFFCURVE",
"503 677 OFFCURVE",
"517 667 CURVE SMOOTH",
"581 625 OFFCURVE",
"597 484 OFFCURVE",
"597 393 CURVE SMOOTH",
"597 380 OFFCURVE",
"596 369 OFFCURVE",
"596 359 CURVE SMOOTH",
"586 173 OFFCURVE",
"527 -35 OFFCURVE",
"306 -35 CURVE SMOOTH",
"174 -35 OFFCURVE",
"87 46 OFFCURVE",
"87 168 CURVE SMOOTH",
"87 184 OFFCURVE",
"89 201 OFFCURVE",
"92 219 CURVE SMOOTH",
"105 290 OFFCURVE",
"191 344 OFFCURVE",
"265 344 CURVE SMOOTH",
"305 344 OFFCURVE",
"341 328 OFFCURVE",
"361 291 CURVE SMOOTH",
"369 277 OFFCURVE",
"373 261 OFFCURVE",
"373 245 CURVE SMOOTH",
"373 220 OFFCURVE",
"362 196 OFFCURVE",
"336 185 CURVE SMOOTH",
"326 180 OFFCURVE",
"322 179 OFFCURVE",
"320 179 CURVE SMOOTH",
"319 179 LINE SMOOTH",
"315 179 OFFCURVE",
"312 181 OFFCURVE",
"308 181 CURVE SMOOTH",
"302 181 OFFCURVE",
"296 179 OFFCURVE",
"290 178 CURVE SMOOTH",
"272 174 OFFCURVE",
"264 164 OFFCURVE",
"264 154 CURVE SMOOTH",
"264 141 OFFCURVE",
"278 128 OFFCURVE",
"298 128 CURVE SMOOTH",
"312 128 OFFCURVE",
"331 131 OFFCURVE",
"339 133 CURVE SMOOTH",
"393 148 OFFCURVE",
"422 198 OFFCURVE",
"422 249 CURVE SMOOTH",
"422 272 OFFCURVE",
"416 295 OFFCURVE",
"403 315 CURVE SMOOTH",
"368 370 OFFCURVE",
"315 394 OFFCURVE",
"259 394 CURVE SMOOTH",
"164 394 OFFCURVE",
"63 324 OFFCURVE",
"43 228 CURVE SMOOTH",
"39 207 OFFCURVE",
"37 186 OFFCURVE",
"37 166 CURVE SMOOTH",
"37 70 OFFCURVE",
"83 -11 OFFCURVE",
"178 -56 CURVE SMOOTH",
"218 -75 OFFCURVE",
"262 -84 OFFCURVE",
"306 -84 CURVE SMOOTH"
);
},
{
closed = 1;
nodes = (
"600 514 OFFCURVE",
"739 525 OFFCURVE",
"788.996 526 CURVE SMOOTH",
"856 527 OFFCURVE",
"991 531 OFFCURVE",
"1028 531 CURVE SMOOTH",
"1048 531 OFFCURVE",
"1066 526 OFFCURVE",
"1087 526 CURVE SMOOTH",
"1097.006 526 OFFCURVE",
"1104 534 OFFCURVE",
"1104 546 CURVE SMOOTH",
"1104 558 OFFCURVE",
"1097.006 565 OFFCURVE",
"1088 568 CURVE SMOOTH",
"1071 572 OFFCURVE",
"1053 572 OFFCURVE",
"1036 572 CURVE SMOOTH",
"950 572 OFFCURVE",
"655 556 OFFCURVE",
"569 556 CURVE SMOOTH",
"556 556 OFFCURVE",
"538 572 OFFCURVE",
"525 572 CURVE SMOOTH",
"515 572 OFFCURVE",
"505 563 OFFCURVE",
"505 551 CURVE SMOOTH",
"505 527 OFFCURVE",
"539 514 OFFCURVE",
"551 514 CURVE SMOOTH"
);
}
);
width = 1082;
}
);
leftKerningGroup = H;
rightKerningGroup = H;
unicode = 0126;
},
{
glyphname = I;
lastChange = "2021-11-12 20:42:29 +0000";
layers = (
{
anchors = (
{
name = bottom;
position = "{258, -125}";
},
{
name = ogonek;
position = "{371, -105}";
},
{
name = top;
position = "{624, 705}";
},
{
name = topleft;
position = "{109, 705}";
}
);
background = {
anchors = (
{
name = bottom;
position = "{273, -98}";
},
{
name = ogonek;
position = "{304, -139}";
},
{
name = top;
position = "{672, 752}";
},
{
name = topleft;
position = "{109, 705}";
}
);
paths = (
{
closed = 1;
nodes = (
"274 -147 LINE SMOOTH",
"546 -147 OFFCURVE",
"600 116 OFFCURVE",
"607 319 CURVE",
"616 326 OFFCURVE",
"624 334 OFFCURVE",
"632 343 CURVE SMOOTH",
"642 354 OFFCURVE",
"667 389 OFFCURVE",
"670 403 CURVE SMOOTH",
"674 422 OFFCURVE",
"663 436 OFFCURVE",
"649 436 CURVE SMOOTH",
"641 436 OFFCURVE",
"633 432 OFFCURVE",
"626 424 CURVE SMOOTH",
"622 419 OFFCURVE",
"620 415 OFFCURVE",
"619 411 CURVE",
"615 404 OFFCURVE",
"612 398 OFFCURVE",
"607 392 CURVE",
"607 473 LINE SMOOTH",
"607 525 OFFCURVE",
"619 597 OFFCURVE",
"656 641 CURVE",
"667 642 OFFCURVE",
"678 640 OFFCURVE",
"689 642 CURVE SMOOTH",
"702 644 LINE SMOOTH",
"724 647 OFFCURVE",
"735 666 OFFCURVE",
"735 684 CURVE SMOOTH",
"735 703 OFFCURVE",
"723 721 OFFCURVE",
"698 721 CURVE SMOOTH",
"694 721 OFFCURVE",
"689 720 OFFCURVE",
"684 719 CURVE SMOOTH",
"669 716 OFFCURVE",
"644 698 OFFCURVE",
"632 687 CURVE",
"537 672 OFFCURVE",
"435 620 OFFCURVE",
"391 536 CURVE SMOOTH",
"372 499 OFFCURVE",
"364 466 OFFCURVE",
"364 435 CURVE SMOOTH",
"364 345 OFFCURVE",
"436 287 OFFCURVE",
"513 287 CURVE SMOOTH",
"527 287 OFFCURVE",
"541 289 OFFCURVE",
"555 293 CURVE",
"544 134 OFFCURVE",
"500 -98 OFFCURVE",
"273 -98 CURVE SMOOTH",
"152 -98 OFFCURVE",
"48 -28 OFFCURVE",
"48 82 CURVE SMOOTH",
"48 104 OFFCURVE",
"52 127 OFFCURVE",
"61 152 CURVE SMOOTH",
"83 215 OFFCURVE",
"152 263 OFFCURVE",
"220 263 CURVE SMOOTH",
"236 263 OFFCURVE",
"251 260 OFFCURVE",
"266 255 CURVE SMOOTH",
"281 249 OFFCURVE",
"300 237 OFFCURVE",
"309 225 CURVE SMOOTH",
"325 203 OFFCURVE",
"322 199 OFFCURVE",
"327 176 CURVE SMOOTH",
"331 157 OFFCURVE",
"341 149 OFFCURVE",
"350 149 CURVE SMOOTH",
"361 149 OFFCURVE",
"371 161 OFFCURVE",
"371 178 CURVE SMOOTH",
"371 204 OFFCURVE",
"359 237 OFFCURVE",
"344 257 CURVE SMOOTH",
"325 284 OFFCURVE",
"295 301 OFFCURVE",
"264 308 CURVE SMOOTH",
"250 311 OFFCURVE",
"237 313 OFFCURVE",
"223 313 CURVE SMOOTH",
"134 313 OFFCURVE",
"42 252 OFFCURVE",
"13 169 CURVE SMOOTH",
"2 139 OFFCURVE",
"-2 111 OFFCURVE",
"-2 84 CURVE SMOOTH",
"-2 -54 OFFCURVE",
"127 -147 OFFCURVE",
"273 -147 CURVE SMOOTH"
);
},
{
closed = 1;
nodes = (
"541 340 OFFCURVE",
"524 336 OFFCURVE",
"508 336 CURVE SMOOTH",
"459 336 OFFCURVE",
"415 370 OFFCURVE",
"415 434 CURVE SMOOTH",
"415 461 OFFCURVE",
"424 488 OFFCURVE",
"436 513 CURVE SMOOTH",
"461 566 OFFCURVE",
"529 607 OFFCURVE",
"589 627 CURVE",
"566 579 OFFCURVE",
"558 522 OFFCURVE",
"558 473 CURVE SMOOTH",
"558 431 OFFCURVE",
"558 389 OFFCURVE",
"557 348 CURVE"
);
}
);
};
layerId = "2ADFC918-CAA7-4AF7-825A-5AAC412EF250";
paths = (
{
closed = 1;
nodes = (
"274 -127 LINE SMOOTH",
"546 -127 OFFCURVE",
"600 136 OFFCURVE",
"607 339 CURVE",
"616 346 OFFCURVE",
"624 354 OFFCURVE",
"632 363 CURVE SMOOTH",
"642 374 OFFCURVE",
"667 409 OFFCURVE",
"670 423 CURVE SMOOTH",
"674 442 OFFCURVE",
"663 456 OFFCURVE",
"649 456 CURVE SMOOTH",
"641 456 OFFCURVE",
"633 452 OFFCURVE",
"626 444 CURVE SMOOTH",
"622 439 OFFCURVE",
"620 435 OFFCURVE",
"619 431 CURVE",
"615 424 OFFCURVE",
"612 418 OFFCURVE",
"607 412 CURVE",
"607 493 LINE SMOOTH",
"607 545 OFFCURVE",
"619 617 OFFCURVE",
"656 661 CURVE",
"667 662 OFFCURVE",
"678 660 OFFCURVE",
"689 662 CURVE SMOOTH",
"702 664 LINE SMOOTH",
"724 667 OFFCURVE",
"735 686 OFFCURVE",
"735 704 CURVE SMOOTH",
"735 723 OFFCURVE",
"723 741 OFFCURVE",
"698 741 CURVE SMOOTH",
"694 741 OFFCURVE",
"689 740 OFFCURVE",
"684 739 CURVE SMOOTH",
"669 736 OFFCURVE",
"644 718 OFFCURVE",
"632 707 CURVE",
"537 692 OFFCURVE",
"435 640 OFFCURVE",
"391 556 CURVE SMOOTH",
"372 519 OFFCURVE",
"364 486 OFFCURVE",
"364 455 CURVE SMOOTH",
"364 365 OFFCURVE",
"436 307 OFFCURVE",
"513 307 CURVE SMOOTH",
"527 307 OFFCURVE",
"541 309 OFFCURVE",
"555 313 CURVE",
"544 154 OFFCURVE",
"500 -78 OFFCURVE",
"273 -78 CURVE SMOOTH",
"152 -78 OFFCURVE",
"48 -8 OFFCURVE",
"48 102 CURVE SMOOTH",
"48 124 OFFCURVE",
"52 147 OFFCURVE",
"61 172 CURVE SMOOTH",
"83 235 OFFCURVE",
"152 283 OFFCURVE",
"220 283 CURVE SMOOTH",
"236 283 OFFCURVE",
"251 280 OFFCURVE",
"266 275 CURVE SMOOTH",
"281 269 OFFCURVE",
"300 257 OFFCURVE",
"309 245 CURVE SMOOTH",
"325 223 OFFCURVE",
"322 219 OFFCURVE",
"327 196 CURVE SMOOTH",
"331 177 OFFCURVE",
"341 169 OFFCURVE",
"350 169 CURVE SMOOTH",
"361 169 OFFCURVE",
"371 181 OFFCURVE",
"371 198 CURVE SMOOTH",
"371 224 OFFCURVE",
"359 257 OFFCURVE",
"344 277 CURVE SMOOTH",
"325 304 OFFCURVE",
"295 321 OFFCURVE",
"264 328 CURVE SMOOTH",
"250 331 OFFCURVE",
"237 333 OFFCURVE",
"223 333 CURVE SMOOTH",
"134 333 OFFCURVE",
"42 272 OFFCURVE",
"13 189 CURVE SMOOTH",
"2 159 OFFCURVE",
"-2 131 OFFCURVE",
"-2 104 CURVE SMOOTH",
"-2 -34 OFFCURVE",
"127 -127 OFFCURVE",
"273 -127 CURVE SMOOTH"
);
},
{
closed = 1;
nodes = (
"459 356 OFFCURVE",
"415 390 OFFCURVE",
"415 454 CURVE SMOOTH",
"415 481 OFFCURVE",
"424 508 OFFCURVE",
"436 533 CURVE SMOOTH",
"461 586 OFFCURVE",
"529 627 OFFCURVE",
"589 647 CURVE",
"566 599 OFFCURVE",
"558 542 OFFCURVE",
"558 493 CURVE SMOOTH",
"558 451 OFFCURVE",
"558 409 OFFCURVE",
"557 368 CURVE",
"541 360 OFFCURVE",
"524 356 OFFCURVE",
"508 356 CURVE SMOOTH"
);
}
);
width = 693;
}
);
leftKerningGroup = I;
note = I;
rightKerningGroup = I;
unicode = 0049;
},
{
glyphname = J;
lastChange = "2021-11-12 20:40:07 +0000";
layers = (
{
anchors = (
{
name = bottom;
position = "{348, 0}";
},
{
name = top;
position = "{589, 705}";
}
);
background = {
anchors = (
{
name = bottom;
position = "{348, -43}";
},
{
name = top;
position = "{348, 705}";
}
);
paths = (
{
closed = 1;
nodes = (
"115 -260 OFFCURVE",
"152 -267 OFFCURVE",
"190 -267 CURVE SMOOTH",
"238 -267 OFFCURVE",
"285 -256 OFFCURVE",
"328 -234 CURVE SMOOTH",
"548 -120 OFFCURVE",
"578 257 OFFCURVE",
"578 473 CURVE SMOOTH",
"578 525 OFFCURVE",
"590 598 OFFCURVE",
"627 641 CURVE",
"631 642 OFFCURVE",
"635 642 OFFCURVE",
"639 642 CURVE SMOOTH",
"647 642 OFFCURVE",
"651 641 OFFCURVE",
"660 642 CURVE SMOOTH",
"673 644 LINE SMOOTH",
"695 647 OFFCURVE",
"706 666 OFFCURVE",
"706 684 CURVE SMOOTH",
"706 703 OFFCURVE",
"694 721 OFFCURVE",
"670 721 CURVE SMOOTH",
"665 721 OFFCURVE",
"660 720 OFFCURVE",
"655 719 CURVE SMOOTH",
"640 715 OFFCURVE",
"615 698 OFFCURVE",
"603 687 CURVE",
"489 668 OFFCURVE",
"382 595 OFFCURVE",
"330 492 CURVE SMOOTH",
"317 467 OFFCURVE",
"309 444 OFFCURVE",
"309 415 CURVE SMOOTH",
"310 347 OFFCURVE",
"361 311 OFFCURVE",
"417 311 CURVE SMOOTH",
"436 311 OFFCURVE",
"455 315 OFFCURVE",
"473 323 CURVE SMOOTH",
"486 329 OFFCURVE",
"493 342 OFFCURVE",
"493 353 CURVE SMOOTH",
"493 364 OFFCURVE",
"486 373 OFFCURVE",
"471 373 CURVE SMOOTH",
"468 373 OFFCURVE",
"464 373 OFFCURVE",
"460 372 CURVE SMOOTH",
"454 370 OFFCURVE",
"441 367 OFFCURVE",
"436 362 CURVE SMOOTH",
"435 361 LINE",
"435 361 OFFCURVE",
"429 360 OFFCURVE",
"420 360 CURVE SMOOTH",
"397 360 OFFCURVE",
"358 367 OFFCURVE",
"358 412 CURVE SMOOTH",
"358 435 OFFCURVE",
"364 449 OFFCURVE",
"373 469 CURVE SMOOTH",
"408 544 OFFCURVE",
"481 602 OFFCURVE",
"560 628 CURVE",
"537 580 OFFCURVE",
"529 522 OFFCURVE",
"529 473 CURVE SMOOTH",
"529 257 OFFCURVE",
"486 -219 OFFCURVE",
"202 -219 CURVE SMOOTH",
"81 -219 OFFCURVE",
"-22 -148 OFFCURVE",
"-22 -37 CURVE SMOOTH",
"-22 -16 OFFCURVE",
"-18 7 OFFCURVE",
"-10 32 CURVE SMOOTH",
"12 98 OFFCURVE",
"83 142 OFFCURVE",
"149 142 CURVE SMOOTH",
"182 142 OFFCURVE",
"214 130 OFFCURVE",
"238 104 CURVE SMOOTH",
"243 98 OFFCURVE",
"248 93 OFFCURVE",
"251 86 CURVE SMOOTH",
"259 69 OFFCURVE",
"244 19 OFFCURVE",
"276 19 CURVE SMOOTH",
"295 19 OFFCURVE",
"301 38 OFFCURVE",
"301 58 CURVE SMOOTH",
"301 77 OFFCURVE",
"295 98 OFFCURVE",
"292 106 CURVE SMOOTH",
"286 119 OFFCURVE",
"282 127 OFFCURVE",
"273 138 CURVE SMOOTH",
"263 151 OFFCURVE",
"233 169 OFFCURVE",
"219 175 CURVE SMOOTH",
"195 186 OFFCURVE",
"169 191 OFFCURVE",
"143 191 CURVE SMOOTH",
"57 191 OFFCURVE",
"-28 133 OFFCURVE",
"-57 50 CURVE SMOOTH",
"-67 20 OFFCURVE",
"-72 -9 OFFCURVE",
"-72 -37 CURVE SMOOTH",
"-72 -129 OFFCURVE",
"-17 -208 OFFCURVE",
"80 -246 CURVE SMOOTH"
);
}
);
};
layerId = "2ADFC918-CAA7-4AF7-825A-5AAC412EF250";
paths = (
{
closed = 1;
nodes = (
"238 -247 OFFCURVE",
"285 -236 OFFCURVE",
"328 -214 CURVE SMOOTH",
"548 -100 OFFCURVE",
"578 277 OFFCURVE",
"578 493 CURVE SMOOTH",
"578 545 OFFCURVE",
"590 618 OFFCURVE",
"627 661 CURVE",
"631 662 OFFCURVE",
"635 662 OFFCURVE",
"639 662 CURVE SMOOTH",
"647 662 OFFCURVE",
"651 661 OFFCURVE",
"660 662 CURVE SMOOTH",
"673 664 LINE SMOOTH",
"695 667 OFFCURVE",
"706 686 OFFCURVE",
"706 704 CURVE SMOOTH",
"706 723 OFFCURVE",
"694 741 OFFCURVE",
"670 741 CURVE SMOOTH",
"665 741 OFFCURVE",
"660 740 OFFCURVE",
"655 739 CURVE SMOOTH",
"640 735 OFFCURVE",
"615 718 OFFCURVE",
"603 707 CURVE",
"489 688 OFFCURVE",
"382 615 OFFCURVE",
"330 512 CURVE SMOOTH",
"317 487 OFFCURVE",
"309 464 OFFCURVE",
"309 435 CURVE SMOOTH",
"310 367 OFFCURVE",
"361 331 OFFCURVE",
"417 331 CURVE SMOOTH",
"436 331 OFFCURVE",
"455 335 OFFCURVE",
"473 343 CURVE SMOOTH",
"486 349 OFFCURVE",
"493 362 OFFCURVE",
"493 373 CURVE SMOOTH",
"493 384 OFFCURVE",
"486 393 OFFCURVE",
"471 393 CURVE SMOOTH",
"468 393 OFFCURVE",
"464 393 OFFCURVE",
"460 392 CURVE SMOOTH",
"454 390 OFFCURVE",
"441 387 OFFCURVE",
"436 382 CURVE SMOOTH",
"435 381 LINE",
"435 381 OFFCURVE",
"429 380 OFFCURVE",
"420 380 CURVE SMOOTH",
"397 380 OFFCURVE",
"358 387 OFFCURVE",
"358 432 CURVE SMOOTH",
"358 455 OFFCURVE",
"364 469 OFFCURVE",
"373 489 CURVE SMOOTH",
"408 564 OFFCURVE",
"481 622 OFFCURVE",
"560 648 CURVE",
"537 600 OFFCURVE",
"529 542 OFFCURVE",
"529 493 CURVE SMOOTH",
"529 277 OFFCURVE",
"486 -199 OFFCURVE",
"202 -199 CURVE SMOOTH",
"81 -199 OFFCURVE",
"-22 -128 OFFCURVE",
"-22 -17 CURVE SMOOTH",
"-22 4 OFFCURVE",
"-18 27 OFFCURVE",
"-10 52 CURVE SMOOTH",
"12 118 OFFCURVE",
"83 162 OFFCURVE",
"149 162 CURVE SMOOTH",
"182 162 OFFCURVE",
"214 150 OFFCURVE",
"238 124 CURVE SMOOTH",
"243 118 OFFCURVE",
"248 113 OFFCURVE",
"251 106 CURVE SMOOTH",
"259 89 OFFCURVE",
"244 39 OFFCURVE",
"276 39 CURVE SMOOTH",
"295 39 OFFCURVE",
"301 58 OFFCURVE",
"301 78 CURVE SMOOTH",
"301 97 OFFCURVE",
"295 118 OFFCURVE",
"292 126 CURVE SMOOTH",
"286 139 OFFCURVE",
"282 147 OFFCURVE",
"273 158 CURVE SMOOTH",
"263 171 OFFCURVE",
"233 189 OFFCURVE",
"219 195 CURVE SMOOTH",
"195 206 OFFCURVE",
"169 211 OFFCURVE",
"143 211 CURVE SMOOTH",
"57 211 OFFCURVE",
"-28 153 OFFCURVE",
"-57 70 CURVE SMOOTH",
"-67 40 OFFCURVE",
"-72 11 OFFCURVE",
"-72 -17 CURVE SMOOTH",
"-72 -109 OFFCURVE",
"-17 -188 OFFCURVE",
"80 -226 CURVE SMOOTH",
"115 -240 OFFCURVE",
"152 -247 OFFCURVE",
"190 -247 CURVE SMOOTH"
);
}
);
width = 664;
}
);
leftKerningGroup = J;
note = J;
rightKerningGroup = I;
rightMetricsKey = I;
unicode = 004A;
},
{
glyphname = K;
lastChange = "2021-11-12 20:38:48 +0000";
layers = (
{
anchors = (
{
name = bottom;
position = "{643, 0}";
},
{
name = top;
position = "{694, 705}";
}
);
background = {
anchors = (
{
name = bottom;
position = "{624, 0}";
},
{
name = top;
position = "{707, 752}";
}
);
paths = (
{
closed = 1;
nodes = (
"1018 -95 OFFCURVE",
"1052 -94 OFFCURVE",
"1063 -88 CURVE SMOOTH",
"1076 -81 OFFCURVE",
"1081 -74 OFFCURVE",
"1081 -66 CURVE SMOOTH",
"1081 -53 OFFCURVE",
"1066 -42 OFFCURVE",
"1051 -42 CURVE SMOOTH",
"1048 -42 OFFCURVE",
"1045 -43 OFFCURVE",
"1042 -44 CURVE SMOOTH",
"1034 -47 OFFCURVE",
"1024 -48 OFFCURVE",
"1015 -48 CURVE SMOOTH",
"1010 -48 OFFCURVE",
"1006 -47 OFFCURVE",
"1002 -47 CURVE SMOOTH",
"915 -37 OFFCURVE",
"851 50 OFFCURVE",
"820 127 CURVE SMOOTH",
"791 199 OFFCURVE",
"758 285 OFFCURVE",
"699 338 CURVE",
"731 357 OFFCURVE",
"759 383 OFFCURVE",
"791 416 CURVE SMOOTH",
"837 463 OFFCURVE",
"873 518 OFFCURVE",
"904 575 CURVE SMOOTH",
"913 593 OFFCURVE",
"950 674 OFFCURVE",
"970 674 CURVE SMOOTH",
"984 674 OFFCURVE",
"990 683 OFFCURVE",
"990 693 CURVE SMOOTH",
"990 706 OFFCURVE",
"980 721 OFFCURVE",
"960 722 CURVE",
"912 703 OFFCURVE",
"886 649 OFFCURVE",
"863 606 CURVE SMOOTH",
"833 549 OFFCURVE",
"803 498 OFFCURVE",
"757 451 CURVE SMOOTH",
"728 422 OFFCURVE",
"694 390 OFFCURVE",
"657 368 CURVE",
"634 379 OFFCURVE",
"609 386 OFFCURVE",
"580 386 CURVE SMOOTH",
"573 386 OFFCURVE",
"567 385 OFFCURVE",
"561 385 CURVE",
"560 549 OFFCURVE",
"507 706 OFFCURVE",
"315 722 CURVE SMOOTH",
"276 725 OFFCURVE",
"236 720 OFFCURVE",
"199 708 CURVE SMOOTH",
"82 672 OFFCURVE",
"20 577 OFFCURVE",
"20 457 CURVE SMOOTH",
"20 338 OFFCURVE",
"108 262 OFFCURVE",
"208 262 CURVE SMOOTH",
"240 262 OFFCURVE",
"273 270 OFFCURVE",
"305 287 CURVE SMOOTH",
"349 310 OFFCURVE",
"375 363 OFFCURVE",
"375 412 CURVE SMOOTH",
"375 461 OFFCURVE",
"349 507 OFFCURVE",
"292 516 CURVE SMOOTH",
"287 517 OFFCURVE",
"277 518 OFFCURVE",
"267 518 CURVE SMOOTH",
"262 518 OFFCURVE",
"256 518 OFFCURVE",
"253 517 CURVE SMOOTH",
"237 512 OFFCURVE",
"232 504 OFFCURVE",
"232 496 CURVE SMOOTH",
"232 482 OFFCURVE",
"248 469 OFFCURVE",
"262 469 CURVE SMOOTH",
"269 469 OFFCURVE",
"273 471 OFFCURVE",
"281 471 CURVE SMOOTH",
"307 471 OFFCURVE",
"325 439 OFFCURVE",
"325 404 CURVE SMOOTH",
"325 375 OFFCURVE",
"313 346 OFFCURVE",
"283 330 CURVE SMOOTH",
"259 317 OFFCURVE",
"233 311 OFFCURVE",
"208 311 CURVE SMOOTH",
"134 311 OFFCURVE",
"69 364 OFFCURVE",
"69 449 CURVE SMOOTH",
"69 591 OFFCURVE",
"160 673 OFFCURVE",
"296 673 CURVE SMOOTH",
"479 673 OFFCURVE",
"512 506 OFFCURVE",
"512 359 CURVE",
"508 353 OFFCURVE",
"505 346 OFFCURVE",
"505 340 CURVE SMOOTH",
"505 334 OFFCURVE",
"507 328 OFFCURVE",
"511 323 CURVE",
"510 301 OFFCURVE",
"506 280 OFFCURVE",
"504 258 CURVE SMOOTH",
"495 166 OFFCURVE",
"439 -34 OFFCURVE",
"341 -34 CURVE SMOOTH",
"337 -34 OFFCURVE",
"334 -34 OFFCURVE",
"330 -33 CURVE SMOOTH",
"312 -29 OFFCURVE",
"296 -44 OFFCURVE",
"296 -58 CURVE SMOOTH",
"296 -67 OFFCURVE",
"302 -76 OFFCURVE",
"316 -80 CURVE SMOOTH",
"319 -81 OFFCURVE",
"324 -82 OFFCURVE",
"330 -82 CURVE SMOOTH",
"347 -82 OFFCURVE",
"370 -77 OFFCURVE",
"380 -74 CURVE SMOOTH",
"482 -41 OFFCURVE",
"523 99 OFFCURVE",
"541 188 CURVE SMOOTH",
"549 226 OFFCURVE",
"555 263 OFFCURVE",
"557 301 CURVE",
"593 301 OFFCURVE",
"624 306 OFFCURVE",
"651 316 CURVE",
"711 272 OFFCURVE",
"748 176 OFFCURVE",
"774 109 CURVE SMOOTH",
"812 14 OFFCURVE",
"893 -90 OFFCURVE",
"1006 -95 CURVE SMOOTH"
);
}
);
};
layerId = "2ADFC918-CAA7-4AF7-825A-5AAC412EF250";
paths = (
{
closed = 1;
nodes = (
"1018 -75 OFFCURVE",
"1052 -74 OFFCURVE",
"1063 -68 CURVE SMOOTH",
"1076 -61 OFFCURVE",
"1081 -54 OFFCURVE",
"1081 -46 CURVE SMOOTH",
"1081 -33 OFFCURVE",
"1066 -22 OFFCURVE",
"1051 -22 CURVE SMOOTH",
"1048 -22 OFFCURVE",
"1045 -23 OFFCURVE",
"1042 -24 CURVE SMOOTH",
"1034 -27 OFFCURVE",
"1024 -28 OFFCURVE",
"1015 -28 CURVE SMOOTH",
"1010 -28 OFFCURVE",
"1006 -27 OFFCURVE",
"1002 -27 CURVE SMOOTH",
"915 -17 OFFCURVE",
"851 70 OFFCURVE",
"820 147 CURVE SMOOTH",
"791 219 OFFCURVE",
"758 305 OFFCURVE",
"699 358 CURVE",
"731 377 OFFCURVE",
"759 403 OFFCURVE",
"791 436 CURVE SMOOTH",
"837 483 OFFCURVE",
"873 538 OFFCURVE",
"904 595 CURVE SMOOTH",
"913 613 OFFCURVE",
"950 694 OFFCURVE",
"970 694 CURVE SMOOTH",
"984 694 OFFCURVE",
"990 703 OFFCURVE",
"990 713 CURVE SMOOTH",
"990 726 OFFCURVE",
"980 741 OFFCURVE",
"960 742 CURVE",
"912 723 OFFCURVE",
"886 669 OFFCURVE",
"863 626 CURVE SMOOTH",
"833 569 OFFCURVE",
"803 518 OFFCURVE",
"757 471 CURVE SMOOTH",
"728 442 OFFCURVE",
"694 410 OFFCURVE",
"657 388 CURVE",
"634 399 OFFCURVE",
"609 406 OFFCURVE",
"580 406 CURVE SMOOTH",
"573 406 OFFCURVE",
"567 405 OFFCURVE",
"561 405 CURVE",
"560 569 OFFCURVE",
"507 726 OFFCURVE",
"315 742 CURVE SMOOTH",
"276 745 OFFCURVE",
"236 740 OFFCURVE",
"199 728 CURVE SMOOTH",
"82 692 OFFCURVE",
"20 597 OFFCURVE",
"20 477 CURVE SMOOTH",
"20 358 OFFCURVE",
"108 282 OFFCURVE",
"208 282 CURVE SMOOTH",
"240 282 OFFCURVE",
"273 290 OFFCURVE",
"305 307 CURVE SMOOTH",
"349 330 OFFCURVE",
"375 383 OFFCURVE",
"375 432 CURVE SMOOTH",
"375 481 OFFCURVE",
"349 527 OFFCURVE",
"292 536 CURVE SMOOTH",
"287 537 OFFCURVE",
"277 538 OFFCURVE",
"267 538 CURVE SMOOTH",
"262 538 OFFCURVE",
"256 538 OFFCURVE",
"253 537 CURVE SMOOTH",
"237 532 OFFCURVE",
"232 524 OFFCURVE",
"232 516 CURVE SMOOTH",
"232 502 OFFCURVE",
"248 489 OFFCURVE",
"262 489 CURVE SMOOTH",
"269 489 OFFCURVE",
"273 491 OFFCURVE",
"281 491 CURVE SMOOTH",
"307 491 OFFCURVE",
"325 459 OFFCURVE",
"325 424 CURVE SMOOTH",
"325 395 OFFCURVE",
"313 366 OFFCURVE",
"283 350 CURVE SMOOTH",
"259 337 OFFCURVE",
"233 331 OFFCURVE",
"208 331 CURVE SMOOTH",
"134 331 OFFCURVE",
"69 384 OFFCURVE",
"69 469 CURVE SMOOTH",
"69 611 OFFCURVE",
"160 693 OFFCURVE",
"296 693 CURVE SMOOTH",
"479 693 OFFCURVE",
"512 526 OFFCURVE",
"512 379 CURVE",
"508 373 OFFCURVE",
"505 366 OFFCURVE",
"505 360 CURVE SMOOTH",
"505 354 OFFCURVE",
"507 348 OFFCURVE",
"511 343 CURVE",
"510 321 OFFCURVE",
"506 300 OFFCURVE",
"504 278 CURVE SMOOTH",
"495 186 OFFCURVE",
"439 -14 OFFCURVE",
"341 -14 CURVE SMOOTH",
"337 -14 OFFCURVE",
"334 -14 OFFCURVE",
"330 -13 CURVE SMOOTH",
"312 -9 OFFCURVE",
"296 -24 OFFCURVE",
"296 -38 CURVE SMOOTH",
"296 -47 OFFCURVE",
"302 -56 OFFCURVE",
"316 -60 CURVE SMOOTH",
"319 -61 OFFCURVE",
"324 -62 OFFCURVE",
"330 -62 CURVE SMOOTH",
"347 -62 OFFCURVE",
"370 -57 OFFCURVE",
"380 -54 CURVE SMOOTH",
"482 -21 OFFCURVE",
"523 119 OFFCURVE",
"541 208 CURVE SMOOTH",
"549 246 OFFCURVE",
"555 283 OFFCURVE",
"557 321 CURVE",
"593 321 OFFCURVE",
"624 326 OFFCURVE",
"651 336 CURVE",
"711 292 OFFCURVE",
"748 196 OFFCURVE",
"774 129 CURVE SMOOTH",
"812 34 OFFCURVE",
"893 -70 OFFCURVE",
"1006 -75 CURVE SMOOTH"
);
}
);
width = 968;
}
);
leftKerningGroup = K;
leftMetricsKey = M;
note = K;
rightKerningGroup = K;
unicode = 004B;
},
{
glyphname = L;
lastChange = "2021-11-12 19:44:13 +0000";
layers = (
{
anchors = (
{
name = bottom;
position = "{497, -51}";
},
{
name = center;
position = "{372, 353}";
},
{
name = top;
position = "{573, 744}";
},
{
name = topright;
position = "{704, 743}";
}
);
background = {
anchors = (
{
name = bottom;
position = "{372, 0}";
},
{
name = center;
position = "{372, 353}";
},
{
name = top;
position = "{630, 752}";
},
{
name = topright;
position = "{704, 419}";
}
);
paths = (
{
closed = 1;
nodes = (
"754 -113 OFFCURVE",
"784 -91 OFFCURVE",
"784 -60 CURVE SMOOTH",
"784 -55 OFFCURVE",
"782 -48 OFFCURVE",
"780 -42 CURVE SMOOTH",
"776 -32 OFFCURVE",
"768 -27 OFFCURVE",
"760 -27 CURVE SMOOTH",
"747 -27 OFFCURVE",
"732 -41 OFFCURVE",
"734 -59 CURVE",
"732 -64 OFFCURVE",
"727 -66 OFFCURVE",
"719 -67 CURVE SMOOTH",
"711 -68 OFFCURVE",
"703 -68 OFFCURVE",
"695 -68 CURVE SMOOTH",
"606 -68 OFFCURVE",
"511 -24 OFFCURVE",
"428 22 CURVE",
"448 54 OFFCURVE",
"461 92 OFFCURVE",
"467 136 CURVE SMOOTH",
"474 191 OFFCURVE",
"476 248 OFFCURVE",
"478 303 CURVE",
"565 322 OFFCURVE",
"635 378 OFFCURVE",
"678 468 CURVE SMOOTH",
"693 499 OFFCURVE",
"702 536 OFFCURVE",
"702 572 CURVE SMOOTH",
"702 615 OFFCURVE",
"689 658 OFFCURVE",
"657 689 CURVE SMOOTH",
"632 712 OFFCURVE",
"604 724 OFFCURVE",
"573 724 CURVE SMOOTH",
"563 724 OFFCURVE",
"552 723 OFFCURVE",
"541 720 CURVE SMOOTH",
"445 695 OFFCURVE",
"436 543 OFFCURVE",
"433 464 CURVE SMOOTH",
"431 424 OFFCURVE",
"431 385 OFFCURVE",
"430 345 CURVE",
"385 342 OFFCURVE",
"338 348 OFFCURVE",
"298 372 CURVE SMOOTH",
"257 396 OFFCURVE",
"230 437 OFFCURVE",
"230 478 CURVE SMOOTH",
"230 503 OFFCURVE",
"240 527 OFFCURVE",
"263 548 CURVE SMOOTH",
"269 553 OFFCURVE",
"276 556 OFFCURVE",
"282 562 CURVE SMOOTH",
"289 570 OFFCURVE",
"291 577 OFFCURVE",
"291 584 CURVE SMOOTH",
"291 597 OFFCURVE",
"281 606 OFFCURVE",
"268 606 CURVE SMOOTH",
"264 606 OFFCURVE",
"259 605 OFFCURVE",
"255 603 CURVE SMOOTH",
"240 597 OFFCURVE",
"212 566 OFFCURVE",
"204 553 CURVE SMOOTH",
"188 529 OFFCURVE",
"181 504 OFFCURVE",
"181 480 CURVE SMOOTH",
"181 420 OFFCURVE",
"222 364 OFFCURVE",
"273 331 CURVE SMOOTH",
"314 305 OFFCURVE",
"357 296 OFFCURVE",
"403 296 CURVE SMOOTH",
"412 296 OFFCURVE",
"421 296 OFFCURVE",
"430 297 CURVE",
"428 221 OFFCURVE",
"425 115 OFFCURVE",
"384 47 CURVE",
"325 82 OFFCURVE",
"199 165 OFFCURVE",
"108 165 CURVE SMOOTH",
"80 165 OFFCURVE",
"55 157 OFFCURVE",
"37 137 CURVE SMOOTH",
"20 119 OFFCURVE",
"13 103 OFFCURVE",
"13 82 CURVE SMOOTH",
"13 74 OFFCURVE",
"15 64 OFFCURVE",
"17 53 CURVE SMOOTH",
"34 -26 OFFCURVE",
"129 -65 OFFCURVE",
"198 -74 CURVE SMOOTH",
"211 -76 OFFCURVE",
"225 -76 OFFCURVE",
"237 -76 CURVE SMOOTH",
"302 -76 OFFCURVE",
"357 -55 OFFCURVE",
"396 -17 CURVE",
"483 -67 OFFCURVE",
"601 -118 OFFCURVE",
"697 -118 CURVE SMOOTH",
"707 -118 OFFCURVE",
"717 -117 OFFCURVE",
"726 -116 CURVE SMOOTH"
);
},
{
closed = 1;
nodes = (
"153 -19 OFFCURVE",
"82 8 OFFCURVE",
"66 57 CURVE SMOOTH",
"64 64 OFFCURVE",
"63 72 OFFCURVE",
"63 81 CURVE SMOOTH",
"63 94 OFFCURVE",
"65 107 OFFCURVE",
"69 111 CURVE SMOOTH",
"75 118 OFFCURVE",
"85 121 OFFCURVE",
"97 121 CURVE SMOOTH",
"153 121 OFFCURVE",
"260 64 OFFCURVE",
"288 48 CURVE SMOOTH",
"311 35 OFFCURVE",
"317 31 OFFCURVE",
"352 9 CURVE",
"324 -15 OFFCURVE",
"286 -27 OFFCURVE",
"238 -27 CURVE SMOOTH",
"227 -27 OFFCURVE",
"215 -26 OFFCURVE",
"203 -25 CURVE SMOOTH"
);
},
{
closed = 1;
nodes = (
"482 453 OFFCURVE",
"488 623 OFFCURVE",
"531 668 CURVE SMOOTH",
"540 677 OFFCURVE",
"551 681 OFFCURVE",
"564 681 CURVE SMOOTH",
"583 681 OFFCURVE",
"604 672 OFFCURVE",
"619 660 CURVE SMOOTH",
"644 639 OFFCURVE",
"654 606 OFFCURVE",
"654 572 CURVE SMOOTH",
"654 544 OFFCURVE",
"647 514 OFFCURVE",
"635 490 CURVE SMOOTH",
"599 416 OFFCURVE",
"547 371 OFFCURVE",
"479 353 CURVE"
);
}
);
};
layerId = "2ADFC918-CAA7-4AF7-825A-5AAC412EF250";
paths = (
{
closed = 1;
nodes = (
"707 -98 OFFCURVE",
"717 -97 OFFCURVE",
"726 -96 CURVE SMOOTH",
"754 -93 OFFCURVE",
"784 -71 OFFCURVE",
"784 -40 CURVE SMOOTH",
"784 -35 OFFCURVE",
"782 -28 OFFCURVE",
"780 -22 CURVE SMOOTH",
"776 -12 OFFCURVE",
"768 -7 OFFCURVE",
"760 -7 CURVE SMOOTH",
"747 -7 OFFCURVE",
"732 -21 OFFCURVE",
"734 -39 CURVE",
"732 -44 OFFCURVE",
"727 -46 OFFCURVE",
"719 -47 CURVE SMOOTH",
"711 -48 OFFCURVE",
"703 -48 OFFCURVE",
"695 -48 CURVE SMOOTH",
"606 -48 OFFCURVE",
"511 -4 OFFCURVE",
"428 42 CURVE",
"448 74 OFFCURVE",
"461 112 OFFCURVE",
"467 156 CURVE SMOOTH",
"474 211 OFFCURVE",
"476 268 OFFCURVE",
"478 323 CURVE",
"565 342 OFFCURVE",
"635 398 OFFCURVE",
"678 488 CURVE SMOOTH",
"693 519 OFFCURVE",
"702 556 OFFCURVE",
"702 592 CURVE SMOOTH",
"702 635 OFFCURVE",
"689 678 OFFCURVE",
"657 709 CURVE SMOOTH",
"632 732 OFFCURVE",
"604 744 OFFCURVE",
"573 744 CURVE SMOOTH",
"563 744 OFFCURVE",
"552 743 OFFCURVE",
"541 740 CURVE SMOOTH",
"445 715 OFFCURVE",
"436 563 OFFCURVE",
"433 484 CURVE SMOOTH",
"431 444 OFFCURVE",
"431 405 OFFCURVE",
"430 365 CURVE",
"385 362 OFFCURVE",
"338 368 OFFCURVE",
"298 392 CURVE SMOOTH",
"257 416 OFFCURVE",
"230 457 OFFCURVE",
"230 498 CURVE SMOOTH",
"230 523 OFFCURVE",
"240 547 OFFCURVE",
"263 568 CURVE SMOOTH",
"269 573 OFFCURVE",
"276 576 OFFCURVE",
"282 582 CURVE SMOOTH",
"289 590 OFFCURVE",
"291 597 OFFCURVE",
"291 604 CURVE SMOOTH",
"291 617 OFFCURVE",
"281 626 OFFCURVE",
"268 626 CURVE SMOOTH",
"264 626 OFFCURVE",
"259 625 OFFCURVE",
"255 623 CURVE SMOOTH",
"240 617 OFFCURVE",
"212 586 OFFCURVE",
"204 573 CURVE SMOOTH",
"188 549 OFFCURVE",
"181 524 OFFCURVE",
"181 500 CURVE SMOOTH",
"181 440 OFFCURVE",
"222 384 OFFCURVE",
"273 351 CURVE SMOOTH",
"314 325 OFFCURVE",
"357 316 OFFCURVE",
"403 316 CURVE SMOOTH",
"412 316 OFFCURVE",
"421 316 OFFCURVE",
"430 317 CURVE",
"428 241 OFFCURVE",
"425 135 OFFCURVE",
"384 67 CURVE",
"325 102 OFFCURVE",
"199 185 OFFCURVE",
"108 185 CURVE SMOOTH",
"80 185 OFFCURVE",
"55 177 OFFCURVE",
"37 157 CURVE SMOOTH",
"20 139 OFFCURVE",
"13 123 OFFCURVE",
"13 102 CURVE SMOOTH",
"13 94 OFFCURVE",
"15 84 OFFCURVE",
"17 73 CURVE SMOOTH",
"34 -6 OFFCURVE",
"129 -45 OFFCURVE",
"198 -54 CURVE SMOOTH",
"211 -56 OFFCURVE",
"225 -56 OFFCURVE",
"237 -56 CURVE SMOOTH",
"302 -56 OFFCURVE",
"357 -35 OFFCURVE",
"396 3 CURVE",
"483 -47 OFFCURVE",
"601 -98 OFFCURVE",
"697 -98 CURVE SMOOTH"
);
},
{
closed = 1;
nodes = (
"227 -7 OFFCURVE",
"215 -6 OFFCURVE",
"203 -5 CURVE SMOOTH",
"153 1 OFFCURVE",
"82 28 OFFCURVE",
"66 77 CURVE SMOOTH",
"64 84 OFFCURVE",
"63 92 OFFCURVE",
"63 101 CURVE SMOOTH",
"63 114 OFFCURVE",
"65 127 OFFCURVE",
"69 131 CURVE SMOOTH",
"75 138 OFFCURVE",
"85 141 OFFCURVE",
"97 141 CURVE SMOOTH",
"153 141 OFFCURVE",
"260 84 OFFCURVE",
"288 68 CURVE SMOOTH",
"311 55 OFFCURVE",
"317 51 OFFCURVE",
"352 29 CURVE",
"324 5 OFFCURVE",
"286 -7 OFFCURVE",
"238 -7 CURVE SMOOTH"
);
},
{
closed = 1;
nodes = (
"482 473 OFFCURVE",
"488 643 OFFCURVE",
"531 688 CURVE SMOOTH",
"540 697 OFFCURVE",
"551 701 OFFCURVE",
"564 701 CURVE SMOOTH",
"583 701 OFFCURVE",
"604 692 OFFCURVE",
"619 680 CURVE SMOOTH",
"644 659 OFFCURVE",
"654 626 OFFCURVE",
"654 592 CURVE SMOOTH",
"654 564 OFFCURVE",
"647 534 OFFCURVE",
"635 510 CURVE SMOOTH",
"599 436 OFFCURVE",
"547 391 OFFCURVE",
"479 373 CURVE"
);
}
);
width = 724;
}
);
leftKerningGroup = L;
note = L;
rightKerningGroup = L;
unicode = 004C;
},
{
glyphname = M;
lastChange = "2021-11-12 19:46:19 +0000";
layers = (
{
background = {
paths = (
{
closed = 1;
nodes = (
"1143 -93 OFFCURVE",
"1162 -89 OFFCURVE",
"1168 -84 CURVE SMOOTH",
"1176 -76 OFFCURVE",
"1180 -69 OFFCURVE",
"1180 -63 CURVE SMOOTH",
"1180 -49 OFFCURVE",
"1161 -42 OFFCURVE",
"1147 -42 CURVE SMOOTH",
"1139 -42 OFFCURVE",
"1132 -44 OFFCURVE",
"1130 -48 CURVE",
"1130 -47 OFFCURVE",
"1129 -46 OFFCURVE",
"1127 -45 CURVE",
"1073 -36 OFFCURVE",
"1066 47 OFFCURVE",
"1066 110 CURVE SMOOTH",
"1066 132 OFFCURVE",
"1067 151 OFFCURVE",
"1067 164 CURVE SMOOTH",
"1069 257 OFFCURVE",
"1077 348 OFFCURVE",
"1077 441 CURVE SMOOTH",
"1077 529 OFFCURVE",
"1064 662 OFFCURVE",
"945 662 CURVE SMOOTH",
"849 662 OFFCURVE",
"805 573 OFFCURVE",
"779 494 CURVE SMOOTH",
"777 488 LINE",
"767 577 OFFCURVE",
"735 661 OFFCURVE",
"634 661 CURVE SMOOTH",
"544 661 OFFCURVE",
"491 572 OFFCURVE",
"467 497 CURVE",
"444 616 OFFCURVE",
"382 722 OFFCURVE",
"238 722 CURVE SMOOTH",
"206 722 OFFCURVE",
"176 716 OFFCURVE",
"148 703 CURVE SMOOTH",
"63 661 OFFCURVE",
"20 570 OFFCURVE",
"20 481 CURVE SMOOTH",
"20 376 OFFCURVE",
"81 274 OFFCURVE",
"205 265 CURVE SMOOTH",
"239 262 OFFCURVE",
"275 269 OFFCURVE",
"306 285 CURVE SMOOTH",
"360 313 OFFCURVE",
"387 371 OFFCURVE",
"387 426 CURVE SMOOTH",
"387 500 OFFCURVE",
"340 570 OFFCURVE",
"249 566 CURVE SMOOTH",
"242 565 OFFCURVE",
"211 562 OFFCURVE",
"203 557 CURVE SMOOTH",
"192 551 OFFCURVE",
"186 542 OFFCURVE",
"186 533 CURVE SMOOTH",
"186 521 OFFCURVE",
"196 510 OFFCURVE",
"215 510 CURVE SMOOTH",
"224 510 OFFCURVE",
"231 515 OFFCURVE",
"239 516 CURVE SMOOTH",
"246 517 OFFCURVE",
"252 518 OFFCURVE",
"258 518 CURVE SMOOTH",
"310 518 OFFCURVE",
"338 473 OFFCURVE",
"338 425 CURVE SMOOTH",
"338 388 OFFCURVE",
"320 349 OFFCURVE",
"283 329 CURVE SMOOTH",
"264 320 OFFCURVE",
"240 315 OFFCURVE",
"218 315 CURVE SMOOTH",
"121 315 OFFCURVE",
"69 391 OFFCURVE",
"69 480 CURVE SMOOTH",
"69 556 OFFCURVE",
"102 627 OFFCURVE",
"172 660 CURVE SMOOTH",
"188 668 OFFCURVE",
"206 674 OFFCURVE",
"223 674 CURVE SMOOTH",
"390 674 OFFCURVE",
"421 535 OFFCURVE",
"429 391 CURVE SMOOTH",
"431 353 OFFCURVE",
"432 314 OFFCURVE",
"432 276 CURVE SMOOTH",
"432 214 OFFCURVE",
"430 151 OFFCURVE",
"426 89 CURVE SMOOTH",
"425 64 OFFCURVE",
"423 39 OFFCURVE",
"421 14 CURVE SMOOTH",
"420 1 LINE SMOOTH",
"420 0 OFFCURVE",
"419 -2 OFFCURVE",
"421 -4 CURVE",
"429 -17 OFFCURVE",
"436 -25 OFFCURVE",
"444 -25 CURVE SMOOTH",
"451 -25 OFFCURVE",
"459 -20 OFFCURVE",
"468 -8 CURVE",
"468 -8 OFFCURVE",
"469 -6 OFFCURVE",
"470 -1 CURVE SMOOTH",
"474 36 OFFCURVE",
"492 330 OFFCURVE",
"493 356 CURVE SMOOTH",
"499 454 OFFCURVE",
"529 611 OFFCURVE",
"648 611 CURVE SMOOTH",
"662 611 OFFCURVE",
"670 610 OFFCURVE",
"681 602 CURVE SMOOTH",
"722 572 OFFCURVE",
"729 467 OFFCURVE",
"729 380 CURVE SMOOTH",
"729 337 OFFCURVE",
"727 298 OFFCURVE",
"727 275 CURVE SMOOTH",
"725 204 OFFCURVE",
"725 134 OFFCURVE",
"722 64 CURVE SMOOTH",
"722 60 OFFCURVE",
"720 27 OFFCURVE",
"720 10 CURVE SMOOTH",
"720 4 OFFCURVE",
"721 0 OFFCURVE",
"721 -1 CURVE",
"729 -13 OFFCURVE",
"736 -21 OFFCURVE",
"744 -21 CURVE SMOOTH",
"751 -21 OFFCURVE",
"758 -15 OFFCURVE",
"767 -2 CURVE",
"770 1 OFFCURVE",
"774 125 OFFCURVE",
"774 134 CURVE SMOOTH",
"780 245 OFFCURVE",
"794 388 OFFCURVE",
"826 479 CURVE SMOOTH",
"840 518 OFFCURVE",
"865 590 OFFCURVE",
"907 607 CURVE SMOOTH",
"920 612 OFFCURVE",
"937 613 OFFCURVE",
"953 613 CURVE SMOOTH",
"1021 613 OFFCURVE",
"1028 513 OFFCURVE",
"1028 448 CURVE SMOOTH",
"1028 416 LINE SMOOTH",
"1027 332 OFFCURVE",
"1019 248 OFFCURVE",
"1018 164 CURVE SMOOTH",
"1018 143 OFFCURVE",
"1017 120 OFFCURVE",
"1017 97 CURVE SMOOTH",
"1017 62 OFFCURVE",
"1019 26 OFFCURVE",
"1029 -4 CURVE SMOOTH",
"1043 -47 OFFCURVE",
"1081 -98 OFFCURVE",
"1136 -94 CURVE SMOOTH"
);
}
);
};
layerId = "2ADFC918-CAA7-4AF7-825A-5AAC412EF250";
paths = (
{
closed = 1;
nodes = (
"1143 -73 OFFCURVE",
"1162 -69 OFFCURVE",
"1168 -64 CURVE SMOOTH",
"1176 -56 OFFCURVE",
"1180 -49 OFFCURVE",
"1180 -43 CURVE SMOOTH",
"1180 -29 OFFCURVE",
"1161 -22 OFFCURVE",
"1147 -22 CURVE SMOOTH",
"1139 -22 OFFCURVE",
"1132 -24 OFFCURVE",
"1130 -28 CURVE",
"1130 -27 OFFCURVE",
"1129 -26 OFFCURVE",
"1127 -25 CURVE",
"1073 -16 OFFCURVE",
"1066 67 OFFCURVE",
"1066 130 CURVE SMOOTH",
"1066 152 OFFCURVE",
"1067 171 OFFCURVE",
"1067 184 CURVE SMOOTH",
"1069 277 OFFCURVE",
"1077 368 OFFCURVE",
"1077 461 CURVE SMOOTH",
"1077 549 OFFCURVE",
"1064 682 OFFCURVE",
"945 682 CURVE SMOOTH",
"849 682 OFFCURVE",
"805 593 OFFCURVE",
"779 514 CURVE SMOOTH",
"777 508 LINE",
"767 597 OFFCURVE",
"735 681 OFFCURVE",
"634 681 CURVE SMOOTH",
"544 681 OFFCURVE",
"491 592 OFFCURVE",
"467 517 CURVE",
"444 636 OFFCURVE",
"382 742 OFFCURVE",
"238 742 CURVE SMOOTH",
"206 742 OFFCURVE",
"176 736 OFFCURVE",
"148 723 CURVE SMOOTH",
"63 681 OFFCURVE",
"20 590 OFFCURVE",
"20 501 CURVE SMOOTH",
"20 392 OFFCURVE",
"86 284 OFFCURVE",
"221 284 CURVE SMOOTH",
"250 284 OFFCURVE",
"280 291 OFFCURVE",
"306 305 CURVE SMOOTH",
"360 333 OFFCURVE",
"387 391 OFFCURVE",
"387 446 CURVE SMOOTH",
"387 520 OFFCURVE",
"340 590 OFFCURVE",
"249 586 CURVE SMOOTH",
"242 585 OFFCURVE",
"211 582 OFFCURVE",
"203 577 CURVE SMOOTH",
"192 571 OFFCURVE",
"186 562 OFFCURVE",
"186 553 CURVE SMOOTH",
"186 541 OFFCURVE",
"196 530 OFFCURVE",
"215 530 CURVE SMOOTH",
"224 530 OFFCURVE",
"231 535 OFFCURVE",
"239 536 CURVE SMOOTH",
"246 537 OFFCURVE",
"252 538 OFFCURVE",
"258 538 CURVE SMOOTH",
"310 538 OFFCURVE",
"338 493 OFFCURVE",
"338 445 CURVE SMOOTH",
"338 408 OFFCURVE",
"320 369 OFFCURVE",
"283 349 CURVE SMOOTH",
"264 340 OFFCURVE",
"240 335 OFFCURVE",
"218 335 CURVE SMOOTH",
"121 335 OFFCURVE",
"69 411 OFFCURVE",
"69 500 CURVE SMOOTH",
"69 576 OFFCURVE",
"102 647 OFFCURVE",
"172 680 CURVE SMOOTH",
"188 688 OFFCURVE",
"206 694 OFFCURVE",
"223 694 CURVE SMOOTH",
"390 694 OFFCURVE",
"421 555 OFFCURVE",
"429 411 CURVE SMOOTH",
"431 373 OFFCURVE",
"432 334 OFFCURVE",
"432 296 CURVE SMOOTH",
"432 234 OFFCURVE",
"430 171 OFFCURVE",
"426 109 CURVE SMOOTH",
"425 84 OFFCURVE",
"423 59 OFFCURVE",
"421 34 CURVE SMOOTH",
"420 21 LINE SMOOTH",
"420 20 OFFCURVE",
"419 18 OFFCURVE",
"421 16 CURVE",
"429 3 OFFCURVE",
"436 -5 OFFCURVE",
"444 -5 CURVE SMOOTH",
"451 -5 OFFCURVE",
"459 0 OFFCURVE",
"468 12 CURVE",
"468 12 OFFCURVE",
"469 14 OFFCURVE",
"470 19 CURVE SMOOTH",
"474 56 OFFCURVE",
"492 350 OFFCURVE",
"493 376 CURVE SMOOTH",
"499 474 OFFCURVE",
"529 631 OFFCURVE",
"648 631 CURVE SMOOTH",
"662 631 OFFCURVE",
"670 630 OFFCURVE",
"681 622 CURVE SMOOTH",
"722 592 OFFCURVE",
"729 487 OFFCURVE",
"729 400 CURVE SMOOTH",
"729 357 OFFCURVE",
"727 318 OFFCURVE",
"727 295 CURVE SMOOTH",
"725 224 OFFCURVE",
"725 154 OFFCURVE",
"722 84 CURVE SMOOTH",
"722 80 OFFCURVE",
"720 47 OFFCURVE",
"720 30 CURVE SMOOTH",
"720 24 OFFCURVE",
"721 20 OFFCURVE",
"721 19 CURVE",
"729 7 OFFCURVE",
"736 -1 OFFCURVE",
"744 -1 CURVE SMOOTH",
"751 -1 OFFCURVE",
"758 5 OFFCURVE",
"767 18 CURVE",
"770 21 OFFCURVE",
"774 145 OFFCURVE",
"774 154 CURVE SMOOTH",
"780 265 OFFCURVE",
"794 408 OFFCURVE",
"826 499 CURVE SMOOTH",
"840 538 OFFCURVE",
"865 610 OFFCURVE",
"907 627 CURVE SMOOTH",
"920 632 OFFCURVE",
"937 633 OFFCURVE",
"953 633 CURVE SMOOTH",
"1021 633 OFFCURVE",
"1028 533 OFFCURVE",
"1028 468 CURVE SMOOTH",
"1028 436 LINE SMOOTH",
"1027 352 OFFCURVE",
"1019 268 OFFCURVE",
"1018 184 CURVE SMOOTH",
"1018 163 OFFCURVE",
"1017 140 OFFCURVE",
"1017 117 CURVE SMOOTH",
"1017 82 OFFCURVE",
"1019 46 OFFCURVE",
"1029 16 CURVE SMOOTH",
"1043 -27 OFFCURVE",
"1081 -78 OFFCURVE",
"1136 -74 CURVE SMOOTH"
);
}
);
width = 1181;
}
);
leftKerningGroup = M;
note = M;
rightKerningGroup = M;
unicode = 004D;
},
{
glyphname = N;
lastChange = "2021-11-12 19:44:24 +0000";
layers = (
{
anchors = (
{
name = bottom;
position = "{678, 0}";
},
{
name = top;
position = "{761, 740}";
}
);
background = {
anchors = (
{
name = bottom;
position = "{628, 0}";
},
{
name = top;
position = "{755, 752}";
}
);
paths = (
{
closed = 1;
nodes = (
"935 -95 OFFCURVE",
"939 -94 OFFCURVE",
"943 -92 CURVE SMOOTH",
"952 -88 OFFCURVE",
"961 -79 OFFCURVE",
"961 -68 CURVE SMOOTH",
"961 -63 OFFCURVE",
"959 -58 OFFCURVE",
"954 -53 CURVE SMOOTH",
"948 -46 OFFCURVE",
"932 -46 OFFCURVE",
"925 -46 CURVE SMOOTH",
"900 -46 OFFCURVE",
"895 6 OFFCURVE",
"895 18 CURVE SMOOTH",
"895 57 OFFCURVE",
"900 98 OFFCURVE",
"904 137 CURVE SMOOTH",
"912 205 OFFCURVE",
"922 272 OFFCURVE",
"929 340 CURVE SMOOTH",
"934 382 OFFCURVE",
"938 425 OFFCURVE",
"938 468 CURVE SMOOTH",
"938 592 OFFCURVE",
"880 717 OFFCURVE",
"739 717 CURVE SMOOTH",
"630 717 OFFCURVE",
"554 615 OFFCURVE",
"505 507 CURVE",
"478 633 OFFCURVE",
"388 729 OFFCURVE",
"246 729 CURVE SMOOTH",
"210 729 OFFCURVE",
"174 721 OFFCURVE",
"143 704 CURVE SMOOTH",
"61 660 OFFCURVE",
"20 573 OFFCURVE",
"20 481 CURVE SMOOTH",
"20 373 OFFCURVE",
"84 280 OFFCURVE",
"197 263 CURVE SMOOTH",
"207 261 OFFCURVE",
"218 261 OFFCURVE",
"229 261 CURVE SMOOTH",
"259 261 OFFCURVE",
"290 267 OFFCURVE",
"317 281 CURVE SMOOTH",
"374 310 OFFCURVE",
"401 370 OFFCURVE",
"401 427 CURVE SMOOTH",
"401 500 OFFCURVE",
"356 569 OFFCURVE",
"269 569 CURVE SMOOTH",
"264 569 OFFCURVE",
"224 566 OFFCURVE",
"212 560 CURVE SMOOTH",
"201 554 OFFCURVE",
"195 544 OFFCURVE",
"195 534 CURVE SMOOTH",
"195 523 OFFCURVE",
"203 513 OFFCURVE",
"222 513 CURVE SMOOTH",
"234 513 OFFCURVE",
"245 517 OFFCURVE",
"257 520 CURVE SMOOTH",
"261 521 OFFCURVE",
"266 521 OFFCURVE",
"270 521 CURVE SMOOTH",
"316 521 OFFCURVE",
"354 471 OFFCURVE",
"354 418 CURVE SMOOTH",
"354 383 OFFCURVE",
"337 348 OFFCURVE",
"295 326 CURVE SMOOTH",
"275 316 OFFCURVE",
"250 311 OFFCURVE",
"226 311 CURVE SMOOTH",
"128 311 OFFCURVE",
"69 389 OFFCURVE",
"69 481 CURVE SMOOTH",
"69 558 OFFCURVE",
"102 623 OFFCURVE",
"168 660 CURVE SMOOTH",
"189 672 OFFCURVE",
"216 680 OFFCURVE",
"240 680 CURVE SMOOTH",
"386 680 OFFCURVE",
"456 574 OFFCURVE",
"465 437 CURVE SMOOTH",
"467 406 LINE",
"447 344 OFFCURVE",
"433 280 OFFCURVE",
"420 216 CURVE SMOOTH",
"414 190 OFFCURVE",
"400 124 OFFCURVE",
"400 66 CURVE SMOOTH",
"400 10 OFFCURVE",
"414 -40 OFFCURVE",
"464 -40 CURVE SMOOTH",
"525 -40 OFFCURVE",
"535 45 OFFCURVE",
"535 113 CURVE SMOOTH",
"535 138 OFFCURVE",
"534 160 OFFCURVE",
"533 175 CURVE SMOOTH",
"529 245 OFFCURVE",
"521 314 OFFCURVE",
"517 385 CURVE",
"560 506 OFFCURVE",
"637 669 OFFCURVE",
"732 669 CURVE SMOOTH",
"852 669 OFFCURVE",
"889 578 OFFCURVE",
"889 468 CURVE SMOOTH",
"889 427 OFFCURVE",
"885 385 OFFCURVE",
"880 345 CURVE SMOOTH",
"872 277 OFFCURVE",
"862 210 OFFCURVE",
"855 142 CURVE SMOOTH",
"850 101 OFFCURVE",
"846 59 OFFCURVE",
"846 18 CURVE SMOOTH",
"846 -26 OFFCURVE",
"868 -95 OFFCURVE",
"931 -95 CURVE SMOOTH"
);
},
{
closed = 1;
nodes = (
"461 8 OFFCURVE",
"458 18 OFFCURVE",
"457 21 CURVE SMOOTH",
"455 32 OFFCURVE",
"454 46 OFFCURVE",
"454 61 CURVE SMOOTH",
"454 120 OFFCURVE",
"468 201 OFFCURVE",
"476 241 CURVE",
"476 220 OFFCURVE",
"477 199 OFFCURVE",
"477 178 CURVE SMOOTH",
"477 149 OFFCURVE",
"476 121 OFFCURVE",
"475 93 CURVE SMOOTH",
"475 88 OFFCURVE",
"475 65 OFFCURVE",
"472 44 CURVE SMOOTH",
"470 26 OFFCURVE",
"470 8 OFFCURVE",
"464 8 CURVE SMOOTH"
);
}
);
};
layerId = "2ADFC918-CAA7-4AF7-825A-5AAC412EF250";
paths = (
{
closed = 1;
nodes = (
"935 -75 OFFCURVE",
"939 -74 OFFCURVE",
"943 -72 CURVE SMOOTH",
"952 -68 OFFCURVE",
"961 -59 OFFCURVE",
"961 -48 CURVE SMOOTH",
"961 -43 OFFCURVE",
"959 -38 OFFCURVE",
"954 -33 CURVE SMOOTH",
"948 -26 OFFCURVE",
"932 -26 OFFCURVE",
"925 -26 CURVE SMOOTH",
"900 -26 OFFCURVE",
"895 26 OFFCURVE",
"895 38 CURVE SMOOTH",
"895 77 OFFCURVE",
"900 118 OFFCURVE",
"904 157 CURVE SMOOTH",
"912 225 OFFCURVE",
"922 292 OFFCURVE",
"929 360 CURVE SMOOTH",
"934 402 OFFCURVE",
"938 445 OFFCURVE",
"938 488 CURVE SMOOTH",
"938 612 OFFCURVE",
"880 737 OFFCURVE",
"739 737 CURVE SMOOTH",
"630 737 OFFCURVE",
"554 635 OFFCURVE",
"505 527 CURVE",
"478 653 OFFCURVE",
"388 749 OFFCURVE",
"246 749 CURVE SMOOTH",
"210 749 OFFCURVE",
"174 741 OFFCURVE",
"143 724 CURVE SMOOTH",
"61 680 OFFCURVE",
"20 593 OFFCURVE",
"20 501 CURVE SMOOTH",
"20 393 OFFCURVE",
"84 300 OFFCURVE",
"197 283 CURVE SMOOTH",
"207 281 OFFCURVE",
"218 281 OFFCURVE",
"229 281 CURVE SMOOTH",
"259 281 OFFCURVE",
"290 287 OFFCURVE",
"317 301 CURVE SMOOTH",
"374 330 OFFCURVE",
"401 390 OFFCURVE",
"401 447 CURVE SMOOTH",
"401 520 OFFCURVE",
"356 589 OFFCURVE",
"269 589 CURVE SMOOTH",
"264 589 OFFCURVE",
"224 586 OFFCURVE",
"212 580 CURVE SMOOTH",
"201 574 OFFCURVE",
"195 564 OFFCURVE",
"195 554 CURVE SMOOTH",
"195 543 OFFCURVE",
"203 533 OFFCURVE",
"222 533 CURVE SMOOTH",
"234 533 OFFCURVE",
"245 537 OFFCURVE",
"257 540 CURVE SMOOTH",
"261 541 OFFCURVE",
"266 541 OFFCURVE",
"270 541 CURVE SMOOTH",
"316 541 OFFCURVE",
"354 491 OFFCURVE",
"354 438 CURVE SMOOTH",
"354 403 OFFCURVE",
"337 368 OFFCURVE",
"295 346 CURVE SMOOTH",
"275 336 OFFCURVE",
"250 331 OFFCURVE",
"226 331 CURVE SMOOTH",
"128 331 OFFCURVE",
"69 409 OFFCURVE",
"69 501 CURVE SMOOTH",
"69 578 OFFCURVE",
"102 643 OFFCURVE",
"168 680 CURVE SMOOTH",
"189 692 OFFCURVE",
"216 700 OFFCURVE",
"240 700 CURVE SMOOTH",
"386 700 OFFCURVE",
"456 594 OFFCURVE",
"465 457 CURVE SMOOTH",
"467 426 LINE",
"447 364 OFFCURVE",
"433 300 OFFCURVE",
"420 236 CURVE SMOOTH",
"414 210 OFFCURVE",
"400 144 OFFCURVE",
"400 86 CURVE SMOOTH",
"400 30 OFFCURVE",
"414 -20 OFFCURVE",
"464 -20 CURVE SMOOTH",
"525 -20 OFFCURVE",
"535 65 OFFCURVE",
"535 133 CURVE SMOOTH",
"535 158 OFFCURVE",
"534 180 OFFCURVE",
"533 195 CURVE SMOOTH",
"529 265 OFFCURVE",
"521 334 OFFCURVE",
"517 405 CURVE",
"560 526 OFFCURVE",
"637 689 OFFCURVE",
"732 689 CURVE SMOOTH",
"852 689 OFFCURVE",
"889 598 OFFCURVE",
"889 488 CURVE SMOOTH",
"889 447 OFFCURVE",
"885 405 OFFCURVE",
"880 365 CURVE SMOOTH",
"872 297 OFFCURVE",
"862 230 OFFCURVE",
"855 162 CURVE SMOOTH",
"850 121 OFFCURVE",
"846 79 OFFCURVE",
"846 38 CURVE SMOOTH",
"846 -6 OFFCURVE",
"868 -75 OFFCURVE",
"931 -75 CURVE SMOOTH"
);
},
{
closed = 1;
nodes = (
"461 28 OFFCURVE",
"458 38 OFFCURVE",
"457 41 CURVE SMOOTH",
"455 52 OFFCURVE",
"454 66 OFFCURVE",
"454 81 CURVE SMOOTH",
"454 140 OFFCURVE",
"468 221 OFFCURVE",
"476 261 CURVE",
"476 240 OFFCURVE",
"477 219 OFFCURVE",
"477 198 CURVE SMOOTH",
"477 169 OFFCURVE",
"476 141 OFFCURVE",
"475 113 CURVE SMOOTH",
"475 108 OFFCURVE",
"475 85 OFFCURVE",
"472 64 CURVE SMOOTH",
"470 46 OFFCURVE",
"470 28 OFFCURVE",
"464 28 CURVE SMOOTH"
);
}
);
width = 1008;
}
);
leftKerningGroup = N;
leftMetricsKey = M;
note = N;
rightKerningGroup = N;
unicode = 004E;
},
{
glyphname = Eng;
lastChange = "2021-11-12 16:24:28 +0000";
layers = (
{
background = {
anchors = (
{
name = bottom;
position = "{1200, -43}";
},
{
name = top;
position = "{1200, 705}";
}
);
paths = (
{
closed = 1;
nodes = (
"758 -379 OFFCURVE",
"806 -76 OFFCURVE",
"849 340 CURVE SMOOTH",
"854 382 OFFCURVE",
"858 425 OFFCURVE",
"858 468 CURVE SMOOTH",
"858 593 OFFCURVE",
"799 720 OFFCURVE",
"654 717 CURVE SMOOTH",
"547 715 OFFCURVE",
"473 613 OFFCURVE",
"425 507 CURVE",
"398 633 OFFCURVE",
"308 729 OFFCURVE",
"166 729 CURVE SMOOTH",
"130 729 OFFCURVE",
"94 721 OFFCURVE",
"63 704 CURVE SMOOTH",
"-19 660 OFFCURVE",
"-60 573 OFFCURVE",
"-60 481 CURVE SMOOTH",
"-60 373 OFFCURVE",
"4 280 OFFCURVE",
"117 263 CURVE SMOOTH",
"127 261 OFFCURVE",
"138 261 OFFCURVE",
"149 261 CURVE SMOOTH",
"179 261 OFFCURVE",
"210 267 OFFCURVE",
"237 281 CURVE SMOOTH",
"294 310 OFFCURVE",
"321 370 OFFCURVE",
"321 427 CURVE SMOOTH",
"321 500 OFFCURVE",
"276 569 OFFCURVE",
"189 569 CURVE SMOOTH",
"184 569 OFFCURVE",
"144 566 OFFCURVE",
"132 560 CURVE SMOOTH",
"121 554 OFFCURVE",
"115 544 OFFCURVE",
"115 534 CURVE SMOOTH",
"115 523 OFFCURVE",
"123 513 OFFCURVE",
"142 513 CURVE SMOOTH",
"154 513 OFFCURVE",
"165 517 OFFCURVE",
"177 520 CURVE SMOOTH",
"181 521 OFFCURVE",
"186 521 OFFCURVE",
"190 521 CURVE SMOOTH",
"236 521 OFFCURVE",
"274 471 OFFCURVE",
"274 418 CURVE SMOOTH",
"274 383 OFFCURVE",
"257 348 OFFCURVE",
"215 326 CURVE SMOOTH",
"195 316 OFFCURVE",
"170 311 OFFCURVE",
"146 311 CURVE SMOOTH",
"48 311 OFFCURVE",
"-11 389 OFFCURVE",
"-11 481 CURVE SMOOTH",
"-11 558 OFFCURVE",
"22 623 OFFCURVE",
"88 660 CURVE SMOOTH",
"109 672 OFFCURVE",
"136 680 OFFCURVE",
"160 680 CURVE SMOOTH",
"306 680 OFFCURVE",
"376 574 OFFCURVE",
"385 437 CURVE SMOOTH",
"387 406 LINE",
"367 344 OFFCURVE",
"353 280 OFFCURVE",
"340 216 CURVE SMOOTH",
"334 190 OFFCURVE",
"320 124 OFFCURVE",
"320 66 CURVE SMOOTH",
"320 10 OFFCURVE",
"334 -40 OFFCURVE",
"384 -40 CURVE SMOOTH",
"445 -40 OFFCURVE",
"455 45 OFFCURVE",
"455 113 CURVE SMOOTH",
"455 138 OFFCURVE",
"454 160 OFFCURVE",
"453 175 CURVE SMOOTH",
"449 245 OFFCURVE",
"441 314 OFFCURVE",
"437 385 CURVE",
"480 506 OFFCURVE",
"557 669 OFFCURVE",
"652 669 CURVE SMOOTH",
"772 669 OFFCURVE",
"809 578 OFFCURVE",
"809 468 CURVE SMOOTH",
"809 427 OFFCURVE",
"805 385 OFFCURVE",
"800 345 CURVE SMOOTH",
"755 -34 OFFCURVE",
"724 -329 OFFCURVE",
"478 -329 CURVE SMOOTH",
"385 -329 OFFCURVE",
"327 -278 OFFCURVE",
"327 -207 CURVE SMOOTH",
"327 -188 OFFCURVE",
"332 -167 OFFCURVE",
"341 -145 CURVE SMOOTH",
"344 -139 OFFCURVE",
"345 -134 OFFCURVE",
"345 -129 CURVE SMOOTH",
"345 -114 OFFCURVE",
"334 -103 OFFCURVE",
"322 -103 CURVE SMOOTH",
"312 -103 OFFCURVE",
"302 -109 OFFCURVE",
"295 -125 CURVE SMOOTH",
"283 -154 OFFCURVE",
"277 -181 OFFCURVE",
"277 -208 CURVE SMOOTH",
"277 -305 OFFCURVE",
"356 -379 OFFCURVE",
"479 -379 CURVE SMOOTH"
);
},
{
closed = 1;
nodes = (
"381 8 OFFCURVE",
"378 18 OFFCURVE",
"377 21 CURVE SMOOTH",
"375 32 OFFCURVE",
"374 46 OFFCURVE",
"374 61 CURVE SMOOTH",
"374 120 OFFCURVE",
"388 201 OFFCURVE",
"396 241 CURVE",
"396 220 OFFCURVE",
"397 199 OFFCURVE",
"397 178 CURVE SMOOTH",
"397 149 OFFCURVE",
"396 121 OFFCURVE",
"395 93 CURVE SMOOTH",
"395 88 OFFCURVE",
"395 65 OFFCURVE",
"392 44 CURVE SMOOTH",
"390 26 OFFCURVE",
"390 8 OFFCURVE",
"384 8 CURVE SMOOTH"
);
}
);
};
layerId = "2ADFC918-CAA7-4AF7-825A-5AAC412EF250";
paths = (
{
closed = 1;
nodes = (
"758 -359 OFFCURVE",
"806 -56 OFFCURVE",
"849 360 CURVE SMOOTH",
"854 402 OFFCURVE",
"858 445 OFFCURVE",
"858 488 CURVE SMOOTH",
"858 612 OFFCURVE",
"800 737 OFFCURVE",
"659 737 CURVE SMOOTH",
"550 737 OFFCURVE",
"474 635 OFFCURVE",
"425 527 CURVE",
"398 653 OFFCURVE",
"308 749 OFFCURVE",
"166 749 CURVE SMOOTH",
"130 749 OFFCURVE",
"94 741 OFFCURVE",
"63 724 CURVE SMOOTH",
"-19 680 OFFCURVE",
"-60 593 OFFCURVE",
"-60 501 CURVE SMOOTH",
"-60 393 OFFCURVE",
"4 300 OFFCURVE",
"117 283 CURVE SMOOTH",
"127 281 OFFCURVE",
"138 281 OFFCURVE",
"149 281 CURVE SMOOTH",
"179 281 OFFCURVE",
"210 287 OFFCURVE",
"237 301 CURVE SMOOTH",
"294 330 OFFCURVE",
"321 390 OFFCURVE",
"321 447 CURVE SMOOTH",
"321 520 OFFCURVE",
"276 589 OFFCURVE",
"189 589 CURVE SMOOTH",
"184 589 OFFCURVE",
"144 586 OFFCURVE",
"132 580 CURVE SMOOTH",
"121 574 OFFCURVE",
"115 564 OFFCURVE",
"115 554 CURVE SMOOTH",
"115 543 OFFCURVE",
"123 533 OFFCURVE",
"142 533 CURVE SMOOTH",
"154 533 OFFCURVE",
"165 537 OFFCURVE",
"177 540 CURVE SMOOTH",
"181 541 OFFCURVE",
"186 541 OFFCURVE",
"190 541 CURVE SMOOTH",
"236 541 OFFCURVE",
"274 491 OFFCURVE",
"274 438 CURVE SMOOTH",
"274 403 OFFCURVE",
"257 368 OFFCURVE",
"215 346 CURVE SMOOTH",
"195 336 OFFCURVE",
"170 331 OFFCURVE",
"146 331 CURVE SMOOTH",
"48 331 OFFCURVE",
"-11 409 OFFCURVE",
"-11 501 CURVE SMOOTH",
"-11 578 OFFCURVE",
"22 643 OFFCURVE",
"88 680 CURVE SMOOTH",
"109 692 OFFCURVE",
"136 700 OFFCURVE",
"160 700 CURVE SMOOTH",
"306 700 OFFCURVE",
"376 594 OFFCURVE",
"385 457 CURVE SMOOTH",
"387 426 LINE",
"367 364 OFFCURVE",
"353 300 OFFCURVE",
"340 236 CURVE SMOOTH",
"334 210 OFFCURVE",
"320 144 OFFCURVE",
"320 86 CURVE SMOOTH",
"320 30 OFFCURVE",
"334 -20 OFFCURVE",
"384 -20 CURVE SMOOTH",
"445 -20 OFFCURVE",
"455 65 OFFCURVE",
"455 133 CURVE SMOOTH",
"455 158 OFFCURVE",
"454 180 OFFCURVE",
"453 195 CURVE SMOOTH",
"449 265 OFFCURVE",
"441 334 OFFCURVE",
"437 405 CURVE",
"480 526 OFFCURVE",
"557 689 OFFCURVE",
"652 689 CURVE SMOOTH",
"772 689 OFFCURVE",
"809 598 OFFCURVE",
"809 488 CURVE SMOOTH",
"809 447 OFFCURVE",
"805 405 OFFCURVE",
"800 365 CURVE SMOOTH",
"755 -14 OFFCURVE",
"724 -309 OFFCURVE",
"478 -309 CURVE SMOOTH",
"385 -309 OFFCURVE",
"327 -258 OFFCURVE",
"327 -187 CURVE SMOOTH",
"327 -168 OFFCURVE",
"332 -147 OFFCURVE",
"341 -125 CURVE SMOOTH",
"344 -119 OFFCURVE",
"345 -114 OFFCURVE",
"345 -109 CURVE SMOOTH",
"345 -94 OFFCURVE",
"334 -83 OFFCURVE",
"322 -83 CURVE SMOOTH",
"312 -83 OFFCURVE",
"302 -89 OFFCURVE",
"295 -105 CURVE SMOOTH",
"283 -134 OFFCURVE",
"277 -161 OFFCURVE",
"277 -188 CURVE SMOOTH",
"277 -285 OFFCURVE",
"356 -359 OFFCURVE",
"479 -359 CURVE SMOOTH"
);
},
{
closed = 1;
nodes = (
"381 28 OFFCURVE",
"378 38 OFFCURVE",
"377 41 CURVE SMOOTH",
"375 52 OFFCURVE",
"374 66 OFFCURVE",
"374 81 CURVE SMOOTH",
"374 140 OFFCURVE",
"388 221 OFFCURVE",
"396 261 CURVE",
"396 240 OFFCURVE",
"397 219 OFFCURVE",
"397 198 CURVE SMOOTH",
"397 169 OFFCURVE",
"396 141 OFFCURVE",
"395 113 CURVE SMOOTH",
"395 108 OFFCURVE",
"395 85 OFFCURVE",
"392 64 CURVE SMOOTH",
"390 46 OFFCURVE",
"390 28 OFFCURVE",
"384 28 CURVE SMOOTH"
);
}
);
width = 903;
}
);
leftKerningGroup = N;
rightKerningGroup = N;
unicode = 014A;
},
{
glyphname = O;
lastChange = "2021-11-12 19:44:33 +0000";
layers = (
{
anchors = (
{
name = bottom;
position = "{461, -42}";
},
{
name = center;
position = "{469, 353}";
},
{
name = ogonek;
position = "{571, -19}";
},
{
name = top;
position = "{469, 742}";
},
{
name = topleft;
position = "{120, 705}";
},
{
name = topright;
position = "{628, 705}";
}
);
background = {
paths = (
{
closed = 1;
nodes = (
"111 45 OFFCURVE",
"285 -62 OFFCURVE",
"461 -62 CURVE SMOOTH",
"644 -62 OFFCURVE",
"830 54 OFFCURVE",
"843 274 CURVE SMOOTH",
"844 286 OFFCURVE",
"844 299 OFFCURVE",
"844 311 CURVE SMOOTH",
"844 412 OFFCURVE",
"817 523 OFFCURVE",
"723 579 CURVE",
"706 694 OFFCURVE",
"588 738 OFFCURVE",
"479 738 CURVE SMOOTH",
"437 738 OFFCURVE",
"397 731 OFFCURVE",
"364 720 CURVE SMOOTH",
"258 683 OFFCURVE",
"182 609 OFFCURVE",
"137 517 CURVE",
"136 518 LINE SMOOTH",
"124 534 OFFCURVE",
"107 560 OFFCURVE",
"103 579 CURVE SMOOTH",
"100 596 OFFCURVE",
"99 607 OFFCURVE",
"99 614 CURVE SMOOTH",
"99 620 OFFCURVE",
"100 624 OFFCURVE",
"101 626 CURVE SMOOTH",
"105 631 LINE SMOOTH",
"112 640 OFFCURVE",
"119 648 OFFCURVE",
"125 658 CURVE SMOOTH",
"129 665 OFFCURVE",
"130 671 OFFCURVE",
"130 676 CURVE SMOOTH",
"130 690 OFFCURVE",
"118 698 OFFCURVE",
"105 698 CURVE SMOOTH",
"100 698 OFFCURVE",
"95 697 OFFCURVE",
"90 694 CURVE SMOOTH",
"85 691 OFFCURVE",
"81 687 OFFCURVE",
"78 683 CURVE SMOOTH",
"58 658 OFFCURVE",
"50 631 OFFCURVE",
"50 605 CURVE SMOOTH",
"50 554 OFFCURVE",
"80 504 OFFCURVE",
"117 466 CURVE",
"100 416 OFFCURVE",
"92 363 OFFCURVE",
"92 309 CURVE SMOOTH",
"92 296 OFFCURVE",
"92 283 OFFCURVE",
"93 270 CURVE SMOOTH"
);
},
{
closed = 1;
nodes = (
"141 284 OFFCURVE",
"141 296 OFFCURVE",
"141 308 CURVE SMOOTH",
"141 349 OFFCURVE",
"146 390 OFFCURVE",
"157 430 CURVE",
"228 377 OFFCURVE",
"319 351 OFFCURVE",
"406 351 CURVE SMOOTH",
"506 351 OFFCURVE",
"640 380 OFFCURVE",
"699 472 CURVE SMOOTH",
"709 487 OFFCURVE",
"716 504 OFFCURVE",
"720 521 CURVE",
"779 471 OFFCURVE",
"795 385 OFFCURVE",
"795 306 CURVE SMOOTH",
"795 296 OFFCURVE",
"794 286 OFFCURVE",
"794 276 CURVE SMOOTH",
"784 87 OFFCURVE",
"623 -13 OFFCURVE",
"462 -13 CURVE SMOOTH",
"309 -13 OFFCURVE",
"158 78 OFFCURVE",
"142 272 CURVE SMOOTH"
);
},
{
closed = 1;
nodes = (
"325 399 OFFCURVE",
"238 426 OFFCURVE",
"175 479 CURVE",
"227 602 OFFCURVE",
"342 690 OFFCURVE",
"476 690 CURVE SMOOTH",
"542 690 OFFCURVE",
"637 664 OFFCURVE",
"666 601 CURVE",
"656 603 OFFCURVE",
"648 604 OFFCURVE",
"637 604 CURVE SMOOTH",
"618 604 OFFCURVE",
"581 600 OFFCURVE",
"569 586 CURVE SMOOTH",
"565 582 LINE",
"562 577 LINE SMOOTH",
"559 573 OFFCURVE",
"558 567 OFFCURVE",
"558 561 CURVE SMOOTH",
"558 551 OFFCURVE",
"563 542 OFFCURVE",
"575 541 CURVE SMOOTH",
"581 541 OFFCURVE",
"598 545 OFFCURVE",
"603 550 CURVE",
"605 551 LINE SMOOTH",
"609 553 OFFCURVE",
"611 553 OFFCURVE",
"614 554 CURVE SMOOTH",
"620 555 OFFCURVE",
"626 556 OFFCURVE",
"632 556 CURVE SMOOTH",
"646 556 OFFCURVE",
"661 553 OFFCURVE",
"674 548 CURVE",
"672 533 OFFCURVE",
"666 518 OFFCURVE",
"659 505 CURVE SMOOTH",
"612 423 OFFCURVE",
"495 399 OFFCURVE",
"406 399 CURVE SMOOTH"
);
}
);
};
layerId = "2ADFC918-CAA7-4AF7-825A-5AAC412EF250";
paths = (
{
closed = 1;
nodes = (
"644 -42 OFFCURVE",
"830 74 OFFCURVE",
"843 294 CURVE SMOOTH",
"844 306 OFFCURVE",
"844 319 OFFCURVE",
"844 331 CURVE SMOOTH",
"844 432 OFFCURVE",
"817 543 OFFCURVE",
"723 599 CURVE",
"706 714 OFFCURVE",
"588 758 OFFCURVE",
"479 758 CURVE SMOOTH",
"437 758 OFFCURVE",
"397 751 OFFCURVE",
"364 740 CURVE SMOOTH",
"258 703 OFFCURVE",
"182 629 OFFCURVE",
"137 537 CURVE",
"136 538 LINE SMOOTH",
"122 552 OFFCURVE",
"107 580 OFFCURVE",
"103 599 CURVE SMOOTH",
"100 616 OFFCURVE",
"99 627 OFFCURVE",
"99 634 CURVE SMOOTH",
"99 640 OFFCURVE",
"100 644 OFFCURVE",
"101 646 CURVE SMOOTH",
"105 651 LINE SMOOTH",
"112 660 OFFCURVE",
"119 668 OFFCURVE",
"125 678 CURVE SMOOTH",
"129 685 OFFCURVE",
"130 691 OFFCURVE",
"130 696 CURVE SMOOTH",
"130 710 OFFCURVE",
"118 718 OFFCURVE",
"105 718 CURVE SMOOTH",
"100 718 OFFCURVE",
"95 717 OFFCURVE",
"90 714 CURVE SMOOTH",
"85 711 OFFCURVE",
"81 707 OFFCURVE",
"78 703 CURVE SMOOTH",
"58 678 OFFCURVE",
"50 651 OFFCURVE",
"50 625 CURVE SMOOTH",
"50 574 OFFCURVE",
"80 524 OFFCURVE",
"117 486 CURVE",
"100 436 OFFCURVE",
"92 383 OFFCURVE",
"92 329 CURVE SMOOTH",
"92 316 OFFCURVE",
"92 303 OFFCURVE",
"93 290 CURVE SMOOTH",
"111 65 OFFCURVE",
"285 -42 OFFCURVE",
"461 -42 CURVE SMOOTH"
);
},
{
closed = 1;
nodes = (
"309 7 OFFCURVE",
"158 98 OFFCURVE",
"142 292 CURVE SMOOTH",
"141 304 OFFCURVE",
"141 316 OFFCURVE",
"141 328 CURVE SMOOTH",
"141 369 OFFCURVE",
"146 410 OFFCURVE",
"157 450 CURVE",
"228 397 OFFCURVE",
"319 371 OFFCURVE",
"406 371 CURVE SMOOTH",
"506 371 OFFCURVE",
"640 400 OFFCURVE",
"699 492 CURVE SMOOTH",
"709 507 OFFCURVE",
"716 524 OFFCURVE",
"720 541 CURVE",
"779 491 OFFCURVE",
"795 405 OFFCURVE",
"795 326 CURVE SMOOTH",
"795 316 OFFCURVE",
"794 306 OFFCURVE",
"794 296 CURVE SMOOTH",
"784 107 OFFCURVE",
"623 7 OFFCURVE",
"462 7 CURVE SMOOTH"
);
},
{
closed = 1;
nodes = (
"325 419 OFFCURVE",
"238 446 OFFCURVE",
"175 499 CURVE",
"227 622 OFFCURVE",
"342 710 OFFCURVE",
"476 710 CURVE SMOOTH",
"542 710 OFFCURVE",
"637 684 OFFCURVE",
"666 621 CURVE",
"656 623 OFFCURVE",
"648 624 OFFCURVE",
"637 624 CURVE SMOOTH",
"618 624 OFFCURVE",
"582 619 OFFCURVE",
"569 606 CURVE SMOOTH",
"565 602 LINE",
"562 597 LINE SMOOTH",
"559 593 OFFCURVE",
"558 587 OFFCURVE",
"558 581 CURVE SMOOTH",
"558 571 OFFCURVE",
"563 562 OFFCURVE",
"575 561 CURVE SMOOTH",
"581 561 OFFCURVE",
"598 565 OFFCURVE",
"603 570 CURVE",
"605 571 LINE SMOOTH",
"609 573 OFFCURVE",
"611 573 OFFCURVE",
"614 574 CURVE SMOOTH",
"620 575 OFFCURVE",
"626 576 OFFCURVE",
"632 576 CURVE SMOOTH",
"646 576 OFFCURVE",
"661 573 OFFCURVE",
"674 568 CURVE",
"672 553 OFFCURVE",
"666 538 OFFCURVE",
"659 525 CURVE SMOOTH",
"612 443 OFFCURVE",
"495 419 OFFCURVE",
"406 419 CURVE SMOOTH"
);
}
);
width = 893;
}
);
leftKerningGroup = O;
note = O;
rightKerningGroup = O;
unicode = 004F;
},
{
glyphname = Oslash;
lastChange = "2021-11-12 16:25:33 +0000";
layers = (
{
anchors = (
{
name = bottom;
position = "{344, 0}";
},
{
name = top;
position = "{358, 751}";
}
);
background = {
paths = (
{
closed = 1;
nodes = (
"532 -24 OFFCURVE",
"672 138 OFFCURVE",
"672 320 CURVE",
"673 320 LINE",
"673 413 OFFCURVE",
"638 511 OFFCURVE",
"577 578 CURVE",
"587 597 OFFCURVE",
"595 616 OFFCURVE",
"595 634 CURVE SMOOTH",
"595 651 OFFCURVE",
"582 660 OFFCURVE",
"569 660 CURVE SMOOTH",
"556 660 OFFCURVE",
"543 651 OFFCURVE",
"543 634 CURVE SMOOTH",
"543 629 OFFCURVE",
"541 623 OFFCURVE",
"537 615 CURVE",
"498 644 OFFCURVE",
"452 661 OFFCURVE",
"400 661 CURVE SMOOTH",
"389 661 OFFCURVE",
"378 661 OFFCURVE",
"367 659 CURVE SMOOTH",
"360 657 OFFCURVE",
"354 655 OFFCURVE",
"347 651 CURVE",
"333 653 OFFCURVE",
"320 654 OFFCURVE",
"307 654 CURVE SMOOTH",
"141 654 OFFCURVE",
"30 481 OFFCURVE",
"30 320 CURVE SMOOTH",
"30 222 OFFCURVE",
"68 130 OFFCURVE",
"133 66 CURVE",
"118 38 OFFCURVE",
"107 9 OFFCURVE",
"107 -18 CURVE SMOOTH",
"107 -32 OFFCURVE",
"118 -41 OFFCURVE",
"130 -41 CURVE SMOOTH",
"141 -41 OFFCURVE",
"153 -34 OFFCURVE",
"158 -15 CURVE",
"159 -13 OFFCURVE",
"159 -8 OFFCURVE",
"159 -6 CURVE SMOOTH",
"159 4 OFFCURVE",
"164 18 OFFCURVE",
"172 32 CURVE",
"221 -3 OFFCURVE",
"282 -24 OFFCURVE",
"349 -24 CURVE SMOOTH"
);
},
{
closed = 1;
nodes = (
"110 163 OFFCURVE",
"80 238 OFFCURVE",
"80 319 CURVE SMOOTH",
"80 452 OFFCURVE",
"165 588 OFFCURVE",
"284 604 CURVE",
"255 572 OFFCURVE",
"233 531 OFFCURVE",
"233 488 CURVE SMOOTH",
"233 464 OFFCURVE",
"240 441 OFFCURVE",
"255 418 CURVE SMOOTH",
"260 411 OFFCURVE",
"267 408 OFFCURVE",
"273 408 CURVE SMOOTH",
"287 408 OFFCURVE",
"300 420 OFFCURVE",
"300 435 CURVE SMOOTH",
"300 439 OFFCURVE",
"298 444 OFFCURVE",
"295 449 CURVE",
"285 459 OFFCURVE",
"281 471 OFFCURVE",
"281 485 CURVE SMOOTH",
"281 538 OFFCURVE",
"347 609 OFFCURVE",
"373 609 CURVE",
"383 611 OFFCURVE",
"392 611 OFFCURVE",
"402 611 CURVE SMOOTH",
"442 611 OFFCURVE",
"479 596 OFFCURVE",
"511 571 CURVE",
"499 553 OFFCURVE",
"487 538 OFFCURVE",
"481 530 CURVE SMOOTH",
"383 405 OFFCURVE",
"288 278 OFFCURVE",
"191 151 CURVE SMOOTH",
"160 109 LINE"
);
},
{
closed = 1;
nodes = (
"290 27 OFFCURVE",
"240 45 OFFCURVE",
"198 75 CURVE",
"211 94 OFFCURVE",
"223 111 OFFCURVE",
"231 121 CURVE SMOOTH",
"327 247 OFFCURVE",
"423 373 OFFCURVE",
"521 497 CURVE SMOOTH",
"548 533 LINE",
"593 476 OFFCURVE",
"620 397 OFFCURVE",
"620 320 CURVE SMOOTH",
"620 163 OFFCURVE",
"499 27 OFFCURVE",
"347 27 CURVE SMOOTH"
);
}
);
};
components = (
{
name = O;
}
);
layerId = "2ADFC918-CAA7-4AF7-825A-5AAC412EF250";
paths = (
{
closed = 1;
nodes = (
"152 -124 OFFCURVE",
"165 -117 OFFCURVE",
"171 -95 CURVE",
"172 -93 OFFCURVE",
"172 -87 OFFCURVE",
"172 -85 CURVE SMOOTH",
"173 -47 OFFCURVE",
"266 75 OFFCURVE",
"287 104 CURVE SMOOTH",
"397 247 OFFCURVE",
"506 391 OFFCURVE",
"617 532 CURVE SMOOTH",
"632 551 OFFCURVE",
"653 577 OFFCURVE",
"670 604 CURVE SMOOTH",
"687 632 OFFCURVE",
"701 661 OFFCURVE",
"701 688 CURVE SMOOTH",
"701 707 OFFCURVE",
"687 717 OFFCURVE",
"672 717 CURVE SMOOTH",
"657 717 OFFCURVE",
"646 707 OFFCURVE",
"646 688 CURVE SMOOTH",
"646 646 OFFCURVE",
"598 581 OFFCURVE",
"582 560 CURVE SMOOTH",
"470 418 OFFCURVE",
"362 274 OFFCURVE",
"252 130 CURVE SMOOTH",
"213 79 OFFCURVE",
"123 -39 OFFCURVE",
"123 -106 CURVE SMOOTH",
"123 -122 OFFCURVE",
"126 -124 OFFCURVE",
"139 -124 CURVE SMOOTH"
);
}
);
width = 738;
}
);
leftKerningGroup = O;
note = Oslash;
rightKerningGroup = O;
unicode = 00D8;
},
{
glyphname = OE;
lastChange = "2021-11-12 16:25:38 +0000";
layers = (
{
background = {
anchors = (
{
name = bottom;
position = "{1060, -37}";
},
{
name = ogonek;
position = "{1056, -37}";
},
{
name = top;
position = "{1084, 752}";
},
{
name = topleft;
position = "{758, 705}";
}
);
paths = (
{
closed = 1;
nodes = (
"722 3 OFFCURVE",
"608 59 OFFCURVE",
"608 189 CURVE SMOOTH",
"608 269 OFFCURVE",
"671 334 OFFCURVE",
"744 370 CURVE",
"784 344 OFFCURVE",
"829 330 OFFCURVE",
"875 330 CURVE SMOOTH",
"948 330 OFFCURVE",
"985 355 OFFCURVE",
"985 389 CURVE SMOOTH",
"985 420 OFFCURVE",
"955 441 OFFCURVE",
"890 448 CURVE SMOOTH",
"845 452 OFFCURVE",
"793 441 OFFCURVE",
"751 426 CURVE",
"720 453 OFFCURVE",
"699 488 OFFCURVE",
"699 525 CURVE SMOOTH",
"699 642 OFFCURVE",
"795 687 OFFCURVE",
"901 687 CURVE SMOOTH",
"953 687 OFFCURVE",
"1016 661 OFFCURVE",
"1016 602 CURVE SMOOTH",
"1016 591 OFFCURVE",
"1012 578 OFFCURVE",
"1006 569 CURVE SMOOTH",
"1001 562 OFFCURVE",
"991 559 OFFCURVE",
"981 559 CURVE SMOOTH",
"966 559 OFFCURVE",
"951 566 OFFCURVE",
"949 574 CURVE",
"949 577 OFFCURVE",
"952 584 OFFCURVE",
"952 588 CURVE SMOOTH",
"953 610 OFFCURVE",
"943 619 OFFCURVE",
"932 619 CURVE SMOOTH",
"919 619 OFFCURVE",
"903 605 OFFCURVE",
"903 587 CURVE SMOOTH",
"903 542 OFFCURVE",
"944 507 OFFCURVE",
"986 507 CURVE SMOOTH",
"1008 507 OFFCURVE",
"1031 518 OFFCURVE",
"1048 542 CURVE SMOOTH",
"1061 560 OFFCURVE",
"1067 583 OFFCURVE",
"1067 605 CURVE SMOOTH",
"1065 691 OFFCURVE",
"974 736 OFFCURVE",
"901 736 CURVE SMOOTH",
"783 736 OFFCURVE",
"670 682 OFFCURVE",
"652 560 CURVE",
"644 566 OFFCURVE",
"634 572 OFFCURVE",
"623 579 CURVE",
"606 694 OFFCURVE",
"488 738 OFFCURVE",
"379 738 CURVE SMOOTH",
"337 738 OFFCURVE",
"297 731 OFFCURVE",
"264 720 CURVE SMOOTH",
"158 683 OFFCURVE",
"82 609 OFFCURVE",
"37 517 CURVE",
"36 518 LINE SMOOTH",
"22 532 OFFCURVE",
"7 560 OFFCURVE",
"3 579 CURVE SMOOTH",
"0 597 OFFCURVE",
"-2 608 OFFCURVE",
"-2 615 CURVE SMOOTH",
"-2 621 OFFCURVE",
"-1 624 OFFCURVE",
"1 626 CURVE SMOOTH",
"5 631 LINE SMOOTH",
"12 640 OFFCURVE",
"19 648 OFFCURVE",
"25 658 CURVE SMOOTH",
"29 665 OFFCURVE",
"30 671 OFFCURVE",
"30 676 CURVE SMOOTH",
"30 690 OFFCURVE",
"18 698 OFFCURVE",
"5 698 CURVE SMOOTH",
"0 698 OFFCURVE",
"-5 697 OFFCURVE",
"-10 694 CURVE SMOOTH",
"-15 691 OFFCURVE",
"-19 687 OFFCURVE",
"-22 683 CURVE SMOOTH",
"-42 658 OFFCURVE",
"-50 631 OFFCURVE",
"-50 605 CURVE SMOOTH",
"-50 554 OFFCURVE",
"-20 504 OFFCURVE",
"17 466 CURVE",
"0 416 OFFCURVE",
"-8 363 OFFCURVE",
"-8 309 CURVE SMOOTH",
"-8 296 OFFCURVE",
"-8 283 OFFCURVE",
"-7 270 CURVE SMOOTH",
"11 45 OFFCURVE",
"186 -62 OFFCURVE",
"362 -62 CURVE SMOOTH",
"457 -62 OFFCURVE",
"552 -31 OFFCURVE",
"624 29 CURVE",
"676 -22 OFFCURVE",
"754 -45 OFFCURVE",
"834 -45 CURVE SMOOTH",
"976 -45 OFFCURVE",
"1123 29 OFFCURVE",
"1136 159 CURVE SMOOTH",
"1137 168 OFFCURVE",
"1137 177 OFFCURVE",
"1137 186 CURVE SMOOTH",
"1137 200 OFFCURVE",
"1136 213 OFFCURVE",
"1132 228 CURVE SMOOTH",
"1121 268 OFFCURVE",
"1088 305 OFFCURVE",
"1041 305 CURVE SMOOTH",
"1033 305 OFFCURVE",
"1007 301 OFFCURVE",
"999 292 CURVE SMOOTH",
"989 281 OFFCURVE",
"985 273 OFFCURVE",
"985 267 CURVE SMOOTH",
"985 255 OFFCURVE",
"1002 252 OFFCURVE",
"1018 252 CURVE SMOOTH",
"1031 252 OFFCURVE",
"1043 254 OFFCURVE",
"1042 254 CURVE SMOOTH",
"1090 255 OFFCURVE",
"1088 196 OFFCURVE",
"1087 162 CURVE SMOOTH",
"1086 141 OFFCURVE",
"1077 120 OFFCURVE",
"1066 102 CURVE SMOOTH",
"1020 31 OFFCURVE",
"920 3 OFFCURVE",
"839 3 CURVE SMOOTH"
);
},
{
closed = 1;
nodes = (
"530 14 OFFCURVE",
"446 -13 OFFCURVE",
"362 -13 CURVE SMOOTH",
"209 -13 OFFCURVE",
"58 78 OFFCURVE",
"42 272 CURVE SMOOTH",
"41 284 OFFCURVE",
"41 296 OFFCURVE",
"41 308 CURVE SMOOTH",
"41 349 OFFCURVE",
"46 390 OFFCURVE",
"57 430 CURVE",
"128 377 OFFCURVE",
"219 351 OFFCURVE",
"306 351 CURVE SMOOTH",
"406 351 OFFCURVE",
"540 380 OFFCURVE",
"599 472 CURVE SMOOTH",
"609 487 OFFCURVE",
"616 504 OFFCURVE",
"620 521 CURVE",
"634 509 OFFCURVE",
"646 495 OFFCURVE",
"655 480 CURVE",
"664 451 OFFCURVE",
"680 425 OFFCURVE",
"701 403 CURVE",
"622 359 OFFCURVE",
"561 285 OFFCURVE",
"561 188 CURVE SMOOTH",
"561 140 OFFCURVE",
"573 100 OFFCURVE",
"593 67 CURVE"
);
},
{
closed = 1;
nodes = (
"225 399 OFFCURVE",
"138 426 OFFCURVE",
"75 479 CURVE",
"128 604 OFFCURVE",
"246 693 OFFCURVE",
"383 690 CURVE SMOOTH",
"448 688 OFFCURVE",
"538 662 OFFCURVE",
"566 601 CURVE",
"556 603 OFFCURVE",
"548 604 OFFCURVE",
"538 604 CURVE SMOOTH",
"520 604 OFFCURVE",
"483 600 OFFCURVE",
"469 586 CURVE SMOOTH",
"465 582 LINE",
"462 577 LINE SMOOTH",
"459 573 OFFCURVE",
"458 567 OFFCURVE",
"458 561 CURVE SMOOTH",
"458 551 OFFCURVE",
"463 542 OFFCURVE",
"475 541 CURVE SMOOTH",
"481 541 OFFCURVE",
"498 545 OFFCURVE",
"503 550 CURVE",
"505 551 LINE SMOOTH",
"509 553 OFFCURVE",
"511 553 OFFCURVE",
"514 554 CURVE SMOOTH",
"520 555 OFFCURVE",
"526 556 OFFCURVE",
"532 556 CURVE SMOOTH",
"546 556 OFFCURVE",
"561 553 OFFCURVE",
"574 548 CURVE",
"572 533 OFFCURVE",
"566 518 OFFCURVE",
"559 505 CURVE SMOOTH",
"512 423 OFFCURVE",
"395 399 OFFCURVE",
"306 399 CURVE SMOOTH"
);
},
{
closed = 1;
nodes = (
"932 374 OFFCURVE",
"913 369 OFFCURVE",
"889 369 CURVE SMOOTH",
"851 369 OFFCURVE",
"801 381 OFFCURVE",
"789 396 CURVE",
"801 405 OFFCURVE",
"844 415 OFFCURVE",
"880 415 CURVE SMOOTH",
"911 415 OFFCURVE",
"937 408 OFFCURVE",
"934 387 CURVE SMOOTH"
);
}
);
};
layerId = "2ADFC918-CAA7-4AF7-825A-5AAC412EF250";
paths = (
{
closed = 1;
nodes = (
"457 -42 OFFCURVE",
"552 -11 OFFCURVE",
"624 49 CURVE",
"676 -2 OFFCURVE",
"754 -25 OFFCURVE",
"834 -25 CURVE SMOOTH",
"976 -25 OFFCURVE",
"1123 49 OFFCURVE",
"1136 179 CURVE SMOOTH",
"1137 188 OFFCURVE",
"1137 197 OFFCURVE",
"1137 206 CURVE SMOOTH",
"1137 220 OFFCURVE",
"1136 233 OFFCURVE",
"1132 248 CURVE SMOOTH",
"1121 288 OFFCURVE",
"1088 325 OFFCURVE",
"1041 325 CURVE SMOOTH",
"1033 325 OFFCURVE",
"1007 321 OFFCURVE",
"999 312 CURVE SMOOTH",
"989 301 OFFCURVE",
"985 293 OFFCURVE",
"985 287 CURVE SMOOTH",
"985 275 OFFCURVE",
"1002 272 OFFCURVE",
"1018 272 CURVE SMOOTH",
"1033 272 OFFCURVE",
"1046 274 OFFCURVE",
"1043 274 CURVE SMOOTH",
"1090 274 OFFCURVE",
"1088 216 OFFCURVE",
"1087 182 CURVE SMOOTH",
"1086 161 OFFCURVE",
"1077 140 OFFCURVE",
"1066 122 CURVE SMOOTH",
"1020 51 OFFCURVE",
"920 23 OFFCURVE",
"839 23 CURVE SMOOTH",
"722 23 OFFCURVE",
"608 79 OFFCURVE",
"608 209 CURVE SMOOTH",
"608 289 OFFCURVE",
"671 354 OFFCURVE",
"744 390 CURVE",
"784 364 OFFCURVE",
"829 350 OFFCURVE",
"875 350 CURVE SMOOTH",
"948 350 OFFCURVE",
"985 375 OFFCURVE",
"985 409 CURVE SMOOTH",
"985 440 OFFCURVE",
"955 461 OFFCURVE",
"890 468 CURVE SMOOTH",
"845 472 OFFCURVE",
"793 461 OFFCURVE",
"751 446 CURVE",
"720 473 OFFCURVE",
"699 508 OFFCURVE",
"699 545 CURVE SMOOTH",
"699 662 OFFCURVE",
"795 707 OFFCURVE",
"901 707 CURVE SMOOTH",
"953 707 OFFCURVE",
"1016 681 OFFCURVE",
"1016 622 CURVE SMOOTH",
"1016 611 OFFCURVE",
"1012 598 OFFCURVE",
"1006 589 CURVE SMOOTH",
"1001 582 OFFCURVE",
"991 579 OFFCURVE",
"981 579 CURVE SMOOTH",
"966 579 OFFCURVE",
"951 586 OFFCURVE",
"949 594 CURVE",
"949 597 OFFCURVE",
"952 604 OFFCURVE",
"952 608 CURVE SMOOTH",
"953 630 OFFCURVE",
"943 639 OFFCURVE",
"932 639 CURVE SMOOTH",
"919 639 OFFCURVE",
"903 625 OFFCURVE",
"903 607 CURVE SMOOTH",
"903 562 OFFCURVE",
"944 527 OFFCURVE",
"986 527 CURVE SMOOTH",
"1008 527 OFFCURVE",
"1031 538 OFFCURVE",
"1048 562 CURVE SMOOTH",
"1061 580 OFFCURVE",
"1067 603 OFFCURVE",
"1067 625 CURVE SMOOTH",
"1065 711 OFFCURVE",
"974 756 OFFCURVE",
"901 756 CURVE SMOOTH",
"783 756 OFFCURVE",
"670 702 OFFCURVE",
"652 580 CURVE",
"644 586 OFFCURVE",
"634 592 OFFCURVE",
"623 599 CURVE",
"606 714 OFFCURVE",
"488 758 OFFCURVE",
"379 758 CURVE SMOOTH",
"337 758 OFFCURVE",
"297 751 OFFCURVE",
"264 740 CURVE SMOOTH",
"158 703 OFFCURVE",
"82 629 OFFCURVE",
"37 537 CURVE",
"36 538 LINE SMOOTH",
"22 552 OFFCURVE",
"7 580 OFFCURVE",
"3 599 CURVE SMOOTH",
"0 617 OFFCURVE",
"-2 628 OFFCURVE",
"-2 635 CURVE SMOOTH",
"-2 641 OFFCURVE",
"-1 644 OFFCURVE",
"1 646 CURVE SMOOTH",
"5 651 LINE SMOOTH",
"12 660 OFFCURVE",
"19 668 OFFCURVE",
"25 678 CURVE SMOOTH",
"29 685 OFFCURVE",
"30 691 OFFCURVE",
"30 696 CURVE SMOOTH",
"30 710 OFFCURVE",
"18 718 OFFCURVE",
"5 718 CURVE SMOOTH",
"0 718 OFFCURVE",
"-5 717 OFFCURVE",
"-10 714 CURVE SMOOTH",
"-15 711 OFFCURVE",
"-19 707 OFFCURVE",
"-22 703 CURVE SMOOTH",
"-42 678 OFFCURVE",
"-50 651 OFFCURVE",
"-50 625 CURVE SMOOTH",
"-50 574 OFFCURVE",
"-20 524 OFFCURVE",
"17 486 CURVE",
"0 436 OFFCURVE",
"-8 383 OFFCURVE",
"-8 329 CURVE SMOOTH",
"-8 316 OFFCURVE",
"-8 303 OFFCURVE",
"-7 290 CURVE SMOOTH",
"11 65 OFFCURVE",
"186 -42 OFFCURVE",
"362 -42 CURVE SMOOTH"
);
},
{
closed = 1;
nodes = (
"209 7 OFFCURVE",
"58 98 OFFCURVE",
"42 292 CURVE SMOOTH",
"41 304 OFFCURVE",
"41 316 OFFCURVE",
"41 328 CURVE SMOOTH",
"41 369 OFFCURVE",
"46 410 OFFCURVE",
"57 450 CURVE",
"128 397 OFFCURVE",
"219 371 OFFCURVE",
"306 371 CURVE SMOOTH",
"406 371 OFFCURVE",
"540 400 OFFCURVE",
"599 492 CURVE SMOOTH",
"609 507 OFFCURVE",
"616 524 OFFCURVE",
"620 541 CURVE",
"634 529 OFFCURVE",
"646 515 OFFCURVE",
"655 500 CURVE",
"664 471 OFFCURVE",
"680 445 OFFCURVE",
"701 423 CURVE",
"622 379 OFFCURVE",
"561 305 OFFCURVE",
"561 208 CURVE SMOOTH",
"561 160 OFFCURVE",
"573 120 OFFCURVE",
"593 87 CURVE",
"530 34 OFFCURVE",
"446 7 OFFCURVE",
"362 7 CURVE SMOOTH"
);
},
{
closed = 1;
nodes = (
"225 419 OFFCURVE",
"138 446 OFFCURVE",
"75 499 CURVE",
"127 622 OFFCURVE",
"242 710 OFFCURVE",
"376 710 CURVE SMOOTH",
"442 710 OFFCURVE",
"537 684 OFFCURVE",
"566 621 CURVE",
"556 623 OFFCURVE",
"548 624 OFFCURVE",
"538 624 CURVE SMOOTH",
"520 624 OFFCURVE",
"483 620 OFFCURVE",
"469 606 CURVE SMOOTH",
"465 602 LINE",
"462 597 LINE SMOOTH",
"459 593 OFFCURVE",
"458 587 OFFCURVE",
"458 581 CURVE SMOOTH",
"458 571 OFFCURVE",
"463 562 OFFCURVE",
"475 561 CURVE SMOOTH",
"481 561 OFFCURVE",
"498 565 OFFCURVE",
"503 570 CURVE",
"505 571 LINE SMOOTH",
"509 573 OFFCURVE",
"511 573 OFFCURVE",
"514 574 CURVE SMOOTH",
"520 575 OFFCURVE",
"526 576 OFFCURVE",
"532 576 CURVE SMOOTH",
"546 576 OFFCURVE",
"561 573 OFFCURVE",
"574 568 CURVE",
"572 553 OFFCURVE",
"566 538 OFFCURVE",
"559 525 CURVE SMOOTH",
"512 443 OFFCURVE",
"395 419 OFFCURVE",
"306 419 CURVE SMOOTH"
);
},
{
closed = 1;
nodes = (
"851 389 OFFCURVE",
"801 401 OFFCURVE",
"789 416 CURVE",
"801 425 OFFCURVE",
"844 435 OFFCURVE",
"880 435 CURVE SMOOTH",
"909 435 OFFCURVE",
"934 429 OFFCURVE",
"934 410 CURVE SMOOTH",
"934 395 OFFCURVE",
"915 389 OFFCURVE",
"889 389 CURVE SMOOTH"
);
}
);
width = 1139;
}
);
leftKerningGroup = O;
note = OE;
rightKerningGroup = E;
unicode = 0152;
},
{
glyphname = P;
lastChange = "2021-11-12 19:46:12 +0000";
layers = (
{
background = {
paths = (
{
closed = 1;
nodes = (
"304 -70 OFFCURVE",
"320 27 OFFCURVE",
"325 81 CURVE SMOOTH",
"330 132 OFFCURVE",
"330 183 OFFCURVE",
"332 235 CURVE",
"347 234 OFFCURVE",
"362 233 OFFCURVE",
"376 233 CURVE SMOOTH",
"595 233 OFFCURVE",
"702 353 OFFCURVE",
"702 473 CURVE SMOOTH",
"702 597 OFFCURVE",
"590 723 OFFCURVE",
"374 723 CURVE SMOOTH",
"253 723 OFFCURVE",
"103 679 OFFCURVE",
"47 559 CURVE SMOOTH",
"34 532 OFFCURVE",
"27 501 OFFCURVE",
"27 470 CURVE SMOOTH",
"27 442 OFFCURVE",
"33 414 OFFCURVE",
"48 390 CURVE SMOOTH",
"74 349 OFFCURVE",
"124 323 OFFCURVE",
"173 323 CURVE SMOOTH",
"192 323 OFFCURVE",
"210 327 OFFCURVE",
"227 335 CURVE SMOOTH",
"232 337 OFFCURVE",
"251 348 OFFCURVE",
"254 354 CURVE SMOOTH",
"259 362 OFFCURVE",
"261 368 OFFCURVE",
"261 374 CURVE SMOOTH",
"261 387 OFFCURVE",
"250 393 OFFCURVE",
"237 393 CURVE SMOOTH",
"229 393 OFFCURVE",
"220 390 OFFCURVE",
"214 384 CURVE SMOOTH",
"204 374 OFFCURVE",
"199 372 OFFCURVE",
"178 372 CURVE SMOOTH",
"126 372 OFFCURVE",
"76 414 OFFCURVE",
"76 467 CURVE SMOOTH",
"76 495 OFFCURVE",
"85 524 OFFCURVE",
"98 548 CURVE SMOOTH",
"148 637 OFFCURVE",
"265 674 OFFCURVE",
"372 674 CURVE SMOOTH",
"414 674 OFFCURVE",
"454 668 OFFCURVE",
"488 658 CURVE SMOOTH",
"564 635 OFFCURVE",
"650 577 OFFCURVE",
"653 492 CURVE SMOOTH",
"658 369 OFFCURVE",
"575 313 OFFCURVE",
"462 291 CURVE SMOOTH",
"433 285 OFFCURVE",
"403 282 OFFCURVE",
"374 282 CURVE SMOOTH",
"361 282 OFFCURVE",
"349 283 OFFCURVE",
"336 284 CURVE",
"336 334 OFFCURVE",
"335 493 OFFCURVE",
"371 535 CURVE SMOOTH",
"374 538 OFFCURVE",
"377 542 OFFCURVE",
"387 549 CURVE SMOOTH",
"394 553 OFFCURVE",
"396 559 OFFCURVE",
"396 565 CURVE SMOOTH",
"396 576 OFFCURVE",
"386 586 OFFCURVE",
"371 586 CURVE SMOOTH",
"366 586 OFFCURVE",
"361 584 OFFCURVE",
"355 582 CURVE",
"294 549 OFFCURVE",
"292 443 OFFCURVE",
"289 384 CURVE SMOOTH",
"286 307 OFFCURVE",
"283 4 OFFCURVE",
"250 -21 CURVE",
"238 -21 OFFCURVE",
"223 -20 OFFCURVE",
"215 -30 CURVE SMOOTH",
"212 -34 OFFCURVE",
"210 -40 OFFCURVE",
"210 -46 CURVE SMOOTH",
"210 -58 OFFCURVE",
"218 -70 OFFCURVE",
"243 -70 CURVE SMOOTH"
);
}
);
};
layerId = "2ADFC918-CAA7-4AF7-825A-5AAC412EF250";
paths = (
{
closed = 1;
nodes = (
"304 -50 OFFCURVE",
"320 47 OFFCURVE",
"325 101 CURVE SMOOTH",
"330 152 OFFCURVE",
"330 203 OFFCURVE",
"332 255 CURVE",
"347 254 OFFCURVE",
"362 253 OFFCURVE",
"376 253 CURVE SMOOTH",
"595 253 OFFCURVE",
"702 373 OFFCURVE",
"702 493 CURVE SMOOTH",
"702 617 OFFCURVE",
"590 743 OFFCURVE",
"374 743 CURVE SMOOTH",
"253 743 OFFCURVE",
"103 699 OFFCURVE",
"47 579 CURVE SMOOTH",
"34 552 OFFCURVE",
"27 521 OFFCURVE",
"27 490 CURVE SMOOTH",
"27 462 OFFCURVE",
"33 434 OFFCURVE",
"48 410 CURVE SMOOTH",
"74 369 OFFCURVE",
"124 343 OFFCURVE",
"173 343 CURVE SMOOTH",
"192 343 OFFCURVE",
"210 347 OFFCURVE",
"227 355 CURVE SMOOTH",
"232 357 OFFCURVE",
"251 368 OFFCURVE",
"254 374 CURVE SMOOTH",
"259 382 OFFCURVE",
"261 388 OFFCURVE",
"261 394 CURVE SMOOTH",
"261 407 OFFCURVE",
"250 413 OFFCURVE",
"237 413 CURVE SMOOTH",
"229 413 OFFCURVE",
"220 410 OFFCURVE",
"214 404 CURVE SMOOTH",
"204 394 OFFCURVE",
"199 392 OFFCURVE",
"178 392 CURVE SMOOTH",
"126 392 OFFCURVE",
"76 434 OFFCURVE",
"76 487 CURVE SMOOTH",
"76 515 OFFCURVE",
"85 544 OFFCURVE",
"98 568 CURVE SMOOTH",
"148 657 OFFCURVE",
"265 694 OFFCURVE",
"372 694 CURVE SMOOTH",
"414 694 OFFCURVE",
"454 688 OFFCURVE",
"488 678 CURVE SMOOTH",
"564 655 OFFCURVE",
"650 597 OFFCURVE",
"653 512 CURVE SMOOTH",
"658 389 OFFCURVE",
"575 333 OFFCURVE",
"462 311 CURVE SMOOTH",
"433 305 OFFCURVE",
"403 302 OFFCURVE",
"374 302 CURVE SMOOTH",
"361 302 OFFCURVE",
"349 303 OFFCURVE",
"336 304 CURVE",
"336 354 OFFCURVE",
"335 513 OFFCURVE",
"371 555 CURVE SMOOTH",
"374 558 OFFCURVE",
"377 562 OFFCURVE",
"387 569 CURVE SMOOTH",
"394 573 OFFCURVE",
"396 579 OFFCURVE",
"396 585 CURVE SMOOTH",
"396 596 OFFCURVE",
"386 606 OFFCURVE",
"371 606 CURVE SMOOTH",
"366 606 OFFCURVE",
"361 604 OFFCURVE",
"355 602 CURVE",
"294 569 OFFCURVE",
"292 463 OFFCURVE",
"289 404 CURVE SMOOTH",
"286 327 OFFCURVE",
"283 24 OFFCURVE",
"250 -1 CURVE",
"238 -1 OFFCURVE",
"223 0 OFFCURVE",
"215 -10 CURVE SMOOTH",
"212 -14 OFFCURVE",
"210 -20 OFFCURVE",
"210 -26 CURVE SMOOTH",
"210 -38 OFFCURVE",
"218 -50 OFFCURVE",
"243 -50 CURVE SMOOTH"
);
}
);
width = 713;
}
);
note = P;
unicode = 0050;
},
{
glyphname = Thorn;
lastChange = "2021-11-11 14:10:08 +0000";
layers = (
{
layerId = "2ADFC918-CAA7-4AF7-825A-5AAC412EF250";
paths = (
{
closed = 1;
nodes = (
"216 -50 OFFCURVE",
"232 39 OFFCURVE",
"237 93 CURVE",
"244 95 LINE",
"259 94 OFFCURVE",
"274 93 OFFCURVE",
"288 93 CURVE SMOOTH",
"507 93 OFFCURVE",
"614 213 OFFCURVE",
"614 333 CURVE SMOOTH",
"614 452 OFFCURVE",
"517 588 OFFCURVE",
"275 588 CURVE SMOOTH",
"265 588 OFFCURVE",
"255 587 OFFCURVE",
"244 587 CURVE",
"242 538 LINE",
"284 538 OFFCURVE",
"366 528 OFFCURVE",
"400 518 CURVE SMOOTH",
"476 495 OFFCURVE",
"562 437 OFFCURVE",
"565 352 CURVE SMOOTH",
"570 229 OFFCURVE",
"487 173 OFFCURVE",
"374 151 CURVE SMOOTH",
"345 145 OFFCURVE",
"315 142 OFFCURVE",
"286 142 CURVE SMOOTH",
"273 142 OFFCURVE",
"261 143 OFFCURVE",
"248 144 CURVE",
"248 168 OFFCURVE",
"244 283 OFFCURVE",
"244 403 CURVE SMOOTH",
"244 539 OFFCURVE",
"249 680 OFFCURVE",
"268 702 CURVE SMOOTH",
"271 705 OFFCURVE",
"274 709 OFFCURVE",
"284 716 CURVE SMOOTH",
"291 720 OFFCURVE",
"293 726 OFFCURVE",
"293 732 CURVE SMOOTH",
"293 743 OFFCURVE",
"283 753 OFFCURVE",
"268 753 CURVE SMOOTH",
"263 753 OFFCURVE",
"258 751 OFFCURVE",
"252 749 CURVE",
"191 716 OFFCURVE",
"204 463 OFFCURVE",
"201 404 CURVE SMOOTH",
"198 327 OFFCURVE",
"195 24 OFFCURVE",
"162 -1 CURVE",
"150 -1 OFFCURVE",
"135 0 OFFCURVE",
"127 -10 CURVE SMOOTH",
"124 -14 OFFCURVE",
"122 -20 OFFCURVE",
"122 -26 CURVE SMOOTH",
"122 -38 OFFCURVE",
"130 -50 OFFCURVE",
"155 -50 CURVE SMOOTH"
);
}
);
width = 594;
}
);
unicode = 00DE;
},
{
glyphname = Q;
lastChange = "2021-11-12 19:44:43 +0000";
layers = (
{
background = {
paths = (
{
closed = 1;
nodes = (
"761 -156 OFFCURVE",
"767 -147 OFFCURVE",
"767 -139 CURVE SMOOTH",
"767 -123 OFFCURVE",
"748 -107 OFFCURVE",
"729 -112 CURVE SMOOTH",
"725 -113 LINE",
"721 -113 LINE SMOOTH",
"664 -116 OFFCURVE",
"625 -72 OFFCURVE",
"589 -35 CURVE",
"662 -5 OFFCURVE",
"740 53 OFFCURVE",
"773 127 CURVE SMOOTH",
"798 184 OFFCURVE",
"812 242 OFFCURVE",
"812 298 CURVE SMOOTH",
"812 367 OFFCURVE",
"792 434 OFFCURVE",
"746 496 CURVE SMOOTH",
"736 509 OFFCURVE",
"723 520 OFFCURVE",
"710 530 CURVE",
"712 540 OFFCURVE",
"713 549 OFFCURVE",
"713 559 CURVE SMOOTH",
"713 564 OFFCURVE",
"713 570 OFFCURVE",
"712 575 CURVE SMOOTH",
"699 693 OFFCURVE",
"579 738 OFFCURVE",
"468 738 CURVE SMOOTH",
"426 738 OFFCURVE",
"385 732 OFFCURVE",
"352 720 CURVE SMOOTH",
"246 683 OFFCURVE",
"170 608 OFFCURVE",
"126 516 CURVE",
"109 541 OFFCURVE",
"99 569 OFFCURVE",
"99 599 CURVE SMOOTH",
"99 611 OFFCURVE",
"102 641 OFFCURVE",
"111 654 CURVE",
"113 656 LINE",
"114 658 OFFCURVE",
"116 661 OFFCURVE",
"116 664 CURVE SMOOTH",
"117 668 OFFCURVE",
"117 672 OFFCURVE",
"117 675 CURVE SMOOTH",
"117 691 OFFCURVE",
"108 698 OFFCURVE",
"97 698 CURVE SMOOTH",
"86 698 OFFCURVE",
"74 691 OFFCURVE",
"69 680 CURVE SMOOTH",
"57 652 OFFCURVE",
"50 631 OFFCURVE",
"50 600 CURVE SMOOTH",
"50 549 OFFCURVE",
"72 502 OFFCURVE",
"105 464 CURVE",
"88 415 OFFCURVE",
"80 362 OFFCURVE",
"80 309 CURVE SMOOTH",
"80 296 OFFCURVE",
"80 283 OFFCURVE",
"81 270 CURVE SMOOTH",
"87 192 OFFCURVE",
"114 119 OFFCURVE",
"165 59 CURVE",
"163 57 LINE",
"155 53 LINE SMOOTH",
"146 49 OFFCURVE",
"141 40 OFFCURVE",
"141 31 CURVE SMOOTH",
"141 19 OFFCURVE",
"151 7 OFFCURVE",
"175 9 CURVE",
"175 9 OFFCURVE",
"195 18 OFFCURVE",
"203 21 CURVE",
"270 -34 OFFCURVE",
"358 -62 OFFCURVE",
"445 -62 CURVE SMOOTH",
"476 -62 OFFCURVE",
"506 -59 OFFCURVE",
"535 -52 CURVE",
"585 -101 OFFCURVE",
"625 -150 OFFCURVE",
"701 -159 CURVE SMOOTH",
"707 -160 OFFCURVE",
"723 -161 OFFCURVE",
"735 -161 CURVE SMOOTH",
"740 -161 OFFCURVE",
"744 -161 OFFCURVE",
"746 -160 CURVE"
);
},
{
closed = 1;
nodes = (
"474 -12 OFFCURVE",
"462 -13 OFFCURVE",
"449 -13 CURVE SMOOTH",
"384 -13 OFFCURVE",
"318 4 OFFCURVE",
"265 39 CURVE",
"279 41 OFFCURVE",
"293 42 OFFCURVE",
"307 42 CURVE SMOOTH",
"370 42 OFFCURVE",
"437 23 OFFCURVE",
"487 -11 CURVE"
);
},
{
closed = 1;
nodes = (
"532 -32 OFFCURVE",
"525 -26 OFFCURVE",
"517 -20 CURVE",
"527 -18 OFFCURVE",
"537 -14 OFFCURVE",
"546 -11 CURVE",
"567 -31 LINE",
"558 -34 OFFCURVE",
"548 -37 OFFCURVE",
"538 -39 CURVE"
);
},
{
closed = 1;
nodes = (
"479 59 OFFCURVE",
"399 92 OFFCURVE",
"314 92 CURVE SMOOTH",
"281 92 OFFCURVE",
"248 87 OFFCURVE",
"215 77 CURVE",
"162 130 OFFCURVE",
"136 197 OFFCURVE",
"130 272 CURVE SMOOTH",
"129 284 OFFCURVE",
"129 295 OFFCURVE",
"129 307 CURVE SMOOTH",
"129 347 OFFCURVE",
"134 388 OFFCURVE",
"145 426 CURVE",
"215 373 OFFCURVE",
"309 351 OFFCURVE",
"395 351 CURVE SMOOTH",
"496 351 OFFCURVE",
"632 380 OFFCURVE",
"690 477 CURVE SMOOTH",
"693 482 LINE",
"707 467 LINE",
"747 414 OFFCURVE",
"765 358 OFFCURVE",
"765 299 CURVE SMOOTH",
"765 249 OFFCURVE",
"752 198 OFFCURVE",
"730 147 CURVE SMOOTH",
"700 78 OFFCURVE",
"621 25 OFFCURVE",
"549 2 CURVE"
);
},
{
closed = 1;
nodes = (
"313 399 OFFCURVE",
"223 419 OFFCURVE",
"162 474 CURVE",
"213 598 OFFCURVE",
"329 690 OFFCURVE",
"464 690 CURVE SMOOTH",
"535 690 OFFCURVE",
"669 657 OFFCURVE",
"663 555 CURVE",
"639 564 OFFCURVE",
"614 569 OFFCURVE",
"590 569 CURVE SMOOTH",
"539 569 OFFCURVE",
"490 547 OFFCURVE",
"455 500 CURVE SMOOTH",
"449 493 OFFCURVE",
"431 466 OFFCURVE",
"429 458 CURVE SMOOTH",
"428 455 OFFCURVE",
"428 451 OFFCURVE",
"428 448 CURVE SMOOTH",
"428 433 OFFCURVE",
"438 423 OFFCURVE",
"450 423 CURVE SMOOTH",
"457 423 OFFCURVE",
"465 427 OFFCURVE",
"472 435 CURVE SMOOTH",
"475 439 OFFCURVE",
"477 443 OFFCURVE",
"479 447 CURVE SMOOTH",
"486 463 OFFCURVE",
"497 477 OFFCURVE",
"509 489 CURVE SMOOTH",
"532 510 OFFCURVE",
"562 520 OFFCURVE",
"593 520 CURVE SMOOTH",
"612 520 OFFCURVE",
"632 516 OFFCURVE",
"650 509 CURVE",
"604 422 OFFCURVE",
"479 399 OFFCURVE",
"395 399 CURVE SMOOTH"
);
}
);
};
layerId = "2ADFC918-CAA7-4AF7-825A-5AAC412EF250";
paths = (
{
closed = 1;
nodes = (
"740 -141 OFFCURVE",
"744 -141 OFFCURVE",
"746 -140 CURVE",
"761 -136 OFFCURVE",
"767 -127 OFFCURVE",
"767 -119 CURVE SMOOTH",
"767 -103 OFFCURVE",
"748 -87 OFFCURVE",
"729 -92 CURVE SMOOTH",
"725 -93 LINE",
"721 -93 LINE SMOOTH",
"664 -96 OFFCURVE",
"625 -52 OFFCURVE",
"589 -15 CURVE",
"662 15 OFFCURVE",
"740 73 OFFCURVE",
"773 147 CURVE SMOOTH",
"798 204 OFFCURVE",
"812 262 OFFCURVE",
"812 318 CURVE SMOOTH",
"812 387 OFFCURVE",
"792 454 OFFCURVE",
"746 516 CURVE SMOOTH",
"736 529 OFFCURVE",
"723 540 OFFCURVE",
"710 550 CURVE",
"712 560 OFFCURVE",
"713 569 OFFCURVE",
"713 579 CURVE SMOOTH",
"713 584 OFFCURVE",
"713 590 OFFCURVE",
"712 595 CURVE SMOOTH",
"699 713 OFFCURVE",
"579 758 OFFCURVE",
"468 758 CURVE SMOOTH",
"426 758 OFFCURVE",
"385 752 OFFCURVE",
"352 740 CURVE SMOOTH",
"246 703 OFFCURVE",
"170 628 OFFCURVE",
"126 536 CURVE",
"109 561 OFFCURVE",
"99 589 OFFCURVE",
"99 619 CURVE SMOOTH",
"99 631 OFFCURVE",
"102 661 OFFCURVE",
"111 674 CURVE",
"113 676 LINE",
"114 678 OFFCURVE",
"116 681 OFFCURVE",
"116 684 CURVE SMOOTH",
"117 688 OFFCURVE",
"117 692 OFFCURVE",
"117 695 CURVE SMOOTH",
"117 711 OFFCURVE",
"108 718 OFFCURVE",
"97 718 CURVE SMOOTH",
"86 718 OFFCURVE",
"74 711 OFFCURVE",
"69 700 CURVE SMOOTH",
"57 672 OFFCURVE",
"50 651 OFFCURVE",
"50 620 CURVE SMOOTH",
"50 569 OFFCURVE",
"72 522 OFFCURVE",
"105 484 CURVE",
"88 435 OFFCURVE",
"80 382 OFFCURVE",
"80 329 CURVE SMOOTH",
"80 316 OFFCURVE",
"80 303 OFFCURVE",
"81 290 CURVE SMOOTH",
"87 212 OFFCURVE",
"114 139 OFFCURVE",
"165 79 CURVE",
"163 77 LINE",
"155 73 LINE SMOOTH",
"146 69 OFFCURVE",
"141 60 OFFCURVE",
"141 51 CURVE SMOOTH",
"141 39 OFFCURVE",
"151 27 OFFCURVE",
"175 29 CURVE",
"175 29 OFFCURVE",
"195 38 OFFCURVE",
"203 41 CURVE",
"270 -14 OFFCURVE",
"358 -42 OFFCURVE",
"445 -42 CURVE SMOOTH",
"476 -42 OFFCURVE",
"506 -39 OFFCURVE",
"535 -32 CURVE",
"585 -81 OFFCURVE",
"625 -130 OFFCURVE",
"701 -139 CURVE SMOOTH",
"707 -140 OFFCURVE",
"723 -141 OFFCURVE",
"735 -141 CURVE SMOOTH"
);
},
{
closed = 1;
nodes = (
"384 7 OFFCURVE",
"318 24 OFFCURVE",
"265 59 CURVE",
"279 61 OFFCURVE",
"293 62 OFFCURVE",
"307 62 CURVE SMOOTH",
"370 62 OFFCURVE",
"437 43 OFFCURVE",
"487 9 CURVE",
"474 8 OFFCURVE",
"462 7 OFFCURVE",
"449 7 CURVE SMOOTH"
);
},
{
closed = 1;
nodes = (
"479 79 OFFCURVE",
"399 112 OFFCURVE",
"314 112 CURVE SMOOTH",
"281 112 OFFCURVE",
"248 107 OFFCURVE",
"215 97 CURVE",
"162 150 OFFCURVE",
"136 217 OFFCURVE",
"130 292 CURVE SMOOTH",
"129 304 OFFCURVE",
"129 315 OFFCURVE",
"129 327 CURVE SMOOTH",
"129 367 OFFCURVE",
"134 408 OFFCURVE",
"145 446 CURVE",
"215 393 OFFCURVE",
"309 371 OFFCURVE",
"395 371 CURVE SMOOTH",
"496 371 OFFCURVE",
"632 400 OFFCURVE",
"690 497 CURVE SMOOTH",
"693 502 LINE",
"707 487 LINE",
"747 434 OFFCURVE",
"765 378 OFFCURVE",
"765 319 CURVE SMOOTH",
"765 269 OFFCURVE",
"752 218 OFFCURVE",
"730 167 CURVE SMOOTH",
"700 98 OFFCURVE",
"621 45 OFFCURVE",
"549 22 CURVE"
);
},
{
closed = 1;
nodes = (
"313 419 OFFCURVE",
"223 439 OFFCURVE",
"162 494 CURVE",
"213 618 OFFCURVE",
"329 710 OFFCURVE",
"464 710 CURVE SMOOTH",
"535 710 OFFCURVE",
"669 677 OFFCURVE",
"663 575 CURVE",
"639 584 OFFCURVE",
"614 589 OFFCURVE",
"590 589 CURVE SMOOTH",
"539 589 OFFCURVE",
"490 567 OFFCURVE",
"455 520 CURVE SMOOTH",
"449 513 OFFCURVE",
"431 486 OFFCURVE",
"429 478 CURVE SMOOTH",
"428 475 OFFCURVE",
"428 471 OFFCURVE",
"428 468 CURVE SMOOTH",
"428 453 OFFCURVE",
"438 443 OFFCURVE",
"450 443 CURVE SMOOTH",
"457 443 OFFCURVE",
"465 447 OFFCURVE",
"472 455 CURVE SMOOTH",
"475 459 OFFCURVE",
"477 463 OFFCURVE",
"479 467 CURVE SMOOTH",
"486 483 OFFCURVE",
"497 497 OFFCURVE",
"509 509 CURVE SMOOTH",
"532 530 OFFCURVE",
"562 540 OFFCURVE",
"593 540 CURVE SMOOTH",
"612 540 OFFCURVE",
"632 536 OFFCURVE",
"650 529 CURVE",
"604 442 OFFCURVE",
"479 419 OFFCURVE",
"395 419 CURVE SMOOTH"
);
}
);
width = 861;
}
);
leftKerningGroup = O;
leftMetricsKey = O;
note = Q;
rightKerningGroup = O;
rightMetricsKey = O;
unicode = 0051;
},
{
glyphname = R;
lastChange = "2021-11-12 16:25:42 +0000";
layers = (
{
anchors = (
{
name = bottom;
position = "{540, 0}";
},
{
name = top;
position = "{642, 705}";
}
);
background = {
paths = (
{
closed = 1;
nodes = (
"887 -95 OFFCURVE",
"915 -92 OFFCURVE",
"925 -88 CURVE SMOOTH",
"936 -82 OFFCURVE",
"941 -73 OFFCURVE",
"941 -64 CURVE SMOOTH",
"941 -53 OFFCURVE",
"932 -42 OFFCURVE",
"914 -42 CURVE SMOOTH",
"909 -42 OFFCURVE",
"904 -44 OFFCURVE",
"899 -45 CURVE SMOOTH",
"894 -46 OFFCURVE",
"889 -47 OFFCURVE",
"884 -47 CURVE SMOOTH",
"803 -47 OFFCURVE",
"720 73 OFFCURVE",
"679 132 CURVE SMOOTH",
"644 181 OFFCURVE",
"600 237 OFFCURVE",
"548 282 CURVE",
"614 298 OFFCURVE",
"677 332 OFFCURVE",
"716 380 CURVE SMOOTH",
"745 416 OFFCURVE",
"761 460 OFFCURVE",
"761 504 CURVE SMOOTH",
"761 531 OFFCURVE",
"755 559 OFFCURVE",
"742 585 CURVE SMOOTH",
"681 708 OFFCURVE",
"519 738 OFFCURVE",
"399 738 CURVE SMOOTH",
"226 738 OFFCURVE",
"56 665 OFFCURVE",
"23 475 CURVE SMOOTH",
"21 462 OFFCURVE",
"20 450 OFFCURVE",
"20 437 CURVE SMOOTH",
"20 346 OFFCURVE",
"78 268 OFFCURVE",
"185 268 CURVE SMOOTH",
"213 268 OFFCURVE",
"242 274 OFFCURVE",
"266 288 CURVE SMOOTH",
"302 309 OFFCURVE",
"324 354 OFFCURVE",
"324 397 CURVE SMOOTH",
"324 434 OFFCURVE",
"308 469 OFFCURVE",
"272 486 CURVE SMOOTH",
"265 489 OFFCURVE",
"241 497 OFFCURVE",
"233 496 CURVE SMOOTH",
"215 493 OFFCURVE",
"208 484 OFFCURVE",
"208 475 CURVE SMOOTH",
"208 459 OFFCURVE",
"229 441 OFFCURVE",
"247 445 CURVE",
"249 445 LINE SMOOTH",
"251 445 OFFCURVE",
"251 444 OFFCURVE",
"257 440 CURVE SMOOTH",
"269 431 OFFCURVE",
"275 414 OFFCURVE",
"275 397 CURVE SMOOTH",
"275 370 OFFCURVE",
"263 342 OFFCURVE",
"244 331 CURVE SMOOTH",
"228 322 OFFCURVE",
"203 317 OFFCURVE",
"183 317 CURVE SMOOTH",
"108 317 OFFCURVE",
"69 371 OFFCURVE",
"69 436 CURVE SMOOTH",
"69 446 OFFCURVE",
"70 457 OFFCURVE",
"72 467 CURVE SMOOTH",
"98 631 OFFCURVE",
"247 689 OFFCURVE",
"399 689 CURVE SMOOTH",
"504 689 OFFCURVE",
"649 668 OFFCURVE",
"697 563 CURVE SMOOTH",
"706 542 OFFCURVE",
"711 521 OFFCURVE",
"711 500 CURVE SMOOTH",
"711 468 OFFCURVE",
"700 437 OFFCURVE",
"677 410 CURVE SMOOTH",
"641 369 OFFCURVE",
"568 332 OFFCURVE",
"500 319 CURVE",
"475 335 OFFCURVE",
"449 348 OFFCURVE",
"422 356 CURVE",
"426 405 OFFCURVE",
"434 510 OFFCURVE",
"461 549 CURVE",
"477 553 OFFCURVE",
"484 564 OFFCURVE",
"484 575 CURVE SMOOTH",
"484 585 OFFCURVE",
"476 595 OFFCURVE",
"462 595 CURVE SMOOTH",
"422 595 OFFCURVE",
"396 523 OFFCURVE",
"390 492 CURVE SMOOTH",
"382 450 OFFCURVE",
"378 405 OFFCURVE",
"373 362 CURVE",
"357 356 OFFCURVE",
"350 342 OFFCURVE",
"350 326 CURVE SMOOTH",
"350 312 OFFCURVE",
"356 298 OFFCURVE",
"365 289 CURVE",
"361 241 OFFCURVE",
"357 194 OFFCURVE",
"351 147 CURVE SMOOTH",
"344 89 LINE SMOOTH",
"341 52 OFFCURVE",
"337 28 OFFCURVE",
"318 -4 CURVE SMOOTH",
"306 -22 LINE SMOOTH",
"302 -29 OFFCURVE",
"297 -39 OFFCURVE",
"297 -48 CURVE SMOOTH",
"297 -55 OFFCURVE",
"299 -61 OFFCURVE",
"306 -66 CURVE SMOOTH",
"308 -68 OFFCURVE",
"312 -69 OFFCURVE",
"315 -69 CURVE SMOOTH",
"320 -69 OFFCURVE",
"325 -67 OFFCURVE",
"328 -66 CURVE SMOOTH",
"364 -50 OFFCURVE",
"387 48 OFFCURVE",
"393 83 CURVE SMOOTH",
"404 146 OFFCURVE",
"408 210 OFFCURVE",
"414 274 CURVE",
"427 272 OFFCURVE",
"440 271 OFFCURVE",
"454 271 CURVE SMOOTH",
"464 271 OFFCURVE",
"474 271 OFFCURVE",
"484 272 CURVE",
"545 224 OFFCURVE",
"604 153 OFFCURVE",
"639 104 CURVE SMOOTH",
"694 26 OFFCURVE",
"773 -95 OFFCURVE",
"881 -95 CURVE SMOOTH"
);
},
{
closed = 1;
nodes = (
"418 312 LINE",
"418 311 LINE",
"413 317 LINE",
"422 315 OFFCURVE",
"431 314 OFFCURVE",
"440 314 CURVE",
"437 303 LINE"
);
}
);
};
layerId = "2ADFC918-CAA7-4AF7-825A-5AAC412EF250";
paths = (
{
closed = 1;
nodes = (
"887 -90 OFFCURVE",
"915 -87 OFFCURVE",
"925 -83 CURVE SMOOTH",
"936 -77 OFFCURVE",
"941 -68 OFFCURVE",
"941 -59 CURVE SMOOTH",
"941 -48 OFFCURVE",
"932 -37 OFFCURVE",
"914 -37 CURVE SMOOTH",
"909 -37 OFFCURVE",
"904 -39 OFFCURVE",
"899 -40 CURVE SMOOTH",
"894 -41 OFFCURVE",
"889 -42 OFFCURVE",
"884 -42 CURVE SMOOTH",
"803 -42 OFFCURVE",
"720 78 OFFCURVE",
"679 137 CURVE SMOOTH",
"644 186 OFFCURVE",
"600 242 OFFCURVE",
"548 287 CURVE",
"614 303 OFFCURVE",
"677 337 OFFCURVE",
"716 385 CURVE SMOOTH",
"745 421 OFFCURVE",
"761 465 OFFCURVE",
"761 509 CURVE SMOOTH",
"761 536 OFFCURVE",
"755 564 OFFCURVE",
"742 590 CURVE SMOOTH",
"681 713 OFFCURVE",
"519 743 OFFCURVE",
"399 743 CURVE SMOOTH",
"226 743 OFFCURVE",
"56 670 OFFCURVE",
"23 480 CURVE SMOOTH",
"21 467 OFFCURVE",
"20 455 OFFCURVE",
"20 442 CURVE SMOOTH",
"20 351 OFFCURVE",
"78 273 OFFCURVE",
"185 273 CURVE SMOOTH",
"213 273 OFFCURVE",
"242 279 OFFCURVE",
"266 293 CURVE SMOOTH",
"302 314 OFFCURVE",
"324 359 OFFCURVE",
"324 402 CURVE SMOOTH",
"324 439 OFFCURVE",
"308 474 OFFCURVE",
"272 491 CURVE SMOOTH",
"265 494 OFFCURVE",
"241 502 OFFCURVE",
"233 501 CURVE SMOOTH",
"215 498 OFFCURVE",
"208 489 OFFCURVE",
"208 480 CURVE SMOOTH",
"208 464 OFFCURVE",
"229 446 OFFCURVE",
"247 450 CURVE",
"249 450 LINE SMOOTH",
"251 450 OFFCURVE",
"251 449 OFFCURVE",
"257 445 CURVE SMOOTH",
"269 436 OFFCURVE",
"275 419 OFFCURVE",
"275 402 CURVE SMOOTH",
"275 375 OFFCURVE",
"263 347 OFFCURVE",
"244 336 CURVE SMOOTH",
"228 327 OFFCURVE",
"203 322 OFFCURVE",
"183 322 CURVE SMOOTH",
"108 322 OFFCURVE",
"69 376 OFFCURVE",
"69 441 CURVE SMOOTH",
"69 451 OFFCURVE",
"70 462 OFFCURVE",
"72 472 CURVE SMOOTH",
"98 636 OFFCURVE",
"247 694 OFFCURVE",
"399 694 CURVE SMOOTH",
"504 694 OFFCURVE",
"649 673 OFFCURVE",
"697 568 CURVE SMOOTH",
"706 547 OFFCURVE",
"711 526 OFFCURVE",
"711 505 CURVE SMOOTH",
"711 473 OFFCURVE",
"700 442 OFFCURVE",
"677 415 CURVE SMOOTH",
"641 374 OFFCURVE",
"568 337 OFFCURVE",
"500 324 CURVE",
"475 340 OFFCURVE",
"449 353 OFFCURVE",
"422 361 CURVE",
"426 410 OFFCURVE",
"434 515 OFFCURVE",
"461 554 CURVE",
"477 558 OFFCURVE",
"484 569 OFFCURVE",
"484 580 CURVE SMOOTH",
"484 590 OFFCURVE",
"476 600 OFFCURVE",
"462 600 CURVE SMOOTH",
"422 600 OFFCURVE",
"396 528 OFFCURVE",
"390 497 CURVE SMOOTH",
"382 455 OFFCURVE",
"378 410 OFFCURVE",
"373 367 CURVE",
"357 361 OFFCURVE",
"350 347 OFFCURVE",
"350 331 CURVE SMOOTH",
"350 317 OFFCURVE",
"356 303 OFFCURVE",
"365 294 CURVE",
"361 246 OFFCURVE",
"357 199 OFFCURVE",
"351 152 CURVE SMOOTH",
"344 94 LINE SMOOTH",
"340 57 OFFCURVE",
"339 32 OFFCURVE",
"318 1 CURVE SMOOTH",
"306 -17 LINE SMOOTH",
"302 -24 OFFCURVE",
"297 -34 OFFCURVE",
"297 -43 CURVE SMOOTH",
"297 -50 OFFCURVE",
"299 -56 OFFCURVE",
"306 -61 CURVE SMOOTH",
"308 -63 OFFCURVE",
"312 -64 OFFCURVE",
"315 -64 CURVE SMOOTH",
"320 -64 OFFCURVE",
"325 -62 OFFCURVE",
"328 -61 CURVE SMOOTH",
"364 -45 OFFCURVE",
"387 53 OFFCURVE",
"393 88 CURVE SMOOTH",
"404 151 OFFCURVE",
"408 215 OFFCURVE",
"414 279 CURVE",
"427 277 OFFCURVE",
"440 276 OFFCURVE",
"454 276 CURVE SMOOTH",
"464 276 OFFCURVE",
"474 276 OFFCURVE",
"484 277 CURVE",
"545 229 OFFCURVE",
"604 158 OFFCURVE",
"639 109 CURVE SMOOTH",
"694 31 OFFCURVE",
"773 -90 OFFCURVE",
"881 -90 CURVE SMOOTH"
);
},
{
closed = 1;
nodes = (
"418 317 LINE",
"418 316 LINE",
"413 322 LINE",
"422 320 OFFCURVE",
"431 319 OFFCURVE",
"440 319 CURVE",
"437 308 LINE"
);
}
);
width = 840;
}
);
leftKerningGroup = R;
note = R;
rightKerningGroup = R;
unicode = 0052;
},
{
glyphname = S;
lastChange = "2021-11-12 16:25:55 +0000";
layers = (
{
anchors = (
{
name = bottom;
position = "{311, -56}";
},
{
name = top;
position = "{353, 747}";
}
);
background = {
paths = (
{
closed = 1;
nodes = (
"443 -85 OFFCURVE",
"608 3 OFFCURVE",
"608 172 CURVE SMOOTH",
"608 308 OFFCURVE",
"504 374 OFFCURVE",
"389 408 CURVE SMOOTH",
"340 422 OFFCURVE",
"210 455 OFFCURVE",
"196 511 CURVE SMOOTH",
"193 522 OFFCURVE",
"192 533 OFFCURVE",
"192 544 CURVE SMOOTH",
"192 625 OFFCURVE",
"270 678 OFFCURVE",
"353 678 CURVE SMOOTH",
"382 678 OFFCURVE",
"411 673 OFFCURVE",
"437 659 CURVE SMOOTH",
"466 644 OFFCURVE",
"493 611 OFFCURVE",
"493 579 CURVE SMOOTH",
"493 556 OFFCURVE",
"483 546 OFFCURVE",
"469 537 CURVE SMOOTH",
"465 534 OFFCURVE",
"459 533 OFFCURVE",
"453 533 CURVE SMOOTH",
"442 533 OFFCURVE",
"431 538 OFFCURVE",
"430 550 CURVE SMOOTH",
"430 555 OFFCURVE",
"431 558 OFFCURVE",
"431 562 CURVE SMOOTH",
"431 565 OFFCURVE",
"431 567 OFFCURVE",
"430 570 CURVE SMOOTH",
"426 582 OFFCURVE",
"419 587 OFFCURVE",
"412 587 CURVE SMOOTH",
"399 587 OFFCURVE",
"384 573 OFFCURVE",
"382 558 CURVE SMOOTH",
"376 509 OFFCURVE",
"413 486 OFFCURVE",
"451 486 CURVE SMOOTH",
"472 486 OFFCURVE",
"494 493 OFFCURVE",
"510 507 CURVE SMOOTH",
"534 528 OFFCURVE",
"543 552 OFFCURVE",
"543 578 CURVE SMOOTH",
"543 624 OFFCURVE",
"510 671 OFFCURVE",
"472 695 CURVE SMOOTH",
"436 718 OFFCURVE",
"394 727 OFFCURVE",
"353 727 CURVE SMOOTH",
"247 727 OFFCURVE",
"143 656 OFFCURVE",
"143 549 CURVE SMOOTH",
"143 533 OFFCURVE",
"145 516 OFFCURVE",
"150 499 CURVE SMOOTH",
"176 408 OFFCURVE",
"297 386 OFFCURVE",
"375 362 CURVE SMOOTH",
"472 332 OFFCURVE",
"559 283 OFFCURVE",
"559 172 CURVE SMOOTH",
"559 35 OFFCURVE",
"419 -36 OFFCURVE",
"295 -36 CURVE SMOOTH",
"257 -36 OFFCURVE",
"219 -30 OFFCURVE",
"184 -16 CURVE SMOOTH",
"112 12 OFFCURVE",
"56 71 OFFCURVE",
"56 146 CURVE SMOOTH",
"56 155 OFFCURVE",
"56 164 OFFCURVE",
"58 173 CURVE SMOOTH",
"71 246 OFFCURVE",
"110 284 OFFCURVE",
"178 284 CURVE SMOOTH",
"249 284 OFFCURVE",
"312 241 OFFCURVE",
"312 167 CURVE SMOOTH",
"312 157 OFFCURVE",
"311 148 OFFCURVE",
"309 141 CURVE SMOOTH",
"300 114 OFFCURVE",
"253 92 OFFCURVE",
"220 92 CURVE SMOOTH",
"215 92 OFFCURVE",
"209 93 OFFCURVE",
"205 94 CURVE SMOOTH",
"197 96 OFFCURVE",
"195 95 OFFCURVE",
"195 97 CURVE",
"194 99 LINE SMOOTH",
"189 109 OFFCURVE",
"176 115 OFFCURVE",
"164 115 CURVE SMOOTH",
"151 115 OFFCURVE",
"140 109 OFFCURVE",
"140 95 CURVE SMOOTH",
"140 91 OFFCURVE",
"142 85 OFFCURVE",
"145 78 CURVE SMOOTH",
"148 72 OFFCURVE",
"170 57 OFFCURVE",
"176 54 CURVE SMOOTH",
"192 46 OFFCURVE",
"209 42 OFFCURVE",
"227 42 CURVE SMOOTH",
"281 42 OFFCURVE",
"338 77 OFFCURVE",
"355 128 CURVE SMOOTH",
"360 143 OFFCURVE",
"362 158 OFFCURVE",
"362 173 CURVE SMOOTH",
"362 254 OFFCURVE",
"290 320 OFFCURVE",
"209 331 CURVE SMOOTH",
"199 332 OFFCURVE",
"189 333 OFFCURVE",
"180 333 CURVE SMOOTH",
"90 333 OFFCURVE",
"23 274 OFFCURVE",
"9 181 CURVE SMOOTH",
"7 169 OFFCURVE",
"6 157 OFFCURVE",
"6 146 CURVE SMOOTH",
"6 -2 OFFCURVE",
"159 -85 OFFCURVE",
"295 -85 CURVE SMOOTH"
);
}
);
};
layerId = "2ADFC918-CAA7-4AF7-825A-5AAC412EF250";
paths = (
{
closed = 1;
nodes = (
"443 -65 OFFCURVE",
"608 23 OFFCURVE",
"608 192 CURVE SMOOTH",
"608 328 OFFCURVE",
"504 394 OFFCURVE",
"389 428 CURVE SMOOTH",
"340 442 OFFCURVE",
"210 475 OFFCURVE",
"196 531 CURVE SMOOTH",
"193 542 OFFCURVE",
"192 553 OFFCURVE",
"192 564 CURVE SMOOTH",
"192 645 OFFCURVE",
"270 698 OFFCURVE",
"353 698 CURVE SMOOTH",
"382 698 OFFCURVE",
"411 693 OFFCURVE",
"437 679 CURVE SMOOTH",
"466 664 OFFCURVE",
"493 631 OFFCURVE",
"493 599 CURVE SMOOTH",
"493 576 OFFCURVE",
"483 566 OFFCURVE",
"469 557 CURVE SMOOTH",
"465 554 OFFCURVE",
"459 553 OFFCURVE",
"453 553 CURVE SMOOTH",
"442 553 OFFCURVE",
"431 558 OFFCURVE",
"430 570 CURVE SMOOTH",
"430 575 OFFCURVE",
"431 578 OFFCURVE",
"431 582 CURVE SMOOTH",
"431 585 OFFCURVE",
"431 587 OFFCURVE",
"430 590 CURVE SMOOTH",
"426 602 OFFCURVE",
"419 607 OFFCURVE",
"412 607 CURVE SMOOTH",
"399 607 OFFCURVE",
"384 593 OFFCURVE",
"382 578 CURVE SMOOTH",
"376 529 OFFCURVE",
"413 506 OFFCURVE",
"451 506 CURVE SMOOTH",
"472 506 OFFCURVE",
"494 513 OFFCURVE",
"510 527 CURVE SMOOTH",
"534 548 OFFCURVE",
"543 572 OFFCURVE",
"543 598 CURVE SMOOTH",
"543 644 OFFCURVE",
"510 691 OFFCURVE",
"472 715 CURVE SMOOTH",
"436 738 OFFCURVE",
"394 747 OFFCURVE",
"353 747 CURVE SMOOTH",
"247 747 OFFCURVE",
"143 676 OFFCURVE",
"143 569 CURVE SMOOTH",
"143 553 OFFCURVE",
"145 536 OFFCURVE",
"150 519 CURVE SMOOTH",
"176 428 OFFCURVE",
"297 406 OFFCURVE",
"375 382 CURVE SMOOTH",
"472 352 OFFCURVE",
"559 303 OFFCURVE",
"559 192 CURVE SMOOTH",
"559 55 OFFCURVE",
"419 -16 OFFCURVE",
"295 -16 CURVE SMOOTH",
"257 -16 OFFCURVE",
"219 -10 OFFCURVE",
"184 4 CURVE SMOOTH",
"112 32 OFFCURVE",
"56 91 OFFCURVE",
"56 166 CURVE SMOOTH",
"56 175 OFFCURVE",
"56 184 OFFCURVE",
"58 193 CURVE SMOOTH",
"71 266 OFFCURVE",
"110 304 OFFCURVE",
"178 304 CURVE SMOOTH",
"249 304 OFFCURVE",
"312 261 OFFCURVE",
"312 187 CURVE SMOOTH",
"312 177 OFFCURVE",
"311 168 OFFCURVE",
"309 161 CURVE SMOOTH",
"300 134 OFFCURVE",
"253 112 OFFCURVE",
"220 112 CURVE SMOOTH",
"215 112 OFFCURVE",
"209 113 OFFCURVE",
"205 114 CURVE SMOOTH",
"197 116 OFFCURVE",
"195 115 OFFCURVE",
"195 117 CURVE",
"194 119 LINE SMOOTH",
"189 129 OFFCURVE",
"176 135 OFFCURVE",
"164 135 CURVE SMOOTH",
"151 135 OFFCURVE",
"140 129 OFFCURVE",
"140 115 CURVE SMOOTH",
"140 111 OFFCURVE",
"142 105 OFFCURVE",
"145 98 CURVE SMOOTH",
"148 92 OFFCURVE",
"170 77 OFFCURVE",
"176 74 CURVE SMOOTH",
"192 66 OFFCURVE",
"209 62 OFFCURVE",
"227 62 CURVE SMOOTH",
"281 62 OFFCURVE",
"338 97 OFFCURVE",
"355 148 CURVE SMOOTH",
"360 163 OFFCURVE",
"362 178 OFFCURVE",
"362 193 CURVE SMOOTH",
"362 274 OFFCURVE",
"290 340 OFFCURVE",
"209 351 CURVE SMOOTH",
"199 352 OFFCURVE",
"189 353 OFFCURVE",
"180 353 CURVE SMOOTH",
"90 353 OFFCURVE",
"23 294 OFFCURVE",
"9 201 CURVE SMOOTH",
"7 189 OFFCURVE",
"6 177 OFFCURVE",
"6 166 CURVE SMOOTH",
"6 18 OFFCURVE",
"159 -65 OFFCURVE",
"295 -65 CURVE SMOOTH"
);
}
);
width = 646;
}
);
leftKerningGroup = S;
note = S;
rightKerningGroup = S;
unicode = 0053;
},
{
glyphname = Germandbls;
lastChange = "2021-11-11 14:10:08 +0000";
layers = (
{
background = {
paths = (
{
closed = 1;
nodes = (
"56 -64 OFFCURVE",
"100 124 OFFCURVE",
"121 231 CURVE SMOOTH",
"130 277 OFFCURVE",
"172 546 OFFCURVE",
"205 589 CURVE SMOOTH",
"227 617 OFFCURVE",
"258 632 OFFCURVE",
"308 632 CURVE SMOOTH",
"340 632 OFFCURVE",
"410 616 OFFCURVE",
"410 569 CURVE SMOOTH",
"410 563 OFFCURVE",
"408 557 OFFCURVE",
"406 550 CURVE SMOOTH",
"379 470 OFFCURVE",
"281 425 OFFCURVE",
"209 391 CURVE",
"195 377 OFFCURVE",
"188 363 OFFCURVE",
"188 348 CURVE SMOOTH",
"188 314 OFFCURVE",
"225 278 OFFCURVE",
"306 251 CURVE SMOOTH",
"362 232 OFFCURVE",
"394 200 OFFCURVE",
"394 142 CURVE SMOOTH",
"394 80 OFFCURVE",
"358 41 OFFCURVE",
"312 23 CURVE SMOOTH",
"291 15 OFFCURVE",
"268 11 OFFCURVE",
"246 11 CURVE SMOOTH",
"194 11 OFFCURVE",
"150 33 OFFCURVE",
"155 75 CURVE SMOOTH",
"156 79 OFFCURVE",
"157 84 OFFCURVE",
"157 87 CURVE SMOOTH",
"157 103 OFFCURVE",
"146 112 OFFCURVE",
"135 112 CURVE SMOOTH",
"123 112 OFFCURVE",
"110 102 OFFCURVE",
"105 80 CURVE",
"104 3 OFFCURVE",
"168 -33 OFFCURVE",
"241 -33 CURVE SMOOTH",
"270 -33 OFFCURVE",
"301 -27 OFFCURVE",
"329 -16 CURVE SMOOTH",
"395 11 OFFCURVE",
"447 68 OFFCURVE",
"444 144 CURVE SMOOTH",
"441 222 OFFCURVE",
"399 271 OFFCURVE",
"325 295 CURVE SMOOTH",
"293 305 OFFCURVE",
"248 319 OFFCURVE",
"235 350 CURVE",
"359 416 OFFCURVE",
"441 463 OFFCURVE",
"454 557 CURVE SMOOTH",
"455 564 OFFCURVE",
"455 570 OFFCURVE",
"455 576 CURVE SMOOTH",
"455 660 OFFCURVE",
"366 673 OFFCURVE",
"316 673 CURVE SMOOTH",
"233 673 OFFCURVE",
"187 654 OFFCURVE",
"162 617 CURVE SMOOTH",
"138 581 OFFCURVE",
"138 561 OFFCURVE",
"70 224 CURVE SMOOTH",
"52 135 OFFCURVE",
"0 -80 OFFCURVE",
"-8 -107 CURVE SMOOTH",
"-10 -113 OFFCURVE",
"-10 -118 OFFCURVE",
"-10 -123 CURVE SMOOTH",
"-10 -137 OFFCURVE",
"-3 -145 OFFCURVE",
"6 -145 CURVE SMOOTH",
"17 -145 OFFCURVE",
"30 -135 OFFCURVE",
"39 -111 CURVE SMOOTH"
);
}
);
};
layerId = "2ADFC918-CAA7-4AF7-825A-5AAC412EF250";
paths = (
{
closed = 1;
nodes = (
"17 -125 OFFCURVE",
"30 -115 OFFCURVE",
"39 -91 CURVE SMOOTH",
"56 -44 OFFCURVE",
"100 144 OFFCURVE",
"121 251 CURVE SMOOTH",
"130 297 OFFCURVE",
"172 566 OFFCURVE",
"205 609 CURVE SMOOTH",
"227 637 OFFCURVE",
"258 652 OFFCURVE",
"308 652 CURVE SMOOTH",
"340 652 OFFCURVE",
"410 636 OFFCURVE",
"410 589 CURVE SMOOTH",
"410 583 OFFCURVE",
"408 577 OFFCURVE",
"406 570 CURVE SMOOTH",
"379 490 OFFCURVE",
"281 445 OFFCURVE",
"209 411 CURVE",
"195 397 OFFCURVE",
"188 383 OFFCURVE",
"188 368 CURVE SMOOTH",
"188 334 OFFCURVE",
"225 298 OFFCURVE",
"306 271 CURVE SMOOTH",
"362 252 OFFCURVE",
"394 220 OFFCURVE",
"394 162 CURVE SMOOTH",
"394 100 OFFCURVE",
"358 61 OFFCURVE",
"312 43 CURVE SMOOTH",
"291 35 OFFCURVE",
"268 31 OFFCURVE",
"246 31 CURVE SMOOTH",
"194 31 OFFCURVE",
"150 53 OFFCURVE",
"155 95 CURVE SMOOTH",
"156 99 OFFCURVE",
"157 104 OFFCURVE",
"157 107 CURVE SMOOTH",
"157 123 OFFCURVE",
"146 132 OFFCURVE",
"135 132 CURVE SMOOTH",
"123 132 OFFCURVE",
"110 122 OFFCURVE",
"105 100 CURVE",
"104 23 OFFCURVE",
"168 -13 OFFCURVE",
"241 -13 CURVE SMOOTH",
"270 -13 OFFCURVE",
"301 -7 OFFCURVE",
"329 4 CURVE SMOOTH",
"393 30 OFFCURVE",
"444 85 OFFCURVE",
"444 158 CURVE SMOOTH",
"444 239 OFFCURVE",
"401 290 OFFCURVE",
"325 315 CURVE SMOOTH",
"293 325 OFFCURVE",
"248 339 OFFCURVE",
"235 370 CURVE",
"359 436 OFFCURVE",
"441 483 OFFCURVE",
"454 577 CURVE SMOOTH",
"455 584 OFFCURVE",
"455 590 OFFCURVE",
"455 596 CURVE SMOOTH",
"455 680 OFFCURVE",
"366 693 OFFCURVE",
"316 693 CURVE SMOOTH",
"233 693 OFFCURVE",
"187 674 OFFCURVE",
"162 637 CURVE SMOOTH",
"138 601 OFFCURVE",
"138 581 OFFCURVE",
"70 244 CURVE SMOOTH",
"52 155 OFFCURVE",
"0 -60 OFFCURVE",
"-8 -87 CURVE SMOOTH",
"-10 -93 OFFCURVE",
"-10 -98 OFFCURVE",
"-10 -103 CURVE SMOOTH",
"-10 -117 OFFCURVE",
"-3 -125 OFFCURVE",
"6 -125 CURVE SMOOTH"
);
}
);
width = 474;
}
);
unicode = 1E9E;
},
{
glyphname = Schwa;
lastChange = "2021-11-11 00:11:46 +0000";
layers = (
{
background = {
anchors = (
{
name = bottom;
position = "{344, -47}";
},
{
name = top;
position = "{328, 733}";
}
);
paths = (
{
closed = 1;
nodes = (
"514 15 OFFCURVE",
"616 196 OFFCURVE",
"616 393 CURVE SMOOTH",
"616 594 OFFCURVE",
"512 740 OFFCURVE",
"326 740 CURVE SMOOTH",
"238 740 OFFCURVE",
"141 697 OFFCURVE",
"90 615 CURVE SMOOTH",
"77 593 OFFCURVE",
"66 567 OFFCURVE",
"66 539 CURVE SMOOTH",
"66 530 OFFCURVE",
"72 518 OFFCURVE",
"80 518 CURVE SMOOTH",
"104 518 OFFCURVE",
"99 551 OFFCURVE",
"114 573 CURVE",
"139 625 OFFCURVE",
"201 667 OFFCURVE",
"252 683 CURVE SMOOTH",
"277 691 OFFCURVE",
"300 694 OFFCURVE",
"326 694 CURVE SMOOTH",
"492 694 OFFCURVE",
"573 570 OFFCURVE",
"573 391 CURVE SMOOTH",
"573 219 OFFCURVE",
"481 60 OFFCURVE",
"293 60 CURVE SMOOTH",
"208 60 OFFCURVE",
"113 107 OFFCURVE",
"113 214 CURVE SMOOTH",
"113 289 OFFCURVE",
"205 387 OFFCURVE",
"395 387 CURVE SMOOTH",
"444 387 OFFCURVE",
"500 380 OFFCURVE",
"563 365 CURVE SMOOTH",
"567 364 OFFCURVE",
"570 364 OFFCURVE",
"574 364 CURVE SMOOTH",
"592 364 OFFCURVE",
"608 374 OFFCURVE",
"608 385 CURVE SMOOTH",
"608 395 OFFCURVE",
"597 405 OFFCURVE",
"569 410 CURVE SMOOTH",
"507 421 OFFCURVE",
"452 426 OFFCURVE",
"403 426 CURVE SMOOTH",
"170 426 OFFCURVE",
"69 314 OFFCURVE",
"69 214 CURVE SMOOTH",
"69 77 OFFCURVE",
"188 15 OFFCURVE",
"291 15 CURVE SMOOTH"
);
}
);
};
layerId = "2ADFC918-CAA7-4AF7-825A-5AAC412EF250";
paths = (
{
closed = 1;
nodes = (
"514 35 OFFCURVE",
"616 216 OFFCURVE",
"616 413 CURVE SMOOTH",
"616 614 OFFCURVE",
"512 760 OFFCURVE",
"326 760 CURVE SMOOTH",
"238 760 OFFCURVE",
"141 717 OFFCURVE",
"90 635 CURVE SMOOTH",
"77 613 OFFCURVE",
"66 587 OFFCURVE",
"66 559 CURVE SMOOTH",
"66 550 OFFCURVE",
"72 538 OFFCURVE",
"80 538 CURVE SMOOTH",
"104 538 OFFCURVE",
"99 571 OFFCURVE",
"114 593 CURVE",
"139 645 OFFCURVE",
"201 687 OFFCURVE",
"252 703 CURVE SMOOTH",
"277 711 OFFCURVE",
"300 714 OFFCURVE",
"326 714 CURVE SMOOTH",
"492 714 OFFCURVE",
"573 590 OFFCURVE",
"573 411 CURVE SMOOTH",
"573 239 OFFCURVE",
"481 80 OFFCURVE",
"293 80 CURVE SMOOTH",
"208 80 OFFCURVE",
"113 127 OFFCURVE",
"113 234 CURVE SMOOTH",
"113 309 OFFCURVE",
"205 407 OFFCURVE",
"395 407 CURVE SMOOTH",
"444 407 OFFCURVE",
"500 400 OFFCURVE",
"563 385 CURVE SMOOTH",
"567 384 OFFCURVE",
"570 384 OFFCURVE",
"574 384 CURVE SMOOTH",
"592 384 OFFCURVE",
"608 394 OFFCURVE",
"608 405 CURVE SMOOTH",
"608 415 OFFCURVE",
"597 425 OFFCURVE",
"569 430 CURVE SMOOTH",
"507 441 OFFCURVE",
"452 446 OFFCURVE",
"403 446 CURVE SMOOTH",
"170 446 OFFCURVE",
"69 334 OFFCURVE",
"69 234 CURVE SMOOTH",
"69 97 OFFCURVE",
"188 35 OFFCURVE",
"291 35 CURVE SMOOTH"
);
}
);
width = 689;
}
);
unicode = 018F;
},
{
glyphname = T;
lastChange = "2021-11-12 19:46:05 +0000";
layers = (
{
anchors = (
{
name = bottom;
position = "{294, -34}";
},
{
name = center;
position = "{551, 470}";
},
{
name = top;
position = "{612, 742}";
}
);
background = {
paths = (
{
closed = 1;
nodes = (
"519 -65 OFFCURVE",
"583 147 OFFCURVE",
"580 363 CURVE SMOOTH",
"580 378 OFFCURVE",
"577 415 OFFCURVE",
"576 460 CURVE SMOOTH",
"576 473 OFFCURVE",
"575 487 OFFCURVE",
"575 500 CURVE SMOOTH",
"575 531 OFFCURVE",
"577 563 OFFCURVE",
"580 591 CURVE",
"610 584 OFFCURVE",
"652 576 OFFCURVE",
"693 576 CURVE SMOOTH",
"739 576 OFFCURVE",
"783 586 OFFCURVE",
"812 616 CURVE SMOOTH",
"816 620 OFFCURVE",
"829 636 OFFCURVE",
"830 642 CURVE SMOOTH",
"831 646 OFFCURVE",
"831 650 OFFCURVE",
"831 653 CURVE SMOOTH",
"831 668 OFFCURVE",
"824 673 OFFCURVE",
"814 673 CURVE SMOOTH",
"800 673 OFFCURVE",
"782 661 OFFCURVE",
"782 651 CURVE SMOOTH",
"782 650 LINE SMOOTH",
"782 649 OFFCURVE",
"781 649 OFFCURVE",
"777 646 CURVE SMOOTH",
"758 632 OFFCURVE",
"724 627 OFFCURVE",
"690 627 CURVE SMOOTH",
"654 627 OFFCURVE",
"618 632 OFFCURVE",
"594 638 CURVE SMOOTH",
"590 639 LINE",
"597 663 OFFCURVE",
"607 674 OFFCURVE",
"619 674 CURVE SMOOTH",
"633 674 OFFCURVE",
"640 683 OFFCURVE",
"640 694 CURVE SMOOTH",
"640 707 OFFCURVE",
"630 721 OFFCURVE",
"612 722 CURVE SMOOTH",
"604 722 OFFCURVE",
"581 707 OFFCURVE",
"576 703 CURVE SMOOTH",
"561 690 OFFCURVE",
"550 673 OFFCURVE",
"542 653 CURVE",
"510 663 OFFCURVE",
"478 675 OFFCURVE",
"446 685 CURVE SMOOTH",
"387 704 OFFCURVE",
"330 715 OFFCURVE",
"268 715 CURVE SMOOTH",
"146 715 OFFCURVE",
"75 616 OFFCURVE",
"75 524 CURVE SMOOTH",
"75 459 OFFCURVE",
"111 397 OFFCURVE",
"190 378 CURVE SMOOTH",
"200 375 OFFCURVE",
"212 374 OFFCURVE",
"223 374 CURVE SMOOTH",
"290 374 OFFCURVE",
"371 414 OFFCURVE",
"375 485 CURVE SMOOTH",
"375 491 OFFCURVE",
"375 513 OFFCURVE",
"370 521 CURVE SMOOTH",
"363 532 OFFCURVE",
"356 537 OFFCURVE",
"350 537 CURVE SMOOTH",
"336 537 OFFCURVE",
"326 515 OFFCURVE",
"326 501 CURVE SMOOTH",
"326 494 OFFCURVE",
"328 489 OFFCURVE",
"332 487 CURVE",
"329 483 LINE",
"319 449 OFFCURVE",
"258 423 OFFCURVE",
"217 423 CURVE SMOOTH",
"212 423 OFFCURVE",
"207 423 OFFCURVE",
"202 424 CURVE SMOOTH",
"150 435 OFFCURVE",
"125 479 OFFCURVE",
"125 526 CURVE SMOOTH",
"125 592 OFFCURVE",
"174 665 OFFCURVE",
"268 665 CURVE SMOOTH",
"365 665 OFFCURVE",
"439 631 OFFCURVE",
"529 604 CURVE",
"525 579 OFFCURVE",
"524 552 OFFCURVE",
"524 525 CURVE SMOOTH",
"524 509 OFFCURVE",
"524 493 OFFCURVE",
"525 478 CURVE SMOOTH",
"528 434 OFFCURVE",
"531 393 OFFCURVE",
"531 363 CURVE SMOOTH",
"529 169 OFFCURVE",
"489 -16 OFFCURVE",
"260 -16 CURVE SMOOTH",
"151 -16 OFFCURVE",
"82 61 OFFCURVE",
"82 161 CURVE SMOOTH",
"82 173 OFFCURVE",
"83 186 OFFCURVE",
"85 199 CURVE SMOOTH",
"96 263 OFFCURVE",
"163 314 OFFCURVE",
"222 314 CURVE SMOOTH",
"254 314 OFFCURVE",
"283 300 OFFCURVE",
"301 267 CURVE SMOOTH",
"307 255 OFFCURVE",
"311 241 OFFCURVE",
"311 227 CURVE SMOOTH",
"311 206 OFFCURVE",
"303 185 OFFCURVE",
"284 175 CURVE SMOOTH",
"275 170 OFFCURVE",
"271 169 OFFCURVE",
"268 169 CURVE SMOOTH",
"266 169 LINE SMOOTH",
"256 170 OFFCURVE",
"250 170 OFFCURVE",
"239 167 CURVE SMOOTH",
"221 163 OFFCURVE",
"214 153 OFFCURVE",
"214 143 CURVE SMOOTH",
"214 132 OFFCURVE",
"223 121 OFFCURVE",
"236 118 CURVE SMOOTH",
"249 115 OFFCURVE",
"277 120 OFFCURVE",
"289 124 CURVE SMOOTH",
"336 139 OFFCURVE",
"361 183 OFFCURVE",
"361 229 CURVE SMOOTH",
"361 251 OFFCURVE",
"355 273 OFFCURVE",
"343 292 CURVE SMOOTH",
"312 342 OFFCURVE",
"267 363 OFFCURVE",
"221 363 CURVE SMOOTH",
"138 363 OFFCURVE",
"51 295 OFFCURVE",
"36 207 CURVE SMOOTH",
"33 191 OFFCURVE",
"32 176 OFFCURVE",
"32 161 CURVE SMOOTH",
"32 36 OFFCURVE",
"126 -65 OFFCURVE",
"260 -65 CURVE SMOOTH"
);
}
);
};
layerId = "2ADFC918-CAA7-4AF7-825A-5AAC412EF250";
paths = (
{
closed = 1;
nodes = (
"519 -45 OFFCURVE",
"583 167 OFFCURVE",
"580 383 CURVE SMOOTH",
"580 398 OFFCURVE",
"577 435 OFFCURVE",
"576 480 CURVE SMOOTH",
"576 493 OFFCURVE",
"575 507 OFFCURVE",
"575 520 CURVE SMOOTH",
"575 551 OFFCURVE",
"577 583 OFFCURVE",
"580 611 CURVE",
"610 604 OFFCURVE",
"652 596 OFFCURVE",
"693 596 CURVE SMOOTH",
"739 596 OFFCURVE",
"783 606 OFFCURVE",
"812 636 CURVE SMOOTH",
"816 640 OFFCURVE",
"829 656 OFFCURVE",
"830 662 CURVE SMOOTH",
"831 666 OFFCURVE",
"831 670 OFFCURVE",
"831 673 CURVE SMOOTH",
"831 688 OFFCURVE",
"824 693 OFFCURVE",
"814 693 CURVE SMOOTH",
"800 693 OFFCURVE",
"782 681 OFFCURVE",
"782 671 CURVE SMOOTH",
"782 670 LINE SMOOTH",
"782 669 OFFCURVE",
"781 669 OFFCURVE",
"777 666 CURVE SMOOTH",
"758 652 OFFCURVE",
"724 647 OFFCURVE",
"690 647 CURVE SMOOTH",
"654 647 OFFCURVE",
"618 652 OFFCURVE",
"594 658 CURVE SMOOTH",
"590 659 LINE",
"597 683 OFFCURVE",
"607 694 OFFCURVE",
"619 694 CURVE SMOOTH",
"633 694 OFFCURVE",
"640 703 OFFCURVE",
"640 714 CURVE SMOOTH",
"640 727 OFFCURVE",
"630 741 OFFCURVE",
"612 742 CURVE SMOOTH",
"604 742 OFFCURVE",
"581 727 OFFCURVE",
"576 723 CURVE SMOOTH",
"561 710 OFFCURVE",
"550 693 OFFCURVE",
"542 673 CURVE",
"510 683 OFFCURVE",
"478 695 OFFCURVE",
"446 705 CURVE SMOOTH",
"387 724 OFFCURVE",
"330 735 OFFCURVE",
"268 735 CURVE SMOOTH",
"146 735 OFFCURVE",
"75 636 OFFCURVE",
"75 544 CURVE SMOOTH",
"75 479 OFFCURVE",
"111 417 OFFCURVE",
"190 398 CURVE SMOOTH",
"200 395 OFFCURVE",
"212 394 OFFCURVE",
"223 394 CURVE SMOOTH",
"290 394 OFFCURVE",
"371 434 OFFCURVE",
"375 505 CURVE SMOOTH",
"375 511 OFFCURVE",
"375 533 OFFCURVE",
"370 541 CURVE SMOOTH",
"363 552 OFFCURVE",
"356 557 OFFCURVE",
"350 557 CURVE SMOOTH",
"336 557 OFFCURVE",
"326 535 OFFCURVE",
"326 521 CURVE SMOOTH",
"326 514 OFFCURVE",
"328 509 OFFCURVE",
"332 507 CURVE",
"329 503 LINE",
"319 469 OFFCURVE",
"258 443 OFFCURVE",
"217 443 CURVE SMOOTH",
"212 443 OFFCURVE",
"207 443 OFFCURVE",
"202 444 CURVE SMOOTH",
"150 455 OFFCURVE",
"125 499 OFFCURVE",
"125 546 CURVE SMOOTH",
"125 612 OFFCURVE",
"174 685 OFFCURVE",
"268 685 CURVE SMOOTH",
"365 685 OFFCURVE",
"439 651 OFFCURVE",
"529 624 CURVE",
"525 599 OFFCURVE",
"524 572 OFFCURVE",
"524 545 CURVE SMOOTH",
"524 529 OFFCURVE",
"524 513 OFFCURVE",
"525 498 CURVE SMOOTH",
"528 454 OFFCURVE",
"531 413 OFFCURVE",
"531 383 CURVE SMOOTH",
"529 189 OFFCURVE",
"489 4 OFFCURVE",
"260 4 CURVE SMOOTH",
"151 4 OFFCURVE",
"82 81 OFFCURVE",
"82 181 CURVE SMOOTH",
"82 193 OFFCURVE",
"83 206 OFFCURVE",
"85 219 CURVE SMOOTH",
"96 283 OFFCURVE",
"163 334 OFFCURVE",
"222 334 CURVE SMOOTH",
"254 334 OFFCURVE",
"283 320 OFFCURVE",
"301 287 CURVE SMOOTH",
"307 275 OFFCURVE",
"311 261 OFFCURVE",
"311 247 CURVE SMOOTH",
"311 226 OFFCURVE",
"303 205 OFFCURVE",
"284 195 CURVE SMOOTH",
"275 190 OFFCURVE",
"271 189 OFFCURVE",
"268 189 CURVE SMOOTH",
"266 189 LINE SMOOTH",
"256 189 OFFCURVE",
"250 190 OFFCURVE",
"239 187 CURVE SMOOTH",
"221 183 OFFCURVE",
"214 173 OFFCURVE",
"214 163 CURVE SMOOTH",
"214 149 OFFCURVE",
"228 137 OFFCURVE",
"246 137 CURVE SMOOTH",
"260 137 OFFCURVE",
"280 141 OFFCURVE",
"289 144 CURVE SMOOTH",
"336 159 OFFCURVE",
"361 203 OFFCURVE",
"361 249 CURVE SMOOTH",
"361 271 OFFCURVE",
"355 293 OFFCURVE",
"343 312 CURVE SMOOTH",
"312 362 OFFCURVE",
"267 383 OFFCURVE",
"221 383 CURVE SMOOTH",
"138 383 OFFCURVE",
"51 315 OFFCURVE",
"36 227 CURVE SMOOTH",
"33 211 OFFCURVE",
"32 196 OFFCURVE",
"32 181 CURVE SMOOTH",
"32 56 OFFCURVE",
"126 -45 OFFCURVE",
"260 -45 CURVE SMOOTH"
);
}
);
width = 664;
}
);
leftKerningGroup = T;
note = T;
rightKerningGroup = T;
unicode = 0054;
},
{
glyphname = U;
lastChange = "2021-11-12 16:29:08 +0000";
layers = (
{
anchors = (
{
name = bottom;
position = "{584, -34}";
},
{
name = ogonek;
position = "{986, -10}";
},
{
name = top;
position = "{697, 705}";
},
{
name = topright;
position = "{840, 661}";
}
);
background = {
paths = (
{
closed = 1;
nodes = (
"891 -66 OFFCURVE",
"896 -67 OFFCURVE",
"901 -67 CURVE SMOOTH",
"913 -67 OFFCURVE",
"918 -57 OFFCURVE",
"918 -46 CURVE SMOOTH",
"918 -36 OFFCURVE",
"914 -24 OFFCURVE",
"907 -17 CURVE SMOOTH",
"905 -15 LINE",
"904 -15 OFFCURVE",
"903 -14 OFFCURVE",
"903 -13 CURVE",
"870 30 OFFCURVE",
"860 134 OFFCURVE",
"860 247 CURVE SMOOTH",
"860 378 OFFCURVE",
"874 520 OFFCURVE",
"884 593 CURVE SMOOTH",
"885 603 OFFCURVE",
"886 609 OFFCURVE",
"888 618 CURVE SMOOTH",
"890 627 OFFCURVE",
"888 638 OFFCURVE",
"880 644 CURVE SMOOTH",
"875 647 OFFCURVE",
"871 648 OFFCURVE",
"868 648 CURVE SMOOTH",
"860 648 OFFCURVE",
"855 643 OFFCURVE",
"853 636 CURVE SMOOTH",
"849 621 OFFCURVE",
"848 604 OFFCURVE",
"843 573 CURVE SMOOTH",
"825 418 OFFCURVE",
"750 -4 OFFCURVE",
"537 -4 CURVE SMOOTH",
"445 -4 OFFCURVE",
"419 77 OFFCURVE",
"419 157 CURVE SMOOTH",
"419 170 OFFCURVE",
"420 184 OFFCURVE",
"421 197 CURVE SMOOTH",
"425 242 OFFCURVE",
"437 285 OFFCURVE",
"449 328 CURVE SMOOTH",
"465 383 OFFCURVE",
"478 444 OFFCURVE",
"478 502 CURVE SMOOTH",
"478 606 OFFCURVE",
"437 698 OFFCURVE",
"303 725 CURVE SMOOTH",
"287 728 OFFCURVE",
"271 730 OFFCURVE",
"255 730 CURVE SMOOTH",
"135 730 OFFCURVE",
"47 634 OFFCURVE",
"30 513 CURVE SMOOTH",
"28 501 OFFCURVE",
"28 489 OFFCURVE",
"28 477 CURVE SMOOTH",
"28 384 OFFCURVE",
"76 299 OFFCURVE",
"173 272 CURVE SMOOTH",
"191 267 OFFCURVE",
"210 265 OFFCURVE",
"230 265 CURVE SMOOTH",
"243 265 OFFCURVE",
"257 266 OFFCURVE",
"270 269 CURVE SMOOTH",
"351 287 OFFCURVE",
"394 364 OFFCURVE",
"394 431 CURVE SMOOTH",
"394 490 OFFCURVE",
"361 541 OFFCURVE",
"292 541 CURVE SMOOTH",
"278 541 OFFCURVE",
"261 539 OFFCURVE",
"251 535 CURVE SMOOTH",
"240 530 OFFCURVE",
"234 522 OFFCURVE",
"234 514 CURVE SMOOTH",
"234 501 OFFCURVE",
"246 489 OFFCURVE",
"265 489 CURVE SMOOTH",
"273 489 OFFCURVE",
"280 490 OFFCURVE",
"284 491 CURVE SMOOTH",
"292 494 OFFCURVE",
"292 497 OFFCURVE",
"296 497 CURVE SMOOTH",
"298 497 OFFCURVE",
"301 496 OFFCURVE",
"309 494 CURVE SMOOTH",
"333 488 OFFCURVE",
"345 462 OFFCURVE",
"345 432 CURVE SMOOTH",
"345 387 OFFCURVE",
"317 331 OFFCURVE",
"259 318 CURVE SMOOTH",
"250 316 OFFCURVE",
"239 315 OFFCURVE",
"227 315 CURVE SMOOTH",
"215 315 OFFCURVE",
"202 316 OFFCURVE",
"191 319 CURVE SMOOTH",
"113 336 OFFCURVE",
"77 400 OFFCURVE",
"77 473 CURVE SMOOTH",
"77 484 OFFCURVE",
"77 495 OFFCURVE",
"79 506 CURVE SMOOTH",
"92 607 OFFCURVE",
"157 680 OFFCURVE",
"253 680 CURVE SMOOTH",
"266 680 OFFCURVE",
"279 679 OFFCURVE",
"292 676 CURVE SMOOTH",
"398 655 OFFCURVE",
"430 587 OFFCURVE",
"430 506 CURVE SMOOTH",
"430 453 OFFCURVE",
"417 396 OFFCURVE",
"402 342 CURVE SMOOTH",
"388 293 OFFCURVE",
"378 244 OFFCURVE",
"374 193 CURVE SMOOTH",
"373 183 OFFCURVE",
"373 173 OFFCURVE",
"373 162 CURVE SMOOTH",
"373 61 OFFCURVE",
"407 -53 OFFCURVE",
"533 -53 CURVE SMOOTH",
"687 -53 OFFCURVE",
"771 110 OFFCURVE",
"815 238 CURVE",
"816 153 OFFCURVE",
"823 25 OFFCURVE",
"861 -36 CURVE SMOOTH",
"865 -42 OFFCURVE",
"878 -60 OFFCURVE",
"885 -63 CURVE SMOOTH"
);
}
);
};
layerId = "2ADFC918-CAA7-4AF7-825A-5AAC412EF250";
paths = (
{
closed = 1;
nodes = (
"913 -47 OFFCURVE",
"918 -37 OFFCURVE",
"918 -26 CURVE SMOOTH",
"918 -16 OFFCURVE",
"914 -4 OFFCURVE",
"907 3 CURVE SMOOTH",
"905 5 LINE",
"904 5 OFFCURVE",
"903 6 OFFCURVE",
"903 7 CURVE",
"870 50 OFFCURVE",
"860 154 OFFCURVE",
"860 267 CURVE SMOOTH",
"860 398 OFFCURVE",
"874 540 OFFCURVE",
"884 613 CURVE SMOOTH",
"885 623 OFFCURVE",
"886 629 OFFCURVE",
"888 638 CURVE SMOOTH",
"890 647 OFFCURVE",
"888 658 OFFCURVE",
"880 664 CURVE SMOOTH",
"875 667 OFFCURVE",
"871 668 OFFCURVE",
"868 668 CURVE SMOOTH",
"860 668 OFFCURVE",
"855 663 OFFCURVE",
"853 656 CURVE SMOOTH",
"849 641 OFFCURVE",
"848 624 OFFCURVE",
"843 593 CURVE SMOOTH",
"825 438 OFFCURVE",
"750 16 OFFCURVE",
"537 16 CURVE SMOOTH",
"445 16 OFFCURVE",
"419 97 OFFCURVE",
"419 177 CURVE SMOOTH",
"419 190 OFFCURVE",
"420 204 OFFCURVE",
"421 217 CURVE SMOOTH",
"425 262 OFFCURVE",
"437 305 OFFCURVE",
"449 348 CURVE SMOOTH",
"465 403 OFFCURVE",
"478 464 OFFCURVE",
"478 522 CURVE SMOOTH",
"478 626 OFFCURVE",
"437 718 OFFCURVE",
"303 745 CURVE SMOOTH",
"287 748 OFFCURVE",
"271 750 OFFCURVE",
"255 750 CURVE SMOOTH",
"135 750 OFFCURVE",
"47 654 OFFCURVE",
"30 533 CURVE SMOOTH",
"28 521 OFFCURVE",
"28 509 OFFCURVE",
"28 497 CURVE SMOOTH",
"28 404 OFFCURVE",
"76 319 OFFCURVE",
"173 292 CURVE SMOOTH",
"191 287 OFFCURVE",
"210 285 OFFCURVE",
"230 285 CURVE SMOOTH",
"243 285 OFFCURVE",
"257 286 OFFCURVE",
"270 289 CURVE SMOOTH",
"351 307 OFFCURVE",
"394 384 OFFCURVE",
"394 451 CURVE SMOOTH",
"394 510 OFFCURVE",
"361 561 OFFCURVE",
"292 561 CURVE SMOOTH",
"278 561 OFFCURVE",
"261 559 OFFCURVE",
"251 555 CURVE SMOOTH",
"240 550 OFFCURVE",
"234 542 OFFCURVE",
"234 534 CURVE SMOOTH",
"234 521 OFFCURVE",
"246 509 OFFCURVE",
"265 509 CURVE SMOOTH",
"273 509 OFFCURVE",
"280 510 OFFCURVE",
"284 511 CURVE SMOOTH",
"292 514 OFFCURVE",
"292 517 OFFCURVE",
"296 517 CURVE SMOOTH",
"298 517 OFFCURVE",
"301 516 OFFCURVE",
"309 514 CURVE SMOOTH",
"333 508 OFFCURVE",
"345 482 OFFCURVE",
"345 452 CURVE SMOOTH",
"345 407 OFFCURVE",
"317 351 OFFCURVE",
"259 338 CURVE SMOOTH",
"250 336 OFFCURVE",
"239 335 OFFCURVE",
"227 335 CURVE SMOOTH",
"215 335 OFFCURVE",
"202 336 OFFCURVE",
"191 339 CURVE SMOOTH",
"113 356 OFFCURVE",
"77 420 OFFCURVE",
"77 493 CURVE SMOOTH",
"77 504 OFFCURVE",
"77 515 OFFCURVE",
"79 526 CURVE SMOOTH",
"92 627 OFFCURVE",
"157 700 OFFCURVE",
"253 700 CURVE SMOOTH",
"266 700 OFFCURVE",
"279 699 OFFCURVE",
"292 696 CURVE SMOOTH",
"398 675 OFFCURVE",
"430 607 OFFCURVE",
"430 526 CURVE SMOOTH",
"430 473 OFFCURVE",
"417 416 OFFCURVE",
"402 362 CURVE SMOOTH",
"388 313 OFFCURVE",
"378 264 OFFCURVE",
"374 213 CURVE SMOOTH",
"373 203 OFFCURVE",
"373 193 OFFCURVE",
"373 182 CURVE SMOOTH",
"373 81 OFFCURVE",
"407 -33 OFFCURVE",
"533 -33 CURVE SMOOTH",
"687 -33 OFFCURVE",
"771 130 OFFCURVE",
"815 258 CURVE",
"816 173 OFFCURVE",
"823 45 OFFCURVE",
"861 -16 CURVE SMOOTH",
"865 -22 OFFCURVE",
"878 -40 OFFCURVE",
"885 -43 CURVE SMOOTH",
"891 -46 OFFCURVE",
"896 -47 OFFCURVE",
"901 -47 CURVE SMOOTH"
);
}
);
width = 953;
}
);
leftKerningGroup = U;
note = U;
rightKerningGroup = U;
unicode = 0055;
},
{
glyphname = V;
lastChange = "2021-11-12 19:33:14 +0000";
layers = (
{
background = {
paths = (
{
closed = 1;
nodes = (
"652 -25 OFFCURVE",
"661 1 OFFCURVE",
"669 27 CURVE SMOOTH",
"713 160 OFFCURVE",
"848 596 OFFCURVE",
"945 653 CURVE SMOOTH",
"953 658 OFFCURVE",
"957 659 OFFCURVE",
"960 659 CURVE SMOOTH",
"963 659 OFFCURVE",
"966 657 OFFCURVE",
"971 657 CURVE SMOOTH",
"975 657 LINE",
"994 660 OFFCURVE",
"1001 669 OFFCURVE",
"1001 678 CURVE SMOOTH",
"1001 690 OFFCURVE",
"992 702 OFFCURVE",
"983 706 CURVE SMOOTH",
"974 710 OFFCURVE",
"941 699 OFFCURVE",
"933 695 CURVE SMOOTH",
"795 626 OFFCURVE",
"681 215 OFFCURVE",
"632 68 CURVE",
"611 154 OFFCURVE",
"589 240 OFFCURVE",
"565 326 CURVE SMOOTH",
"549 384 OFFCURVE",
"532 444 OFFCURVE",
"512 501 CURVE SMOOTH",
"465 638 OFFCURVE",
"378 721 OFFCURVE",
"232 721 CURVE SMOOTH",
"198 721 OFFCURVE",
"165 716 OFFCURVE",
"135 701 CURVE SMOOTH",
"52 661 OFFCURVE",
"10 577 OFFCURVE",
"10 485 CURVE SMOOTH",
"10 374 OFFCURVE",
"87 283 OFFCURVE",
"210 283 CURVE SMOOTH",
"240 283 OFFCURVE",
"270 289 OFFCURVE",
"296 302 CURVE SMOOTH",
"353 331 OFFCURVE",
"382 394 OFFCURVE",
"382 451 CURVE SMOOTH",
"382 515 OFFCURVE",
"346 571 OFFCURVE",
"271 567 CURVE SMOOTH",
"258 566 OFFCURVE",
"226 559 OFFCURVE",
"214 552 CURVE SMOOTH",
"204 546 OFFCURVE",
"199 538 OFFCURVE",
"199 530 CURVE SMOOTH",
"199 517 OFFCURVE",
"212 505 OFFCURVE",
"232 508 CURVE SMOOTH",
"240 509 OFFCURVE",
"253 511 OFFCURVE",
"260 518 CURVE SMOOTH",
"261 519 LINE SMOOTH",
"263 521 OFFCURVE",
"264 521 OFFCURVE",
"280 520 CURVE SMOOTH",
"313 518 OFFCURVE",
"334 485 OFFCURVE",
"334 446 CURVE SMOOTH",
"334 409 OFFCURVE",
"316 369 OFFCURVE",
"274 347 CURVE SMOOTH",
"255 337 OFFCURVE",
"231 332 OFFCURVE",
"208 332 CURVE SMOOTH",
"114 332 OFFCURVE",
"59 402 OFFCURVE",
"59 488 CURVE SMOOTH",
"59 564 OFFCURVE",
"94 629 OFFCURVE",
"164 660 CURVE SMOOTH",
"179 667 OFFCURVE",
"196 671 OFFCURVE",
"213 671 CURVE SMOOTH",
"354 671 OFFCURVE",
"420 613 OFFCURVE",
"466 485 CURVE SMOOTH",
"508 368 OFFCURVE",
"539 246 OFFCURVE",
"568 127 CURVE SMOOTH",
"577 89 OFFCURVE",
"586 52 OFFCURVE",
"594 14 CURVE SMOOTH",
"597 1 OFFCURVE",
"598 -13 OFFCURVE",
"603 -26 CURVE SMOOTH",
"608 -38 OFFCURVE",
"617 -44 OFFCURVE",
"626 -44 CURVE SMOOTH",
"635 -44 OFFCURVE",
"644 -38 OFFCURVE",
"650 -29 CURVE SMOOTH"
);
}
);
};
layerId = "2ADFC918-CAA7-4AF7-825A-5AAC412EF250";
paths = (
{
closed = 1;
nodes = (
"635 -24 OFFCURVE",
"644 -18 OFFCURVE",
"650 -9 CURVE SMOOTH",
"652 -5 OFFCURVE",
"661 21 OFFCURVE",
"669 47 CURVE SMOOTH",
"713 180 OFFCURVE",
"848 616 OFFCURVE",
"945 673 CURVE SMOOTH",
"953 678 OFFCURVE",
"957 679 OFFCURVE",
"960 679 CURVE SMOOTH",
"963 679 OFFCURVE",
"966 677 OFFCURVE",
"971 677 CURVE SMOOTH",
"975 677 LINE",
"994 680 OFFCURVE",
"1001 689 OFFCURVE",
"1001 698 CURVE SMOOTH",
"1001 712 OFFCURVE",
"988 727 OFFCURVE",
"978 727 CURVE SMOOTH",
"965 727 OFFCURVE",
"940 718 OFFCURVE",
"933 715 CURVE SMOOTH",
"795 646 OFFCURVE",
"681 235 OFFCURVE",
"632 88 CURVE",
"611 174 OFFCURVE",
"589 260 OFFCURVE",
"565 346 CURVE SMOOTH",
"549 404 OFFCURVE",
"532 464 OFFCURVE",
"512 521 CURVE SMOOTH",
"465 658 OFFCURVE",
"378 741 OFFCURVE",
"232 741 CURVE SMOOTH",
"198 741 OFFCURVE",
"165 736 OFFCURVE",
"135 721 CURVE SMOOTH",
"52 681 OFFCURVE",
"10 597 OFFCURVE",
"10 505 CURVE SMOOTH",
"10 394 OFFCURVE",
"87 303 OFFCURVE",
"210 303 CURVE SMOOTH",
"240 303 OFFCURVE",
"270 309 OFFCURVE",
"296 322 CURVE SMOOTH",
"353 351 OFFCURVE",
"382 414 OFFCURVE",
"382 471 CURVE SMOOTH",
"382 535 OFFCURVE",
"346 591 OFFCURVE",
"271 587 CURVE SMOOTH",
"258 586 OFFCURVE",
"226 579 OFFCURVE",
"214 572 CURVE SMOOTH",
"204 566 OFFCURVE",
"199 558 OFFCURVE",
"199 550 CURVE SMOOTH",
"199 537 OFFCURVE",
"212 525 OFFCURVE",
"232 528 CURVE SMOOTH",
"240 529 OFFCURVE",
"253 531 OFFCURVE",
"260 538 CURVE SMOOTH",
"261 539 LINE SMOOTH",
"263 541 OFFCURVE",
"264 541 OFFCURVE",
"280 540 CURVE SMOOTH",
"313 538 OFFCURVE",
"334 505 OFFCURVE",
"334 466 CURVE SMOOTH",
"334 429 OFFCURVE",
"316 389 OFFCURVE",
"274 367 CURVE SMOOTH",
"255 357 OFFCURVE",
"231 352 OFFCURVE",
"208 352 CURVE SMOOTH",
"114 352 OFFCURVE",
"59 422 OFFCURVE",
"59 508 CURVE SMOOTH",
"59 584 OFFCURVE",
"94 649 OFFCURVE",
"164 680 CURVE SMOOTH",
"179 687 OFFCURVE",
"196 691 OFFCURVE",
"213 691 CURVE SMOOTH",
"354 691 OFFCURVE",
"420 633 OFFCURVE",
"466 505 CURVE SMOOTH",
"508 388 OFFCURVE",
"539 266 OFFCURVE",
"568 147 CURVE SMOOTH",
"577 109 OFFCURVE",
"586 72 OFFCURVE",
"594 34 CURVE SMOOTH",
"597 21 OFFCURVE",
"598 7 OFFCURVE",
"603 -6 CURVE SMOOTH",
"608 -18 OFFCURVE",
"617 -24 OFFCURVE",
"626 -24 CURVE SMOOTH"
);
}
);
width = 839;
}
);
leftMetricsKey = "=M-10";
note = V;
unicode = 0056;
},
{
glyphname = W;
lastChange = "2021-11-12 16:27:33 +0000";
layers = (
{
anchors = (
{
name = bottom;
position = "{605, 0}";
},
{
name = top;
position = "{856, 705}";
}
);
background = {
paths = (
{
closed = 1;
nodes = (
"703 -40 OFFCURVE",
"772 44 OFFCURVE",
"812 141 CURVE",
"837 44 OFFCURVE",
"887 -35 OFFCURVE",
"979 -35 CURVE SMOOTH",
"1168 -35 OFFCURVE",
"1208 210 OFFCURVE",
"1215 348 CURVE SMOOTH",
"1215 358 OFFCURVE",
"1216 369 OFFCURVE",
"1216 381 CURVE SMOOTH",
"1216 478 OFFCURVE",
"1198 642 OFFCURVE",
"1109 682 CURVE SMOOTH",
"1101 686 OFFCURVE",
"1083 690 OFFCURVE",
"1069 690 CURVE SMOOTH",
"1062 690 OFFCURVE",
"1056 689 OFFCURVE",
"1052 687 CURVE SMOOTH",
"1038 681 OFFCURVE",
"1033 673 OFFCURVE",
"1033 665 CURVE SMOOTH",
"1033 652 OFFCURVE",
"1049 639 OFFCURVE",
"1066 641 CURVE",
"1070 644 OFFCURVE",
"1075 646 OFFCURVE",
"1079 646 CURVE SMOOTH",
"1109 646 OFFCURVE",
"1133 573 OFFCURVE",
"1139 556 CURVE SMOOTH",
"1158 500 OFFCURVE",
"1167 438 OFFCURVE",
"1167 379 CURVE SMOOTH",
"1167 274 OFFCURVE",
"1141 14 OFFCURVE",
"980 13 CURVE SMOOTH",
"881 12 OFFCURVE",
"851 186 OFFCURVE",
"844 241 CURVE",
"855 284 OFFCURVE",
"862 326 OFFCURVE",
"866 363 CURVE SMOOTH",
"869 389 OFFCURVE",
"871 428 OFFCURVE",
"871 465 CURVE SMOOTH",
"871 497 OFFCURVE",
"869 528 OFFCURVE",
"864 550 CURVE SMOOTH",
"862 557 OFFCURVE",
"858 571 OFFCURVE",
"849 571 CURVE SMOOTH",
"828 571 OFFCURVE",
"816 524 OFFCURVE",
"812 508 CURVE SMOOTH",
"800 467 OFFCURVE",
"792 399 OFFCURVE",
"792 326 CURVE SMOOTH",
"792 298 OFFCURVE",
"793 270 OFFCURVE",
"796 241 CURVE",
"765 139 OFFCURVE",
"706 7 OFFCURVE",
"586 7 CURVE SMOOTH",
"585 7 LINE SMOOTH",
"527 7 OFFCURVE",
"510 82 OFFCURVE",
"510 168 CURVE SMOOTH",
"510 265 OFFCURVE",
"531 376 OFFCURVE",
"536 411 CURVE SMOOTH",
"539 433 OFFCURVE",
"541 455 OFFCURVE",
"541 477 CURVE SMOOTH",
"541 498 OFFCURVE",
"539 519 OFFCURVE",
"535 540 CURVE SMOOTH",
"512 656 OFFCURVE",
"413 722 OFFCURVE",
"299 722 CURVE SMOOTH",
"263 722 OFFCURVE",
"225 713 OFFCURVE",
"192 699 CURVE SMOOTH",
"74 650 OFFCURVE",
"20 548 OFFCURVE",
"20 423 CURVE SMOOTH",
"20 303 OFFCURVE",
"82 198 OFFCURVE",
"220 198 CURVE SMOOTH",
"252 198 OFFCURVE",
"288 205 OFFCURVE",
"316 219 CURVE SMOOTH",
"376 250 OFFCURVE",
"409 313 OFFCURVE",
"409 370 CURVE SMOOTH",
"409 430 OFFCURVE",
"372 483 OFFCURVE",
"293 483 CURVE SMOOTH",
"279 483 OFFCURVE",
"261 481 OFFCURVE",
"252 478 CURVE SMOOTH",
"241 474 OFFCURVE",
"233 463 OFFCURVE",
"233 452 CURVE SMOOTH",
"233 442 OFFCURVE",
"241 433 OFFCURVE",
"261 432 CURVE SMOOTH",
"272 432 OFFCURVE",
"280 432 OFFCURVE",
"291 436 CURVE SMOOTH",
"295 437 OFFCURVE",
"298 437 OFFCURVE",
"313 433 CURVE SMOOTH",
"346 424 OFFCURVE",
"361 393 OFFCURVE",
"361 361 CURVE SMOOTH",
"361 345 OFFCURVE",
"357 328 OFFCURVE",
"349 313 CURVE SMOOTH",
"337 289 OFFCURVE",
"321 275 OFFCURVE",
"297 263 CURVE SMOOTH",
"274 251 OFFCURVE",
"241 245 OFFCURVE",
"215 245 CURVE SMOOTH",
"113 247 OFFCURVE",
"69 328 OFFCURVE",
"69 422 CURVE SMOOTH",
"69 527 OFFCURVE",
"110 615 OFFCURVE",
"208 656 CURVE SMOOTH",
"236 667 OFFCURVE",
"267 674 OFFCURVE",
"297 674 CURVE SMOOTH",
"399 674 OFFCURVE",
"474 622 OFFCURVE",
"489 518 CURVE SMOOTH",
"491 504 OFFCURVE",
"492 490 OFFCURVE",
"492 475 CURVE SMOOTH",
"492 456 OFFCURVE",
"490 436 OFFCURVE",
"488 416 CURVE SMOOTH",
"484 382 OFFCURVE",
"476 348 OFFCURVE",
"471 315 CURVE SMOOTH",
"466 281 OFFCURVE",
"458 226 OFFCURVE",
"458 170 CURVE SMOOTH",
"458 67 OFFCURVE",
"483 -40 OFFCURVE",
"592 -40 CURVE SMOOTH"
);
}
);
};
layerId = "2ADFC918-CAA7-4AF7-825A-5AAC412EF250";
paths = (
{
closed = 1;
nodes = (
"703 -20 OFFCURVE",
"772 64 OFFCURVE",
"812 161 CURVE",
"837 64 OFFCURVE",
"887 -15 OFFCURVE",
"979 -15 CURVE SMOOTH",
"1168 -15 OFFCURVE",
"1208 230 OFFCURVE",
"1215 368 CURVE SMOOTH",
"1215 378 OFFCURVE",
"1216 389 OFFCURVE",
"1216 401 CURVE SMOOTH",
"1216 498 OFFCURVE",
"1198 662 OFFCURVE",
"1109 702 CURVE SMOOTH",
"1101 706 OFFCURVE",
"1083 710 OFFCURVE",
"1069 710 CURVE SMOOTH",
"1062 710 OFFCURVE",
"1056 709 OFFCURVE",
"1052 707 CURVE SMOOTH",
"1038 701 OFFCURVE",
"1033 693 OFFCURVE",
"1033 685 CURVE SMOOTH",
"1033 672 OFFCURVE",
"1049 659 OFFCURVE",
"1066 661 CURVE",
"1070 664 OFFCURVE",
"1075 666 OFFCURVE",
"1079 666 CURVE SMOOTH",
"1109 666 OFFCURVE",
"1133 593 OFFCURVE",
"1139 576 CURVE SMOOTH",
"1158 520 OFFCURVE",
"1167 458 OFFCURVE",
"1167 399 CURVE SMOOTH",
"1167 294 OFFCURVE",
"1141 34 OFFCURVE",
"980 33 CURVE SMOOTH",
"881 32 OFFCURVE",
"851 206 OFFCURVE",
"844 261 CURVE",
"855 304 OFFCURVE",
"862 346 OFFCURVE",
"866 383 CURVE SMOOTH",
"869 409 OFFCURVE",
"871 448 OFFCURVE",
"871 485 CURVE SMOOTH",
"871 517 OFFCURVE",
"869 548 OFFCURVE",
"864 570 CURVE SMOOTH",
"862 577 OFFCURVE",
"858 591 OFFCURVE",
"849 591 CURVE SMOOTH",
"828 591 OFFCURVE",
"816 544 OFFCURVE",
"812 528 CURVE SMOOTH",
"800 487 OFFCURVE",
"792 419 OFFCURVE",
"792 346 CURVE SMOOTH",
"792 318 OFFCURVE",
"793 290 OFFCURVE",
"796 261 CURVE",
"765 159 OFFCURVE",
"706 27 OFFCURVE",
"586 27 CURVE SMOOTH",
"585 27 LINE SMOOTH",
"527 27 OFFCURVE",
"510 102 OFFCURVE",
"510 188 CURVE SMOOTH",
"510 285 OFFCURVE",
"531 396 OFFCURVE",
"536 431 CURVE SMOOTH",
"539 453 OFFCURVE",
"541 475 OFFCURVE",
"541 497 CURVE SMOOTH",
"541 518 OFFCURVE",
"539 539 OFFCURVE",
"535 560 CURVE SMOOTH",
"512 676 OFFCURVE",
"413 742 OFFCURVE",
"299 742 CURVE SMOOTH",
"263 742 OFFCURVE",
"225 733 OFFCURVE",
"192 719 CURVE SMOOTH",
"74 670 OFFCURVE",
"20 568 OFFCURVE",
"20 443 CURVE SMOOTH",
"20 323 OFFCURVE",
"82 218 OFFCURVE",
"220 218 CURVE SMOOTH",
"252 218 OFFCURVE",
"288 225 OFFCURVE",
"316 239 CURVE SMOOTH",
"376 270 OFFCURVE",
"409 333 OFFCURVE",
"409 390 CURVE SMOOTH",
"409 450 OFFCURVE",
"372 503 OFFCURVE",
"293 503 CURVE SMOOTH",
"279 503 OFFCURVE",
"261 501 OFFCURVE",
"252 498 CURVE SMOOTH",
"241 494 OFFCURVE",
"233 483 OFFCURVE",
"233 472 CURVE SMOOTH",
"233 462 OFFCURVE",
"241 453 OFFCURVE",
"261 452 CURVE SMOOTH",
"272 452 OFFCURVE",
"280 452 OFFCURVE",
"291 456 CURVE SMOOTH",
"295 457 OFFCURVE",
"298 457 OFFCURVE",
"313 453 CURVE SMOOTH",
"346 444 OFFCURVE",
"361 413 OFFCURVE",
"361 381 CURVE SMOOTH",
"361 365 OFFCURVE",
"357 348 OFFCURVE",
"349 333 CURVE SMOOTH",
"337 309 OFFCURVE",
"321 295 OFFCURVE",
"297 283 CURVE SMOOTH",
"274 271 OFFCURVE",
"241 265 OFFCURVE",
"215 265 CURVE SMOOTH",
"113 267 OFFCURVE",
"69 348 OFFCURVE",
"69 442 CURVE SMOOTH",
"69 547 OFFCURVE",
"110 635 OFFCURVE",
"208 676 CURVE SMOOTH",
"236 687 OFFCURVE",
"267 694 OFFCURVE",
"297 694 CURVE SMOOTH",
"399 694 OFFCURVE",
"474 642 OFFCURVE",
"489 538 CURVE SMOOTH",
"491 524 OFFCURVE",
"492 510 OFFCURVE",
"492 495 CURVE SMOOTH",
"492 476 OFFCURVE",
"490 456 OFFCURVE",
"488 436 CURVE SMOOTH",
"484 402 OFFCURVE",
"476 368 OFFCURVE",
"471 335 CURVE SMOOTH",
"466 301 OFFCURVE",
"458 246 OFFCURVE",
"458 190 CURVE SMOOTH",
"458 87 OFFCURVE",
"483 -20 OFFCURVE",
"592 -20 CURVE SMOOTH"
);
}
);
width = 1254;
}
);
leftKerningGroup = W;
leftMetricsKey = M;
note = W;
rightKerningGroup = W;
unicode = 0057;
},
{
glyphname = X;
lastChange = "2021-11-12 16:15:12 +0000";
layers = (
{
background = {
paths = (
{
closed = 1;
nodes = (
"639 -47 OFFCURVE",
"645 -40 OFFCURVE",
"645 -32 CURVE SMOOTH",
"645 -16 OFFCURVE",
"621 -1 OFFCURVE",
"607 -6 CURVE SMOOTH",
"605 -7 LINE SMOOTH",
"596 -10 OFFCURVE",
"579 -6 OFFCURVE",
"571 -2 CURVE SMOOTH",
"489 30 OFFCURVE",
"402 235 OFFCURVE",
"366 315 CURVE",
"396 350 OFFCURVE",
"448 409 OFFCURVE",
"496 469 CURVE SMOOTH",
"546 531 OFFCURVE",
"592 595 OFFCURVE",
"608 637 CURVE",
"608 638 OFFCURVE",
"612 654 OFFCURVE",
"612 658 CURVE SMOOTH",
"612 659 LINE",
"606 677 OFFCURVE",
"596 683 OFFCURVE",
"586 683 CURVE SMOOTH",
"573 683 OFFCURVE",
"561 673 OFFCURVE",
"561 661 CURVE SMOOTH",
"561 607 OFFCURVE",
"388 415 OFFCURVE",
"344 366 CURVE",
"314 436 OFFCURVE",
"230 643 OFFCURVE",
"157 666 CURVE SMOOTH",
"152 667 OFFCURVE",
"147 668 OFFCURVE",
"142 668 CURVE SMOOTH",
"125 668 OFFCURVE",
"110 661 OFFCURVE",
"110 649 CURVE SMOOTH",
"110 640 OFFCURVE",
"118 630 OFFCURVE",
"139 619 CURVE SMOOTH",
"148 615 LINE SMOOTH",
"190 592 OFFCURVE",
"282 376 OFFCURVE",
"305 323 CURVE",
"248 257 OFFCURVE",
"58 50 OFFCURVE",
"45 -24 CURVE SMOOTH",
"41 -46 OFFCURVE",
"53 -65 OFFCURVE",
"69 -65 CURVE SMOOTH",
"80 -65 OFFCURVE",
"93 -55 OFFCURVE",
"104 -30 CURVE SMOOTH",
"105 -28 OFFCURVE",
"104 -26 OFFCURVE",
"104 -24 CURVE SMOOTH",
"104 -22 LINE SMOOTH",
"105 -15 OFFCURVE",
"108 -7 OFFCURVE",
"112 0 CURVE SMOOTH",
"138 52 OFFCURVE",
"178 96 OFFCURVE",
"215 140 CURVE SMOOTH",
"252 185 OFFCURVE",
"291 228 OFFCURVE",
"329 272 CURVE",
"373 173 OFFCURVE",
"466 -23 OFFCURVE",
"580 -51 CURVE SMOOTH",
"585 -52 OFFCURVE",
"600 -55 OFFCURVE",
"611 -55 CURVE SMOOTH",
"617 -55 OFFCURVE",
"621 -54 OFFCURVE",
"624 -53 CURVE SMOOTH"
);
}
);
};
layerId = "2ADFC918-CAA7-4AF7-825A-5AAC412EF250";
paths = (
{
closed = 1;
nodes = (
"80 -45 OFFCURVE",
"93 -35 OFFCURVE",
"104 -10 CURVE SMOOTH",
"105 -8 OFFCURVE",
"104 -6 OFFCURVE",
"104 -4 CURVE SMOOTH",
"104 -2 LINE SMOOTH",
"105 5 OFFCURVE",
"108 13 OFFCURVE",
"112 20 CURVE SMOOTH",
"138 72 OFFCURVE",
"178 116 OFFCURVE",
"215 160 CURVE SMOOTH",
"252 205 OFFCURVE",
"291 248 OFFCURVE",
"329 292 CURVE",
"373 193 OFFCURVE",
"466 -3 OFFCURVE",
"580 -31 CURVE SMOOTH",
"585 -32 OFFCURVE",
"600 -35 OFFCURVE",
"611 -35 CURVE SMOOTH",
"617 -35 OFFCURVE",
"621 -34 OFFCURVE",
"624 -33 CURVE SMOOTH",
"639 -27 OFFCURVE",
"645 -20 OFFCURVE",
"645 -12 CURVE SMOOTH",
"645 4 OFFCURVE",
"621 19 OFFCURVE",
"607 14 CURVE SMOOTH",
"605 13 LINE SMOOTH",
"596 10 OFFCURVE",
"579 14 OFFCURVE",
"571 18 CURVE SMOOTH",
"489 50 OFFCURVE",
"402 255 OFFCURVE",
"366 335 CURVE",
"396 370 OFFCURVE",
"448 429 OFFCURVE",
"496 489 CURVE SMOOTH",
"546 551 OFFCURVE",
"592 615 OFFCURVE",
"608 657 CURVE",
"608 658 OFFCURVE",
"612 674 OFFCURVE",
"612 678 CURVE SMOOTH",
"612 679 LINE",
"606 697 OFFCURVE",
"596 703 OFFCURVE",
"586 703 CURVE SMOOTH",
"573 703 OFFCURVE",
"561 693 OFFCURVE",
"561 681 CURVE SMOOTH",
"561 627 OFFCURVE",
"388 435 OFFCURVE",
"344 386 CURVE",
"314 456 OFFCURVE",
"230 663 OFFCURVE",
"157 686 CURVE SMOOTH",
"152 687 OFFCURVE",
"147 688 OFFCURVE",
"142 688 CURVE SMOOTH",
"125 688 OFFCURVE",
"110 681 OFFCURVE",
"110 669 CURVE SMOOTH",
"110 660 OFFCURVE",
"118 650 OFFCURVE",
"139 639 CURVE SMOOTH",
"148 635 LINE SMOOTH",
"190 612 OFFCURVE",
"282 396 OFFCURVE",
"305 343 CURVE",
"248 277 OFFCURVE",
"58 70 OFFCURVE",
"45 -4 CURVE SMOOTH",
"41 -26 OFFCURVE",
"53 -45 OFFCURVE",
"69 -45 CURVE SMOOTH"
);
}
);
width = 653;
}
);
note = X;
unicode = 0058;
},
